<?xml version="1.0" encoding="UTF-8"?>
<svg id="_レイヤー_2" data-name="レイヤー_2" xmlns="http://www.w3.org/2000/svg" width="40mm" height="40mm" viewBox="0 0 113.39 113.39">
  <defs>
    <style>
      .cls-1 {
        fill: #231815;
      }
    </style>
  </defs>
  <g id="_レイヤー_1-2" data-name="レイヤー_1">
    <path class="cls-1" d="M0,0v113.39h113.39V0H0ZM102.05,6.8c2.5,0,4.54,2.03,4.54,4.54s-2.03,4.54-4.54,4.54-4.54-2.03-4.54-4.54,2.03-4.54,4.54-4.54ZM11.34,6.8c2.5,0,4.54,2.03,4.54,4.54s-2.03,4.54-4.54,4.54-4.54-2.03-4.54-4.54,2.03-4.54,4.54-4.54ZM11.34,106.58c-2.5,0-4.54-2.03-4.54-4.54s2.03-4.54,4.54-4.54,4.54,2.03,4.54,4.54-2.03,4.54-4.54,4.54ZM102.05,106.58c-2.5,0-4.54-2.03-4.54-4.54s2.03-4.54,4.54-4.54,4.54,2.03,4.54,4.54-2.03,4.54-4.54,4.54ZM56.69,110.55c-29.75,0-53.86-24.11-53.86-53.86S26.95,2.83,56.69,2.83s53.86,24.11,53.86,53.86-24.11,53.86-53.86,53.86Z"/>
  </g>
</svg>