<?xml version="1.0" encoding="UTF-8"?>
<svg id="_レイヤー_2" data-name="レイヤー_2" xmlns="http://www.w3.org/2000/svg" width="76mm" height="38.92mm" viewBox="0 0 215.43 110.33">
  <defs>
    <style>
      .cls-1 {
        fill: #e83818;
      }
    </style>
  </defs>
  <g id="_レイヤー_1-2" data-name="レイヤー_1">
    <path class="cls-1" d="M0,2.84v104.64c0,1.57,1.27,2.84,2.84,2.84h209.74c1.57,0,2.84-1.27,2.84-2.84V2.84c0-1.57-1.27-2.84-2.84-2.84H2.84C1.27,0,0,1.27,0,2.84ZM205.79,101.83H9.64c-.63,0-1.13-.51-1.13-1.13V9.64c0-.63.51-1.13,1.13-1.13h196.16c.63,0,1.13.51,1.13,1.13v91.06c0,.63-.51,1.13-1.13,1.13Z"/>
  </g>
</svg>