<?xml version="1.0" encoding="UTF-8"?>
<svg id="_レイヤー_2" data-name="レイヤー_2" xmlns="http://www.w3.org/2000/svg" width="36.98mm" height="25.35mm" viewBox="0 0 104.84 71.85">
  <defs>
    <style>
      .cls-1 {
        fill: #6dbc61;
      }
    </style>
  </defs>
  <g id="_レイヤー_1-2" data-name="レイヤー_1">
    <rect class="cls-1" x="14.93" y="24.57" width="48.19" height="22.71" transform="translate(3.1 74.95) rotate(-90)"/>
    <g>
      <polygon class="cls-1" points="104.84 31.56 104.84 22.43 96.93 17.86 89.02 22.43 89.02 31.56 96.93 36.12 104.84 31.56"/>
      <polygon class="cls-1" points="85.05 31.56 85.05 22.43 77.15 17.86 69.24 22.43 69.24 31.56 77.15 36.12 85.05 31.56"/>
      <polygon class="cls-1" points="25.7 31.56 25.7 22.43 17.8 17.86 9.89 22.43 9.89 31.56 17.8 36.12 25.7 31.56"/>
      <polygon class="cls-1" points="94.94 49.42 94.94 40.29 87.04 35.73 79.13 40.29 79.13 49.42 87.04 53.99 94.94 49.42"/>
      <polygon class="cls-1" points="75.16 49.42 75.16 40.29 67.26 35.73 59.35 40.29 59.35 49.42 67.26 53.99 75.16 49.42"/>
      <polygon class="cls-1" points="15.81 49.42 15.81 40.29 7.91 35.73 0 40.29 0 49.42 7.91 53.99 15.81 49.42"/>
      <polygon class="cls-1" points="94.94 13.69 94.94 4.56 87.04 0 79.13 4.56 79.13 13.69 87.04 18.26 94.94 13.69"/>
      <polygon class="cls-1" points="75.16 13.69 75.16 4.56 67.26 0 59.35 4.56 59.35 13.69 67.26 18.26 75.16 13.69"/>
      <polygon class="cls-1" points="15.81 13.69 15.81 4.56 7.91 0 0 4.56 0 13.69 7.91 18.26 15.81 13.69"/>
      <polygon class="cls-1" points="104.22 67.29 104.22 58.16 96.31 53.59 88.4 58.16 88.4 67.29 96.31 71.85 104.22 67.29"/>
      <polygon class="cls-1" points="84.43 67.29 84.43 58.16 76.53 53.59 68.62 58.16 68.62 67.29 76.53 71.85 84.43 67.29"/>
      <polygon class="cls-1" points="25.08 67.29 25.08 58.16 17.18 53.59 9.27 58.16 9.27 67.29 17.18 71.85 25.08 67.29"/>
    </g>
  </g>
</svg>