solid OpenSCAD_Model
  facet normal 0 0 -1
    outer loop
      vertex 0.0644531 82.4521 -15
      vertex 0.00390625 82.7734 -15
      vertex 0.490234 82.2334 -15
    endloop
  endfacet
  facet normal 0 0 -1
    outer loop
      vertex 15.8447 82.0137 -15
      vertex 17.1523 83.9336 -15
      vertex 17.4062 82.0156 -15
    endloop
  endfacet
  facet normal 0 0 -1
    outer loop
      vertex 59.6914 0.0400391 -15
      vertex 60.0205 1.09961 -15
      vertex 59.9678 0.56543 -15
    endloop
  endfacet
  facet normal 0 0 -1
    outer loop
      vertex 17.1523 83.9336 -15
      vertex 34.2471 83.8906 -15
      vertex 17.4062 82.0156 -15
    endloop
  endfacet
  facet normal 0 0 -1
    outer loop
      vertex 42.2158 10.8867 -15
      vertex 60.1084 6.15137 -15
      vertex 60.0889 3.74023 -15
    endloop
  endfacet
  facet normal 0 0 -1
    outer loop
      vertex 42.2158 10.8867 -15
      vertex 60.1201 9.49512 -15
      vertex 60.1084 6.15137 -15
    endloop
  endfacet
  facet normal 0 -0 -1
    outer loop
      vertex 34.2471 83.8906 -15
      vertex 34.2471 82.0566 -15
      vertex 17.4062 82.0156 -15
    endloop
  endfacet
  facet normal 0 -0 -1
    outer loop
      vertex 100.044 59.9834 -15
      vertex 100.044 39.9551 -15
      vertex 89.7832 48.5029 -15
    endloop
  endfacet
  facet normal 0 0 -1
    outer loop
      vertex 17.1523 83.9336 -15
      vertex 15.8447 82.0137 -15
      vertex 11.1631 82.0039 -15
    endloop
  endfacet
  facet normal -0 0 -1
    outer loop
      vertex 100.044 59.9834 -15
      vertex 89.7598 52.3486 -15
      vertex 94.1201 59.9834 -15
    endloop
  endfacet
  facet normal 0 0 -1
    outer loop
      vertex 6.61719 82 -15
      vertex 17.1523 83.9336 -15
      vertex 11.1631 82.0039 -15
    endloop
  endfacet
  facet normal 0 0 -1
    outer loop
      vertex 54.7109 83.9414 -15
      vertex 60.2227 83.9365 -15
      vertex 61.4609 39.7422 -15
    endloop
  endfacet
  facet normal 0 0 -1
    outer loop
      vertex 6.61719 82 -15
      vertex 0.0439453 83.9609 -15
      vertex 17.1523 83.9336 -15
    endloop
  endfacet
  facet normal 0 0 -1
    outer loop
      vertex 0.490234 82.2334 -15
      vertex 0.0439453 83.1035 -15
      vertex 1.54785 82.0967 -15
    endloop
  endfacet
  facet normal 0 0 -1
    outer loop
      vertex 0.490234 82.2334 -15
      vertex 0.00390625 82.7734 -15
      vertex 0.0439453 83.1035 -15
    endloop
  endfacet
  facet normal 0 0 -1
    outer loop
      vertex 1.54785 82.0967 -15
      vertex 0.0439453 83.1035 -15
      vertex 0.0439453 83.9609 -15
    endloop
  endfacet
  facet normal 0 0 -1
    outer loop
      vertex 3.50195 82.0254 -15
      vertex 1.54785 82.0967 -15
      vertex 0.0439453 83.9609 -15
    endloop
  endfacet
  facet normal 0 0 -1
    outer loop
      vertex 90.4062 40.623 -15
      vertex 91.1465 40.0762 -15
      vertex 90.7617 40.1943 -15
    endloop
  endfacet
  facet normal 0 0 -1
    outer loop
      vertex 6.61719 82 -15
      vertex 3.50195 82.0254 -15
      vertex 0.0439453 83.9609 -15
    endloop
  endfacet
  facet normal 0 0 -1
    outer loop
      vertex 59.6914 0.0400391 -15
      vertex 60.0605 2.10742 -15
      vertex 60.0205 1.09961 -15
    endloop
  endfacet
  facet normal -0 0 -1
    outer loop
      vertex 60.0889 3.74023 -15
      vertex 60.0605 2.10742 -15
      vertex 42.2158 10.8867 -15
    endloop
  endfacet
  facet normal -0 0 -1
    outer loop
      vertex 94.1201 83.9609 -15
      vertex 89.7471 62.5742 -15
      vertex 89.7471 83.9609 -15
    endloop
  endfacet
  facet normal -0 0 -1
    outer loop
      vertex 94.1201 59.9834 -15
      vertex 89.749 57.5225 -15
      vertex 89.7471 62.5742 -15
    endloop
  endfacet
  facet normal 0 -0 -1
    outer loop
      vertex 94.1201 83.9609 -15
      vertex 94.1201 59.9834 -15
      vertex 89.7471 62.5742 -15
    endloop
  endfacet
  facet normal 0 0 -1
    outer loop
      vertex 39.9463 81.9424 -15
      vertex 38.6865 83.9004 -15
      vertex 41.0088 83.9238 -15
    endloop
  endfacet
  facet normal 0 0 -1
    outer loop
      vertex 54.7109 83.9414 -15
      vertex 61.4609 39.7422 -15
      vertex 60.9385 39.5693 -15
    endloop
  endfacet
  facet normal 0 0 -1
    outer loop
      vertex 94.1201 59.9834 -15
      vertex 89.7598 52.3486 -15
      vertex 89.749 57.5225 -15
    endloop
  endfacet
  facet normal 0 0 -1
    outer loop
      vertex 100.044 59.9834 -15
      vertex 89.7832 48.5029 -15
      vertex 89.7598 52.3486 -15
    endloop
  endfacet
  facet normal 0 0 -1
    outer loop
      vertex 60.2227 83.9365 -15
      vertex 62.0596 83.9336 -15
      vertex 62.4385 39.8555 -15
    endloop
  endfacet
  facet normal 0 0 -1
    outer loop
      vertex 59.9678 0.56543 -15
      vertex 59.9023 0.349609 -15
      vertex 59.6914 0.0400391 -15
    endloop
  endfacet
  facet normal 0 0 -1
    outer loop
      vertex 59.9678 0.56543 -15
      vertex 59.9326 0.394531 -15
      vertex 59.9023 0.349609 -15
    endloop
  endfacet
  facet normal 0 0 -1
    outer loop
      vertex 95.1426 39.9551 -15
      vertex 89.8271 45.748 -15
      vertex 89.7832 48.5029 -15
    endloop
  endfacet
  facet normal 0 0 -1
    outer loop
      vertex 89.9951 42.5771 -15
      vertex 89.8965 43.8516 -15
      vertex 93.8984 39.958 -15
    endloop
  endfacet
  facet normal 0 0 -1
    outer loop
      vertex 90.1318 41.6914 -15
      vertex 92.6514 39.9688 -15
      vertex 91.7559 40.0039 -15
    endloop
  endfacet
  facet normal 0 0 -1
    outer loop
      vertex 60.125 13.9219 -15
      vertex 60.1201 9.49512 -15
      vertex 42.2158 10.8867 -15
    endloop
  endfacet
  facet normal 0 0 -1
    outer loop
      vertex 90.2617 41.1396 -15
      vertex 91.7559 40.0039 -15
      vertex 90.3115 40.957 -15
    endloop
  endfacet
  facet normal -0 0 -1
    outer loop
      vertex 87.9619 52.248 -15
      vertex 73.7461 39.9551 -15
      vertex 87.9385 57.1543 -15
    endloop
  endfacet
  facet normal 0 0 -1
    outer loop
      vertex 90.3115 40.957 -15
      vertex 91.7559 40.0039 -15
      vertex 91.1465 40.0762 -15
    endloop
  endfacet
  facet normal 0 0 -1
    outer loop
      vertex 75.9277 39.9551 -15
      vertex 73.7461 39.9551 -15
      vertex 87.9619 52.248 -15
    endloop
  endfacet
  facet normal 0 0 -1
    outer loop
      vertex 90.333 40.874 -15
      vertex 91.1465 40.0762 -15
      vertex 90.4062 40.623 -15
    endloop
  endfacet
  facet normal 0 0 -1
    outer loop
      vertex 78.8564 39.958 -15
      vertex 87.9873 48.5869 -15
      vertex 81.9248 39.9629 -15
    endloop
  endfacet
  facet normal 0 0 -1
    outer loop
      vertex 88.1074 43.0195 -15
      vertex 85.9443 39.9932 -15
      vertex 84.2529 39.9746 -15
    endloop
  endfacet
  facet normal 0 0 -1
    outer loop
      vertex 90.5361 40.3721 -15
      vertex 90.4062 40.623 -15
      vertex 90.7617 40.1943 -15
    endloop
  endfacet
  facet normal 0 0 -1
    outer loop
      vertex 90.333 40.874 -15
      vertex 90.3115 40.957 -15
      vertex 91.1465 40.0762 -15
    endloop
  endfacet
  facet normal 0 0 -1
    outer loop
      vertex 90.2617 41.1396 -15
      vertex 90.1318 41.6914 -15
      vertex 91.7559 40.0039 -15
    endloop
  endfacet
  facet normal 0 0 -1
    outer loop
      vertex 87.0977 40.0195 -15
      vertex 88.2275 41.8906 -15
      vertex 88.252 41.7617 -15
    endloop
  endfacet
  facet normal 0 0 -1
    outer loop
      vertex 90.1318 41.6914 -15
      vertex 89.9951 42.5771 -15
      vertex 92.6514 39.9688 -15
    endloop
  endfacet
  facet normal 0 0 -1
    outer loop
      vertex 88.4121 40.3311 -15
      vertex 88.3643 40.2012 -15
      vertex 88.1934 40.1064 -15
    endloop
  endfacet
  facet normal 0 0 -1
    outer loop
      vertex 92.6514 39.9688 -15
      vertex 89.9951 42.5771 -15
      vertex 93.8984 39.958 -15
    endloop
  endfacet
  facet normal 0 0 -1
    outer loop
      vertex 93.8984 39.958 -15
      vertex 89.8965 43.8516 -15
      vertex 95.1426 39.9551 -15
    endloop
  endfacet
  facet normal 0 0 -1
    outer loop
      vertex 95.1426 39.9551 -15
      vertex 89.8965 43.8516 -15
      vertex 89.8271 45.748 -15
    endloop
  endfacet
  facet normal 0 0 -1
    outer loop
      vertex 100.044 39.9551 -15
      vertex 95.1426 39.9551 -15
      vertex 89.7832 48.5029 -15
    endloop
  endfacet
  facet normal 0 0 -1
    outer loop
      vertex 88.374 41.0674 -15
      vertex 87.8145 40.0566 -15
      vertex 87.0977 40.0195 -15
    endloop
  endfacet
  facet normal 0 0 -1
    outer loop
      vertex 60.1279 18.1719 -15
      vertex 60.125 13.9219 -15
      vertex 42.2158 10.8867 -15
    endloop
  endfacet
  facet normal 0 0 -1
    outer loop
      vertex 42.2158 10.8867 -15
      vertex 60.1279 38.5029 -15
      vertex 60.1279 18.1719 -15
    endloop
  endfacet
  facet normal 0 -0 -1
    outer loop
      vertex 87.9189 61.9209 -15
      vertex 87.9385 57.1543 -15
      vertex 70.1279 39.9561 -15
    endloop
  endfacet
  facet normal -0 -0 -1
    outer loop
      vertex 87.9131 63.5098 -15
      vertex 87.9189 61.9209 -15
      vertex 62.0596 83.9336 -15
    endloop
  endfacet
  facet normal 0 0 -1
    outer loop
      vertex 59.6914 0.0400391 -15
      vertex 41.5244 10.1943 -15
      vertex 60.0605 2.10742 -15
    endloop
  endfacet
  facet normal -0 0 -1
    outer loop
      vertex 60.4531 38.9814 -15
      vertex 60.1279 38.5029 -15
      vertex 60.6699 39.3193 -15
    endloop
  endfacet
  facet normal -0 0 -1
    outer loop
      vertex 60.5088 39.0654 -15
      vertex 60.4531 38.9814 -15
      vertex 60.6699 39.3193 -15
    endloop
  endfacet
  facet normal -0 0 -1
    outer loop
      vertex 60.6699 39.3193 -15
      vertex 60.1279 38.5029 -15
      vertex 42.2158 81.2246 -15
    endloop
  endfacet
  facet normal 0 0 -1
    outer loop
      vertex 61.4609 39.7422 -15
      vertex 60.2227 83.9365 -15
      vertex 62.4385 39.8555 -15
    endloop
  endfacet
  facet normal -0 0 -1
    outer loop
      vertex 60.9385 39.5693 -15
      vertex 60.6699 39.3193 -15
      vertex 42.2158 81.2246 -15
    endloop
  endfacet
  facet normal 0 0 -1
    outer loop
      vertex 66.5703 39.9482 -15
      vertex 87.9189 61.9209 -15
      vertex 70.1279 39.9561 -15
    endloop
  endfacet
  facet normal -0 0 -1
    outer loop
      vertex 78.8564 39.958 -15
      vertex 75.9277 39.9551 -15
      vertex 87.9619 52.248 -15
    endloop
  endfacet
  facet normal 0 0 -1
    outer loop
      vertex 81.9248 39.9629 -15
      vertex 88.0195 45.9658 -15
      vertex 88.0576 44.1787 -15
    endloop
  endfacet
  facet normal 0 0 -1
    outer loop
      vertex 87.8145 40.0566 -15
      vertex 88.4258 40.6104 -15
      vertex 88.1934 40.1064 -15
    endloop
  endfacet
  facet normal 0 0 -1
    outer loop
      vertex 88.1934 40.1064 -15
      vertex 88.3359 40.167 -15
      vertex 88.3145 40.1406 -15
    endloop
  endfacet
  facet normal 0 0 -1
    outer loop
      vertex 88.1934 40.1064 -15
      vertex 88.3643 40.2012 -15
      vertex 88.3359 40.167 -15
    endloop
  endfacet
  facet normal 0 0 -1
    outer loop
      vertex 88.4258 40.6104 -15
      vertex 88.4121 40.3311 -15
      vertex 88.1934 40.1064 -15
    endloop
  endfacet
  facet normal 0 -0 -1
    outer loop
      vertex 88.374 41.0674 -15
      vertex 88.4258 40.6104 -15
      vertex 87.8145 40.0566 -15
    endloop
  endfacet
  facet normal 0 -0 -1
    outer loop
      vertex 88.2842 41.5889 -15
      vertex 88.374 41.0674 -15
      vertex 87.0977 40.0195 -15
    endloop
  endfacet
  facet normal 0 -0 -1
    outer loop
      vertex 88.252 41.7617 -15
      vertex 88.2842 41.5889 -15
      vertex 87.0977 40.0195 -15
    endloop
  endfacet
  facet normal 0 0 -1
    outer loop
      vertex 88.2275 41.8906 -15
      vertex 87.0977 40.0195 -15
      vertex 85.9443 39.9932 -15
    endloop
  endfacet
  facet normal 0 -0 -1
    outer loop
      vertex 88.1709 42.2822 -15
      vertex 88.2275 41.8906 -15
      vertex 85.9443 39.9932 -15
    endloop
  endfacet
  facet normal 0 -0 -1
    outer loop
      vertex 88.1074 43.0195 -15
      vertex 88.1709 42.2822 -15
      vertex 85.9443 39.9932 -15
    endloop
  endfacet
  facet normal 0 -0 -1
    outer loop
      vertex 88.0576 44.1787 -15
      vertex 88.1074 43.0195 -15
      vertex 84.2529 39.9746 -15
    endloop
  endfacet
  facet normal 0 0 -1
    outer loop
      vertex 81.9248 39.9629 -15
      vertex 88.0576 44.1787 -15
      vertex 84.2529 39.9746 -15
    endloop
  endfacet
  facet normal 0 -0 -1
    outer loop
      vertex 87.9873 48.5869 -15
      vertex 88.0195 45.9658 -15
      vertex 81.9248 39.9629 -15
    endloop
  endfacet
  facet normal 0 -0 -1
    outer loop
      vertex 87.9619 52.248 -15
      vertex 87.9873 48.5869 -15
      vertex 78.8564 39.958 -15
    endloop
  endfacet
  facet normal 0 0 -1
    outer loop
      vertex 87.9385 57.1543 -15
      vertex 73.7461 39.9551 -15
      vertex 70.1279 39.9561 -15
    endloop
  endfacet
  facet normal -0 0 -1
    outer loop
      vertex 66.5703 39.9482 -15
      vertex 64.0742 39.9189 -15
      vertex 62.0596 83.9336 -15
    endloop
  endfacet
  facet normal 0 0 -1
    outer loop
      vertex 66.5703 39.9482 -15
      vertex 62.0596 83.9336 -15
      vertex 87.9189 61.9209 -15
    endloop
  endfacet
  facet normal -0 0 -1
    outer loop
      vertex 64.0742 39.9189 -15
      vertex 62.4385 39.8555 -15
      vertex 62.0596 83.9336 -15
    endloop
  endfacet
  facet normal -0 -0 -1
    outer loop
      vertex 87.8428 83.8906 -15
      vertex 87.9131 63.5098 -15
      vertex 62.0596 83.9336 -15
    endloop
  endfacet
  facet normal 0 0 -1
    outer loop
      vertex 41.9336 81.5361 -15
      vertex 41.8906 81.5781 -15
      vertex 44.3467 83.9375 -15
    endloop
  endfacet
  facet normal 0 -0 -1
    outer loop
      vertex 54.7109 83.9414 -15
      vertex 60.9385 39.5693 -15
      vertex 42.2158 81.2246 -15
    endloop
  endfacet
  facet normal 0 0 -1
    outer loop
      vertex 38.9004 81.9727 -15
      vertex 37.2197 83.8662 -15
      vertex 38.6865 83.9004 -15
    endloop
  endfacet
  facet normal 0 0 -1
    outer loop
      vertex 36.2217 82.0566 -15
      vertex 36.1787 82.8184 -15
      vertex 37.2197 83.8662 -15
    endloop
  endfacet
  facet normal 0 0 -1
    outer loop
      vertex 37.2197 83.8662 -15
      vertex 36.1719 82.9219 -15
      vertex 36.167 83.4092 -15
    endloop
  endfacet
  facet normal 0 0 -1
    outer loop
      vertex 36.4463 83.8223 -15
      vertex 36.1953 83.7393 -15
      vertex 36.207 83.7637 -15
    endloop
  endfacet
  facet normal 0 -0 -1
    outer loop
      vertex 36.2207 83.7988 -15
      vertex 36.4463 83.8223 -15
      vertex 36.207 83.7637 -15
    endloop
  endfacet
  facet normal 0 0 -1
    outer loop
      vertex 36.4463 83.8223 -15
      vertex 36.167 83.4092 -15
      vertex 36.1953 83.7393 -15
    endloop
  endfacet
  facet normal 0 -0 -1
    outer loop
      vertex 36.4463 83.8223 -15
      vertex 37.2197 83.8662 -15
      vertex 36.167 83.4092 -15
    endloop
  endfacet
  facet normal 0 0 -1
    outer loop
      vertex 37.2197 83.8662 -15
      vertex 36.1787 82.8184 -15
      vertex 36.1719 82.9219 -15
    endloop
  endfacet
  facet normal 0 0 -1
    outer loop
      vertex 38.9004 81.9727 -15
      vertex 36.2217 82.0566 -15
      vertex 37.2197 83.8662 -15
    endloop
  endfacet
  facet normal 0 0 -1
    outer loop
      vertex 38.9004 81.9727 -15
      vertex 38.6865 83.9004 -15
      vertex 39.1611 81.9658 -15
    endloop
  endfacet
  facet normal 0 0 -1
    outer loop
      vertex 39.1611 81.9658 -15
      vertex 38.6865 83.9004 -15
      vertex 39.9463 81.9424 -15
    endloop
  endfacet
  facet normal 0 0 -1
    outer loop
      vertex 41.5244 10.1943 -15
      vertex 41.8633 10.5479 -15
      vertex 60.0605 2.10742 -15
    endloop
  endfacet
  facet normal 0 0 -1
    outer loop
      vertex 39.9463 81.9424 -15
      vertex 41.0088 83.9238 -15
      vertex 40.8047 81.9131 -15
    endloop
  endfacet
  facet normal 0 0 -1
    outer loop
      vertex 40.8047 81.9131 -15
      vertex 41.0088 83.9238 -15
      vertex 41.3877 81.8896 -15
    endloop
  endfacet
  facet normal 0 0 -1
    outer loop
      vertex 41.3877 81.8896 -15
      vertex 41.0088 83.9238 -15
      vertex 41.6055 81.8779 -15
    endloop
  endfacet
  facet normal 0 0 -1
    outer loop
      vertex 41.6055 81.8779 -15
      vertex 41.0088 83.9238 -15
      vertex 44.3467 83.9375 -15
    endloop
  endfacet
  facet normal 0 0 -1
    outer loop
      vertex 41.6094 81.873 -15
      vertex 41.6055 81.8779 -15
      vertex 41.6123 81.8701 -15
    endloop
  endfacet
  facet normal 0 0 -1
    outer loop
      vertex 41.6123 81.8701 -15
      vertex 41.6055 81.8779 -15
      vertex 44.3467 83.9375 -15
    endloop
  endfacet
  facet normal 0 0 -1
    outer loop
      vertex 41.7129 81.7637 -15
      vertex 41.6123 81.8701 -15
      vertex 44.3467 83.9375 -15
    endloop
  endfacet
  facet normal 0 0 -1
    outer loop
      vertex 41.8906 81.5781 -15
      vertex 41.7129 81.7637 -15
      vertex 44.3467 83.9375 -15
    endloop
  endfacet
  facet normal 0 0 -1
    outer loop
      vertex 41.9336 81.5361 -15
      vertex 44.3467 83.9375 -15
      vertex 42.2158 81.2246 -15
    endloop
  endfacet
  facet normal 0 0 -1
    outer loop
      vertex 42.2158 81.2246 -15
      vertex 44.3467 83.9375 -15
      vertex 48.8613 83.9434 -15
    endloop
  endfacet
  facet normal -0 0 -1
    outer loop
      vertex 54.7109 83.9414 -15
      vertex 42.2158 81.2246 -15
      vertex 48.8613 83.9434 -15
    endloop
  endfacet
  facet normal 0 0 -1
    outer loop
      vertex 41.8633 10.5479 -15
      vertex 42.2158 10.8867 -15
      vertex 60.0605 2.10742 -15
    endloop
  endfacet
  facet normal -0 0 -1
    outer loop
      vertex 60.1279 38.5029 -15
      vertex 42.2158 10.8867 -15
      vertex 42.2158 81.2246 -15
    endloop
  endfacet
  facet normal 0 0 -1
    outer loop
      vertex 59.6914 0.0400391 -15
      vertex 19.5693 10.1943 -15
      vertex 41.5244 10.1943 -15
    endloop
  endfacet
  facet normal 0 0 -1
    outer loop
      vertex 0.0439453 0.0400391 -15
      vertex 14.9766 10.1934 -15
      vertex 19.5693 10.1943 -15
    endloop
  endfacet
  facet normal 0 0 -1
    outer loop
      vertex 0.0439453 0.0400391 -15
      vertex 10.1934 10.1875 -15
      vertex 14.9766 10.1934 -15
    endloop
  endfacet
  facet normal 0 -0 -1
    outer loop
      vertex 3.98438 10.1572 -15
      vertex 6.58398 10.1768 -15
      vertex 0.0439453 0.0400391 -15
    endloop
  endfacet
  facet normal 0 0 -1
    outer loop
      vertex 0.0439453 9.75781 -15
      vertex 0.577148 10.0381 -15
      vertex 1.14648 10.0889 -15
    endloop
  endfacet
  facet normal 0 0 -1
    outer loop
      vertex 0.354492 9.96973 -15
      vertex 0.398438 10.002 -15
      vertex 0.577148 10.0381 -15
    endloop
  endfacet
  facet normal 0 0 -1
    outer loop
      vertex 0.0439453 9.75781 -15
      vertex 0.354492 9.96973 -15
      vertex 0.577148 10.0381 -15
    endloop
  endfacet
  facet normal 0 0 -1
    outer loop
      vertex 2.22559 10.1289 -15
      vertex 0.0439453 9.75781 -15
      vertex 1.14648 10.0889 -15
    endloop
  endfacet
  facet normal 0 0 -1
    outer loop
      vertex 2.22559 10.1289 -15
      vertex 0.0439453 0.0400391 -15
      vertex 0.0439453 9.75781 -15
    endloop
  endfacet
  facet normal 0 -0 -1
    outer loop
      vertex 2.22559 10.1289 -15
      vertex 3.98438 10.1572 -15
      vertex 0.0439453 0.0400391 -15
    endloop
  endfacet
  facet normal 0 0 -1
    outer loop
      vertex 0.0439453 0.0400391 -15
      vertex 6.58398 10.1768 -15
      vertex 10.1934 10.1875 -15
    endloop
  endfacet
  facet normal 0 0 -1
    outer loop
      vertex 59.6914 0.0400391 -15
      vertex 0.0439453 0.0400391 -15
      vertex 19.5693 10.1943 -15
    endloop
  endfacet
  facet normal 0 0 1
    outer loop
      vertex 0.490234 82.2334 15
      vertex 0.00390625 82.7734 15
      vertex 0.0644531 82.4521 15
    endloop
  endfacet
  facet normal 0 0 1
    outer loop
      vertex 17.4062 82.0156 15
      vertex 17.1523 83.9336 15
      vertex 15.8447 82.0137 15
    endloop
  endfacet
  facet normal 0 -0 1
    outer loop
      vertex 59.9678 0.56543 15
      vertex 60.0205 1.09961 15
      vertex 59.6914 0.0400391 15
    endloop
  endfacet
  facet normal 0 -0 1
    outer loop
      vertex 17.4062 82.0156 15
      vertex 34.2471 83.8906 15
      vertex 17.1523 83.9336 15
    endloop
  endfacet
  facet normal 0 -0 1
    outer loop
      vertex 60.0889 3.74023 15
      vertex 60.1084 6.15137 15
      vertex 42.2158 10.8867 15
    endloop
  endfacet
  facet normal 0 -0 1
    outer loop
      vertex 60.1084 6.15137 15
      vertex 60.1201 9.49512 15
      vertex 42.2158 10.8867 15
    endloop
  endfacet
  facet normal 0 0 1
    outer loop
      vertex 17.4062 82.0156 15
      vertex 34.2471 82.0566 15
      vertex 34.2471 83.8906 15
    endloop
  endfacet
  facet normal -0 0 1
    outer loop
      vertex 89.7832 48.5029 15
      vertex 100.044 39.9551 15
      vertex 100.044 59.9834 15
    endloop
  endfacet
  facet normal 0 0 1
    outer loop
      vertex 11.1631 82.0039 15
      vertex 15.8447 82.0137 15
      vertex 17.1523 83.9336 15
    endloop
  endfacet
  facet normal -0 0 1
    outer loop
      vertex 94.1201 59.9834 15
      vertex 89.7598 52.3486 15
      vertex 100.044 59.9834 15
    endloop
  endfacet
  facet normal 0 -0 1
    outer loop
      vertex 11.1631 82.0039 15
      vertex 17.1523 83.9336 15
      vertex 6.61719 82 15
    endloop
  endfacet
  facet normal 0 0 1
    outer loop
      vertex 61.4609 39.7422 15
      vertex 60.2227 83.9365 15
      vertex 54.7109 83.9414 15
    endloop
  endfacet
  facet normal 0 0 1
    outer loop
      vertex 17.1523 83.9336 15
      vertex 0.0439453 83.9609 15
      vertex 6.61719 82 15
    endloop
  endfacet
  facet normal 0 0 1
    outer loop
      vertex 1.54785 82.0967 15
      vertex 0.0439453 83.1035 15
      vertex 0.490234 82.2334 15
    endloop
  endfacet
  facet normal 0 0 1
    outer loop
      vertex 0.0439453 83.1035 15
      vertex 0.00390625 82.7734 15
      vertex 0.490234 82.2334 15
    endloop
  endfacet
  facet normal 0 0 1
    outer loop
      vertex 0.0439453 83.9609 15
      vertex 0.0439453 83.1035 15
      vertex 1.54785 82.0967 15
    endloop
  endfacet
  facet normal 0 0 1
    outer loop
      vertex 0.0439453 83.9609 15
      vertex 1.54785 82.0967 15
      vertex 3.50195 82.0254 15
    endloop
  endfacet
  facet normal -0 -0 1
    outer loop
      vertex 90.7617 40.1943 15
      vertex 91.1465 40.0762 15
      vertex 90.4062 40.623 15
    endloop
  endfacet
  facet normal 0 0 1
    outer loop
      vertex 0.0439453 83.9609 15
      vertex 3.50195 82.0254 15
      vertex 6.61719 82 15
    endloop
  endfacet
  facet normal 0 -0 1
    outer loop
      vertex 60.0205 1.09961 15
      vertex 60.0605 2.10742 15
      vertex 59.6914 0.0400391 15
    endloop
  endfacet
  facet normal 0 0 1
    outer loop
      vertex 42.2158 10.8867 15
      vertex 60.0605 2.10742 15
      vertex 60.0889 3.74023 15
    endloop
  endfacet
  facet normal -0 0 1
    outer loop
      vertex 89.7471 83.9609 15
      vertex 89.7471 62.5742 15
      vertex 94.1201 83.9609 15
    endloop
  endfacet
  facet normal 0 0 1
    outer loop
      vertex 89.7471 62.5742 15
      vertex 89.749 57.5225 15
      vertex 94.1201 59.9834 15
    endloop
  endfacet
  facet normal -0 0 1
    outer loop
      vertex 89.7471 62.5742 15
      vertex 94.1201 59.9834 15
      vertex 94.1201 83.9609 15
    endloop
  endfacet
  facet normal 0 0 1
    outer loop
      vertex 41.0088 83.9238 15
      vertex 38.6865 83.9004 15
      vertex 39.9463 81.9424 15
    endloop
  endfacet
  facet normal 0 -0 1
    outer loop
      vertex 60.9385 39.5693 15
      vertex 61.4609 39.7422 15
      vertex 54.7109 83.9414 15
    endloop
  endfacet
  facet normal -0 0 1
    outer loop
      vertex 89.749 57.5225 15
      vertex 89.7598 52.3486 15
      vertex 94.1201 59.9834 15
    endloop
  endfacet
  facet normal -0 0 1
    outer loop
      vertex 89.7598 52.3486 15
      vertex 89.7832 48.5029 15
      vertex 100.044 59.9834 15
    endloop
  endfacet
  facet normal 0 0 1
    outer loop
      vertex 62.4385 39.8555 15
      vertex 62.0596 83.9336 15
      vertex 60.2227 83.9365 15
    endloop
  endfacet
  facet normal 0 0 1
    outer loop
      vertex 59.6914 0.0400391 15
      vertex 59.9023 0.349609 15
      vertex 59.9678 0.56543 15
    endloop
  endfacet
  facet normal 0 0 1
    outer loop
      vertex 59.9023 0.349609 15
      vertex 59.9326 0.394531 15
      vertex 59.9678 0.56543 15
    endloop
  endfacet
  facet normal 0 0 1
    outer loop
      vertex 89.7832 48.5029 15
      vertex 89.8271 45.748 15
      vertex 95.1426 39.9551 15
    endloop
  endfacet
  facet normal 0 0 1
    outer loop
      vertex 93.8984 39.958 15
      vertex 89.8965 43.8516 15
      vertex 89.9951 42.5771 15
    endloop
  endfacet
  facet normal -0 -0 1
    outer loop
      vertex 91.7559 40.0039 15
      vertex 92.6514 39.9688 15
      vertex 90.1318 41.6914 15
    endloop
  endfacet
  facet normal -0 0 1
    outer loop
      vertex 42.2158 10.8867 15
      vertex 60.1201 9.49512 15
      vertex 60.125 13.9219 15
    endloop
  endfacet
  facet normal -0 -0 1
    outer loop
      vertex 90.3115 40.957 15
      vertex 91.7559 40.0039 15
      vertex 90.2617 41.1396 15
    endloop
  endfacet
  facet normal 0 0 1
    outer loop
      vertex 87.9385 57.1543 15
      vertex 73.7461 39.9551 15
      vertex 87.9619 52.248 15
    endloop
  endfacet
  facet normal -0 -0 1
    outer loop
      vertex 91.1465 40.0762 15
      vertex 91.7559 40.0039 15
      vertex 90.3115 40.957 15
    endloop
  endfacet
  facet normal 0 0 1
    outer loop
      vertex 87.9619 52.248 15
      vertex 73.7461 39.9551 15
      vertex 75.9277 39.9551 15
    endloop
  endfacet
  facet normal -0 -0 1
    outer loop
      vertex 90.4062 40.623 15
      vertex 91.1465 40.0762 15
      vertex 90.333 40.874 15
    endloop
  endfacet
  facet normal 0 -0 1
    outer loop
      vertex 81.9248 39.9629 15
      vertex 87.9873 48.5869 15
      vertex 78.8564 39.958 15
    endloop
  endfacet
  facet normal 0 0 1
    outer loop
      vertex 84.2529 39.9746 15
      vertex 85.9443 39.9932 15
      vertex 88.1074 43.0195 15
    endloop
  endfacet
  facet normal 0 0 1
    outer loop
      vertex 90.7617 40.1943 15
      vertex 90.4062 40.623 15
      vertex 90.5361 40.3721 15
    endloop
  endfacet
  facet normal 0 0 1
    outer loop
      vertex 91.1465 40.0762 15
      vertex 90.3115 40.957 15
      vertex 90.333 40.874 15
    endloop
  endfacet
  facet normal 0 0 1
    outer loop
      vertex 91.7559 40.0039 15
      vertex 90.1318 41.6914 15
      vertex 90.2617 41.1396 15
    endloop
  endfacet
  facet normal 0 0 1
    outer loop
      vertex 88.252 41.7617 15
      vertex 88.2275 41.8906 15
      vertex 87.0977 40.0195 15
    endloop
  endfacet
  facet normal 0 0 1
    outer loop
      vertex 92.6514 39.9688 15
      vertex 89.9951 42.5771 15
      vertex 90.1318 41.6914 15
    endloop
  endfacet
  facet normal 0 0 1
    outer loop
      vertex 88.1934 40.1064 15
      vertex 88.3643 40.2012 15
      vertex 88.4121 40.3311 15
    endloop
  endfacet
  facet normal 0 0 1
    outer loop
      vertex 93.8984 39.958 15
      vertex 89.9951 42.5771 15
      vertex 92.6514 39.9688 15
    endloop
  endfacet
  facet normal 0 0 1
    outer loop
      vertex 95.1426 39.9551 15
      vertex 89.8965 43.8516 15
      vertex 93.8984 39.958 15
    endloop
  endfacet
  facet normal 0 0 1
    outer loop
      vertex 89.8271 45.748 15
      vertex 89.8965 43.8516 15
      vertex 95.1426 39.9551 15
    endloop
  endfacet
  facet normal 0 0 1
    outer loop
      vertex 89.7832 48.5029 15
      vertex 95.1426 39.9551 15
      vertex 100.044 39.9551 15
    endloop
  endfacet
  facet normal 0 0 1
    outer loop
      vertex 87.0977 40.0195 15
      vertex 87.8145 40.0566 15
      vertex 88.374 41.0674 15
    endloop
  endfacet
  facet normal 0 0 1
    outer loop
      vertex 42.2158 10.8867 15
      vertex 60.125 13.9219 15
      vertex 60.1279 18.1719 15
    endloop
  endfacet
  facet normal 0 -0 1
    outer loop
      vertex 60.1279 18.1719 15
      vertex 60.1279 38.5029 15
      vertex 42.2158 10.8867 15
    endloop
  endfacet
  facet normal 0 0 1
    outer loop
      vertex 70.1279 39.9561 15
      vertex 87.9385 57.1543 15
      vertex 87.9189 61.9209 15
    endloop
  endfacet
  facet normal 0 0 1
    outer loop
      vertex 62.0596 83.9336 15
      vertex 87.9189 61.9209 15
      vertex 87.9131 63.5098 15
    endloop
  endfacet
  facet normal 0 0 1
    outer loop
      vertex 60.0605 2.10742 15
      vertex 41.5244 10.1943 15
      vertex 59.6914 0.0400391 15
    endloop
  endfacet
  facet normal 0 0 1
    outer loop
      vertex 60.6699 39.3193 15
      vertex 60.1279 38.5029 15
      vertex 60.4531 38.9814 15
    endloop
  endfacet
  facet normal 0 0 1
    outer loop
      vertex 60.6699 39.3193 15
      vertex 60.4531 38.9814 15
      vertex 60.5088 39.0654 15
    endloop
  endfacet
  facet normal 0 0 1
    outer loop
      vertex 42.2158 81.2246 15
      vertex 60.1279 38.5029 15
      vertex 60.6699 39.3193 15
    endloop
  endfacet
  facet normal 0 0 1
    outer loop
      vertex 62.4385 39.8555 15
      vertex 60.2227 83.9365 15
      vertex 61.4609 39.7422 15
    endloop
  endfacet
  facet normal 0 0 1
    outer loop
      vertex 42.2158 81.2246 15
      vertex 60.6699 39.3193 15
      vertex 60.9385 39.5693 15
    endloop
  endfacet
  facet normal 0 -0 1
    outer loop
      vertex 70.1279 39.9561 15
      vertex 87.9189 61.9209 15
      vertex 66.5703 39.9482 15
    endloop
  endfacet
  facet normal 0 0 1
    outer loop
      vertex 87.9619 52.248 15
      vertex 75.9277 39.9551 15
      vertex 78.8564 39.958 15
    endloop
  endfacet
  facet normal 0 0 1
    outer loop
      vertex 88.0576 44.1787 15
      vertex 88.0195 45.9658 15
      vertex 81.9248 39.9629 15
    endloop
  endfacet
  facet normal 0 -0 1
    outer loop
      vertex 88.1934 40.1064 15
      vertex 88.4258 40.6104 15
      vertex 87.8145 40.0566 15
    endloop
  endfacet
  facet normal 0 -0 1
    outer loop
      vertex 88.3145 40.1406 15
      vertex 88.3359 40.167 15
      vertex 88.1934 40.1064 15
    endloop
  endfacet
  facet normal 0 -0 1
    outer loop
      vertex 88.3359 40.167 15
      vertex 88.3643 40.2012 15
      vertex 88.1934 40.1064 15
    endloop
  endfacet
  facet normal 0 0 1
    outer loop
      vertex 88.1934 40.1064 15
      vertex 88.4121 40.3311 15
      vertex 88.4258 40.6104 15
    endloop
  endfacet
  facet normal 0 0 1
    outer loop
      vertex 87.8145 40.0566 15
      vertex 88.4258 40.6104 15
      vertex 88.374 41.0674 15
    endloop
  endfacet
  facet normal 0 0 1
    outer loop
      vertex 87.0977 40.0195 15
      vertex 88.374 41.0674 15
      vertex 88.2842 41.5889 15
    endloop
  endfacet
  facet normal 0 0 1
    outer loop
      vertex 87.0977 40.0195 15
      vertex 88.2842 41.5889 15
      vertex 88.252 41.7617 15
    endloop
  endfacet
  facet normal 0 0 1
    outer loop
      vertex 85.9443 39.9932 15
      vertex 87.0977 40.0195 15
      vertex 88.2275 41.8906 15
    endloop
  endfacet
  facet normal 0 0 1
    outer loop
      vertex 85.9443 39.9932 15
      vertex 88.2275 41.8906 15
      vertex 88.1709 42.2822 15
    endloop
  endfacet
  facet normal 0 0 1
    outer loop
      vertex 85.9443 39.9932 15
      vertex 88.1709 42.2822 15
      vertex 88.1074 43.0195 15
    endloop
  endfacet
  facet normal 0 0 1
    outer loop
      vertex 84.2529 39.9746 15
      vertex 88.1074 43.0195 15
      vertex 88.0576 44.1787 15
    endloop
  endfacet
  facet normal 0 -0 1
    outer loop
      vertex 84.2529 39.9746 15
      vertex 88.0576 44.1787 15
      vertex 81.9248 39.9629 15
    endloop
  endfacet
  facet normal 0 0 1
    outer loop
      vertex 81.9248 39.9629 15
      vertex 88.0195 45.9658 15
      vertex 87.9873 48.5869 15
    endloop
  endfacet
  facet normal 0 0 1
    outer loop
      vertex 78.8564 39.958 15
      vertex 87.9873 48.5869 15
      vertex 87.9619 52.248 15
    endloop
  endfacet
  facet normal -0 0 1
    outer loop
      vertex 70.1279 39.9561 15
      vertex 73.7461 39.9551 15
      vertex 87.9385 57.1543 15
    endloop
  endfacet
  facet normal 0 0 1
    outer loop
      vertex 62.0596 83.9336 15
      vertex 64.0742 39.9189 15
      vertex 66.5703 39.9482 15
    endloop
  endfacet
  facet normal 0 0 1
    outer loop
      vertex 87.9189 61.9209 15
      vertex 62.0596 83.9336 15
      vertex 66.5703 39.9482 15
    endloop
  endfacet
  facet normal 0 0 1
    outer loop
      vertex 62.0596 83.9336 15
      vertex 62.4385 39.8555 15
      vertex 64.0742 39.9189 15
    endloop
  endfacet
  facet normal 0 0 1
    outer loop
      vertex 62.0596 83.9336 15
      vertex 87.9131 63.5098 15
      vertex 87.8428 83.8906 15
    endloop
  endfacet
  facet normal 0 0 1
    outer loop
      vertex 44.3467 83.9375 15
      vertex 41.8906 81.5781 15
      vertex 41.9336 81.5361 15
    endloop
  endfacet
  facet normal -0 0 1
    outer loop
      vertex 42.2158 81.2246 15
      vertex 60.9385 39.5693 15
      vertex 54.7109 83.9414 15
    endloop
  endfacet
  facet normal 0 0 1
    outer loop
      vertex 38.6865 83.9004 15
      vertex 37.2197 83.8662 15
      vertex 38.9004 81.9727 15
    endloop
  endfacet
  facet normal 0 0 1
    outer loop
      vertex 37.2197 83.8662 15
      vertex 36.1787 82.8184 15
      vertex 36.2217 82.0566 15
    endloop
  endfacet
  facet normal -0 0 1
    outer loop
      vertex 36.167 83.4092 15
      vertex 36.1719 82.9219 15
      vertex 37.2197 83.8662 15
    endloop
  endfacet
  facet normal -0 0 1
    outer loop
      vertex 36.207 83.7637 15
      vertex 36.1953 83.7393 15
      vertex 36.4463 83.8223 15
    endloop
  endfacet
  facet normal 0 0 1
    outer loop
      vertex 36.207 83.7637 15
      vertex 36.4463 83.8223 15
      vertex 36.2207 83.7988 15
    endloop
  endfacet
  facet normal -0 0 1
    outer loop
      vertex 36.1953 83.7393 15
      vertex 36.167 83.4092 15
      vertex 36.4463 83.8223 15
    endloop
  endfacet
  facet normal 0 0 1
    outer loop
      vertex 36.167 83.4092 15
      vertex 37.2197 83.8662 15
      vertex 36.4463 83.8223 15
    endloop
  endfacet
  facet normal -0 0 1
    outer loop
      vertex 36.1719 82.9219 15
      vertex 36.1787 82.8184 15
      vertex 37.2197 83.8662 15
    endloop
  endfacet
  facet normal 0 0 1
    outer loop
      vertex 37.2197 83.8662 15
      vertex 36.2217 82.0566 15
      vertex 38.9004 81.9727 15
    endloop
  endfacet
  facet normal 0 0 1
    outer loop
      vertex 39.1611 81.9658 15
      vertex 38.6865 83.9004 15
      vertex 38.9004 81.9727 15
    endloop
  endfacet
  facet normal 0 0 1
    outer loop
      vertex 39.9463 81.9424 15
      vertex 38.6865 83.9004 15
      vertex 39.1611 81.9658 15
    endloop
  endfacet
  facet normal 0 0 1
    outer loop
      vertex 60.0605 2.10742 15
      vertex 41.8633 10.5479 15
      vertex 41.5244 10.1943 15
    endloop
  endfacet
  facet normal 0 -0 1
    outer loop
      vertex 40.8047 81.9131 15
      vertex 41.0088 83.9238 15
      vertex 39.9463 81.9424 15
    endloop
  endfacet
  facet normal 0 0 1
    outer loop
      vertex 41.3877 81.8896 15
      vertex 41.0088 83.9238 15
      vertex 40.8047 81.9131 15
    endloop
  endfacet
  facet normal 0 0 1
    outer loop
      vertex 41.6055 81.8779 15
      vertex 41.0088 83.9238 15
      vertex 41.3877 81.8896 15
    endloop
  endfacet
  facet normal 0 0 1
    outer loop
      vertex 44.3467 83.9375 15
      vertex 41.0088 83.9238 15
      vertex 41.6055 81.8779 15
    endloop
  endfacet
  facet normal 0 0 1
    outer loop
      vertex 41.6123 81.8701 15
      vertex 41.6055 81.8779 15
      vertex 41.6094 81.873 15
    endloop
  endfacet
  facet normal 0 0 1
    outer loop
      vertex 44.3467 83.9375 15
      vertex 41.6055 81.8779 15
      vertex 41.6123 81.8701 15
    endloop
  endfacet
  facet normal 0 0 1
    outer loop
      vertex 44.3467 83.9375 15
      vertex 41.6123 81.8701 15
      vertex 41.7129 81.7637 15
    endloop
  endfacet
  facet normal 0 0 1
    outer loop
      vertex 44.3467 83.9375 15
      vertex 41.7129 81.7637 15
      vertex 41.8906 81.5781 15
    endloop
  endfacet
  facet normal 0 -0 1
    outer loop
      vertex 42.2158 81.2246 15
      vertex 44.3467 83.9375 15
      vertex 41.9336 81.5361 15
    endloop
  endfacet
  facet normal 0 0 1
    outer loop
      vertex 48.8613 83.9434 15
      vertex 44.3467 83.9375 15
      vertex 42.2158 81.2246 15
    endloop
  endfacet
  facet normal 0 0 1
    outer loop
      vertex 48.8613 83.9434 15
      vertex 42.2158 81.2246 15
      vertex 54.7109 83.9414 15
    endloop
  endfacet
  facet normal 0 0 1
    outer loop
      vertex 60.0605 2.10742 15
      vertex 42.2158 10.8867 15
      vertex 41.8633 10.5479 15
    endloop
  endfacet
  facet normal 0 0 1
    outer loop
      vertex 42.2158 81.2246 15
      vertex 42.2158 10.8867 15
      vertex 60.1279 38.5029 15
    endloop
  endfacet
  facet normal 0 0 1
    outer loop
      vertex 41.5244 10.1943 15
      vertex 19.5693 10.1943 15
      vertex 59.6914 0.0400391 15
    endloop
  endfacet
  facet normal 0 0 1
    outer loop
      vertex 19.5693 10.1943 15
      vertex 14.9766 10.1934 15
      vertex 0.0439453 0.0400391 15
    endloop
  endfacet
  facet normal 0 0 1
    outer loop
      vertex 14.9766 10.1934 15
      vertex 10.1934 10.1875 15
      vertex 0.0439453 0.0400391 15
    endloop
  endfacet
  facet normal 0 0 1
    outer loop
      vertex 0.0439453 0.0400391 15
      vertex 6.58398 10.1768 15
      vertex 3.98438 10.1572 15
    endloop
  endfacet
  facet normal 0 0 1
    outer loop
      vertex 1.14648 10.0889 15
      vertex 0.577148 10.0381 15
      vertex 0.0439453 9.75781 15
    endloop
  endfacet
  facet normal 0 0 1
    outer loop
      vertex 0.577148 10.0381 15
      vertex 0.398438 10.002 15
      vertex 0.354492 9.96973 15
    endloop
  endfacet
  facet normal 0 0 1
    outer loop
      vertex 0.577148 10.0381 15
      vertex 0.354492 9.96973 15
      vertex 0.0439453 9.75781 15
    endloop
  endfacet
  facet normal -0 0 1
    outer loop
      vertex 1.14648 10.0889 15
      vertex 0.0439453 9.75781 15
      vertex 2.22559 10.1289 15
    endloop
  endfacet
  facet normal -0 0 1
    outer loop
      vertex 0.0439453 9.75781 15
      vertex 0.0439453 0.0400391 15
      vertex 2.22559 10.1289 15
    endloop
  endfacet
  facet normal 0 0 1
    outer loop
      vertex 0.0439453 0.0400391 15
      vertex 3.98438 10.1572 15
      vertex 2.22559 10.1289 15
    endloop
  endfacet
  facet normal 0 0 1
    outer loop
      vertex 10.1934 10.1875 15
      vertex 6.58398 10.1768 15
      vertex 0.0439453 0.0400391 15
    endloop
  endfacet
  facet normal 0 0 1
    outer loop
      vertex 19.5693 10.1943 15
      vertex 0.0439453 0.0400391 15
      vertex 59.6914 0.0400391 15
    endloop
  endfacet
  facet normal 0.0020933 -0.999998 0
    outer loop
      vertex 15.8447 82.0137 -15
      vertex 11.1631 82.0039 15
      vertex 11.1631 82.0039 -15
    endloop
  endfacet
  facet normal 0.0020933 -0.999998 0
    outer loop
      vertex 15.8447 82.0137 -15
      vertex 15.8447 82.0137 15
      vertex 11.1631 82.0039 15
    endloop
  endfacet
  facet normal 0.00121678 -0.999999 0
    outer loop
      vertex 17.4062 82.0156 -15
      vertex 15.8447 82.0137 15
      vertex 15.8447 82.0137 -15
    endloop
  endfacet
  facet normal 0.00121678 -0.999999 0
    outer loop
      vertex 17.4062 82.0156 -15
      vertex 17.4062 82.0156 15
      vertex 15.8447 82.0137 15
    endloop
  endfacet
  facet normal 0.00243454 -0.999997 0
    outer loop
      vertex 34.2471 82.0566 -15
      vertex 17.4062 82.0156 15
      vertex 17.4062 82.0156 -15
    endloop
  endfacet
  facet normal 0.00243454 -0.999997 0
    outer loop
      vertex 34.2471 82.0566 -15
      vertex 34.2471 82.0566 15
      vertex 17.4062 82.0156 15
    endloop
  endfacet
  facet normal 1 0 0
    outer loop
      vertex 34.2471 83.8906 -15
      vertex 34.2471 82.0566 15
      vertex 34.2471 82.0566 -15
    endloop
  endfacet
  facet normal 1 0 -0
    outer loop
      vertex 34.2471 83.8906 -15
      vertex 34.2471 83.8906 15
      vertex 34.2471 82.0566 15
    endloop
  endfacet
  facet normal 0.00251538 0.999997 0
    outer loop
      vertex 17.1523 83.9336 -15
      vertex 34.2471 83.8906 15
      vertex 34.2471 83.8906 -15
    endloop
  endfacet
  facet normal 0.00251538 0.999997 -0
    outer loop
      vertex 17.1523 83.9336 -15
      vertex 17.1523 83.9336 15
      vertex 34.2471 83.8906 15
    endloop
  endfacet
  facet normal 0.00159571 0.999999 0
    outer loop
      vertex 0.0439453 83.9609 -15
      vertex 17.1523 83.9336 15
      vertex 17.1523 83.9336 -15
    endloop
  endfacet
  facet normal 0.00159571 0.999999 -0
    outer loop
      vertex 0.0439453 83.9609 -15
      vertex 0.0439453 83.9609 15
      vertex 17.1523 83.9336 15
    endloop
  endfacet
  facet normal -1 0 0
    outer loop
      vertex 0.0439453 83.1035 -15
      vertex 0.0439453 83.9609 15
      vertex 0.0439453 83.9609 -15
    endloop
  endfacet
  facet normal -1 0 0
    outer loop
      vertex 0.0439453 83.1035 -15
      vertex 0.0439453 83.1035 15
      vertex 0.0439453 83.9609 15
    endloop
  endfacet
  facet normal -0.992724 0.120411 0
    outer loop
      vertex 0.00390625 82.7734 -15
      vertex 0.0439453 83.1035 15
      vertex 0.0439453 83.1035 -15
    endloop
  endfacet
  facet normal -0.992724 0.120411 0
    outer loop
      vertex 0.00390625 82.7734 -15
      vertex 0.00390625 82.7734 15
      vertex 0.0439453 83.1035 15
    endloop
  endfacet
  facet normal -0.982704 -0.185184 0
    outer loop
      vertex 0.0644531 82.4521 -15
      vertex 0.00390625 82.7734 15
      vertex 0.00390625 82.7734 -15
    endloop
  endfacet
  facet normal -0.982704 -0.185184 0
    outer loop
      vertex 0.0644531 82.4521 -15
      vertex 0.0644531 82.4521 15
      vertex 0.00390625 82.7734 15
    endloop
  endfacet
  facet normal -0.456897 -0.88952 0
    outer loop
      vertex 0.490234 82.2334 -15
      vertex 0.0644531 82.4521 15
      vertex 0.0644531 82.4521 -15
    endloop
  endfacet
  facet normal -0.456897 -0.88952 0
    outer loop
      vertex 0.490234 82.2334 -15
      vertex 0.490234 82.2334 15
      vertex 0.0644531 82.4521 15
    endloop
  endfacet
  facet normal -0.128187 -0.99175 0
    outer loop
      vertex 1.54785 82.0967 -15
      vertex 0.490234 82.2334 15
      vertex 0.490234 82.2334 -15
    endloop
  endfacet
  facet normal -0.128187 -0.99175 0
    outer loop
      vertex 1.54785 82.0967 -15
      vertex 1.54785 82.0967 15
      vertex 0.490234 82.2334 15
    endloop
  endfacet
  facet normal -0.0364631 -0.999335 0
    outer loop
      vertex 3.50195 82.0254 -15
      vertex 1.54785 82.0967 15
      vertex 1.54785 82.0967 -15
    endloop
  endfacet
  facet normal -0.0364631 -0.999335 0
    outer loop
      vertex 3.50195 82.0254 -15
      vertex 3.50195 82.0254 15
      vertex 1.54785 82.0967 15
    endloop
  endfacet
  facet normal -0.00815319 -0.999967 0
    outer loop
      vertex 6.61719 82 -15
      vertex 3.50195 82.0254 15
      vertex 3.50195 82.0254 -15
    endloop
  endfacet
  facet normal -0.00815319 -0.999967 0
    outer loop
      vertex 6.61719 82 -15
      vertex 6.61719 82 15
      vertex 3.50195 82.0254 15
    endloop
  endfacet
  facet normal 0.000857914 -1 0
    outer loop
      vertex 11.1631 82.0039 -15
      vertex 6.61719 82 15
      vertex 6.61719 82 -15
    endloop
  endfacet
  facet normal 0.000857914 -1 0
    outer loop
      vertex 11.1631 82.0039 -15
      vertex 11.1631 82.0039 15
      vertex 6.61719 82 15
    endloop
  endfacet
  facet normal 0 1 0
    outer loop
      vertex 94.1201 59.9834 -15
      vertex 100.044 59.9834 15
      vertex 100.044 59.9834 -15
    endloop
  endfacet
  facet normal 0 1 0
    outer loop
      vertex 94.1201 59.9834 -15
      vertex 94.1201 59.9834 15
      vertex 100.044 59.9834 15
    endloop
  endfacet
  facet normal 1 0 0
    outer loop
      vertex 94.1201 83.9609 -15
      vertex 94.1201 59.9834 15
      vertex 94.1201 59.9834 -15
    endloop
  endfacet
  facet normal 1 0 -0
    outer loop
      vertex 94.1201 83.9609 -15
      vertex 94.1201 83.9609 15
      vertex 94.1201 59.9834 15
    endloop
  endfacet
  facet normal 0 1 0
    outer loop
      vertex 89.7471 83.9609 -15
      vertex 94.1201 83.9609 15
      vertex 94.1201 83.9609 -15
    endloop
  endfacet
  facet normal 0 1 0
    outer loop
      vertex 89.7471 83.9609 -15
      vertex 89.7471 83.9609 15
      vertex 94.1201 83.9609 15
    endloop
  endfacet
  facet normal -1 0 0
    outer loop
      vertex 89.7471 62.5742 -15
      vertex 89.7471 83.9609 15
      vertex 89.7471 83.9609 -15
    endloop
  endfacet
  facet normal -1 0 0
    outer loop
      vertex 89.7471 62.5742 -15
      vertex 89.7471 62.5742 15
      vertex 89.7471 83.9609 15
    endloop
  endfacet
  facet normal -1 -0.000376111 0
    outer loop
      vertex 89.749 57.5225 -15
      vertex 89.7471 62.5742 15
      vertex 89.7471 62.5742 -15
    endloop
  endfacet
  facet normal -1 -0.000376111 0
    outer loop
      vertex 89.749 57.5225 -15
      vertex 89.749 57.5225 15
      vertex 89.7471 62.5742 15
    endloop
  endfacet
  facet normal -0.999998 -0.0020874 0
    outer loop
      vertex 89.7598 52.3486 -15
      vertex 89.749 57.5225 15
      vertex 89.749 57.5225 -15
    endloop
  endfacet
  facet normal -0.999998 -0.0020874 0
    outer loop
      vertex 89.7598 52.3486 -15
      vertex 89.7598 52.3486 15
      vertex 89.749 57.5225 15
    endloop
  endfacet
  facet normal -0.999981 -0.00608461 0
    outer loop
      vertex 89.7832 48.5029 -15
      vertex 89.7598 52.3486 15
      vertex 89.7598 52.3486 -15
    endloop
  endfacet
  facet normal -0.999981 -0.00608461 0
    outer loop
      vertex 89.7832 48.5029 -15
      vertex 89.7832 48.5029 15
      vertex 89.7598 52.3486 15
    endloop
  endfacet
  facet normal -0.999873 -0.0159332 0
    outer loop
      vertex 89.8271 45.748 -15
      vertex 89.7832 48.5029 15
      vertex 89.7832 48.5029 -15
    endloop
  endfacet
  facet normal -0.999873 -0.0159332 0
    outer loop
      vertex 89.8271 45.748 -15
      vertex 89.8271 45.748 15
      vertex 89.7832 48.5029 15
    endloop
  endfacet
  facet normal -0.999331 -0.0365712 0
    outer loop
      vertex 89.8965 43.8516 -15
      vertex 89.8271 45.748 15
      vertex 89.8271 45.748 -15
    endloop
  endfacet
  facet normal -0.999331 -0.0365712 0
    outer loop
      vertex 89.8965 43.8516 -15
      vertex 89.8965 43.8516 15
      vertex 89.8271 45.748 15
    endloop
  endfacet
  facet normal -0.997021 -0.0771332 0
    outer loop
      vertex 89.9951 42.5771 -15
      vertex 89.8965 43.8516 15
      vertex 89.8965 43.8516 -15
    endloop
  endfacet
  facet normal -0.997021 -0.0771332 0
    outer loop
      vertex 89.9951 42.5771 -15
      vertex 89.9951 42.5771 15
      vertex 89.8965 43.8516 15
    endloop
  endfacet
  facet normal -0.988298 -0.152535 0
    outer loop
      vertex 90.1318 41.6914 -15
      vertex 89.9951 42.5771 15
      vertex 89.9951 42.5771 -15
    endloop
  endfacet
  facet normal -0.988298 -0.152535 0
    outer loop
      vertex 90.1318 41.6914 -15
      vertex 90.1318 41.6914 15
      vertex 89.9951 42.5771 15
    endloop
  endfacet
  facet normal -0.973392 -0.229147 0
    outer loop
      vertex 90.2617 41.1396 -15
      vertex 90.1318 41.6914 15
      vertex 90.1318 41.6914 -15
    endloop
  endfacet
  facet normal -0.973392 -0.229147 0
    outer loop
      vertex 90.2617 41.1396 -15
      vertex 90.2617 41.1396 15
      vertex 90.1318 41.6914 15
    endloop
  endfacet
  facet normal -0.964764 -0.263117 0
    outer loop
      vertex 90.3115 40.957 -15
      vertex 90.2617 41.1396 15
      vertex 90.2617 41.1396 -15
    endloop
  endfacet
  facet normal -0.964764 -0.263117 0
    outer loop
      vertex 90.3115 40.957 -15
      vertex 90.3115 40.957 15
      vertex 90.2617 41.1396 15
    endloop
  endfacet
  facet normal -0.968049 -0.25076 0
    outer loop
      vertex 90.333 40.874 -15
      vertex 90.3115 40.957 15
      vertex 90.3115 40.957 -15
    endloop
  endfacet
  facet normal -0.968049 -0.25076 0
    outer loop
      vertex 90.333 40.874 -15
      vertex 90.333 40.874 15
      vertex 90.3115 40.957 15
    endloop
  endfacet
  facet normal -0.960009 -0.279971 0
    outer loop
      vertex 90.4062 40.623 -15
      vertex 90.333 40.874 15
      vertex 90.333 40.874 -15
    endloop
  endfacet
  facet normal -0.960009 -0.279971 0
    outer loop
      vertex 90.4062 40.623 -15
      vertex 90.4062 40.623 15
      vertex 90.333 40.874 15
    endloop
  endfacet
  facet normal -0.888038 -0.45977 0
    outer loop
      vertex 90.5361 40.3721 -15
      vertex 90.4062 40.623 15
      vertex 90.4062 40.623 -15
    endloop
  endfacet
  facet normal -0.888038 -0.45977 0
    outer loop
      vertex 90.5361 40.3721 -15
      vertex 90.5361 40.3721 15
      vertex 90.4062 40.623 15
    endloop
  endfacet
  facet normal -0.618989 -0.785399 0
    outer loop
      vertex 90.7617 40.1943 -15
      vertex 90.5361 40.3721 15
      vertex 90.5361 40.3721 -15
    endloop
  endfacet
  facet normal -0.618989 -0.785399 0
    outer loop
      vertex 90.7617 40.1943 -15
      vertex 90.7617 40.1943 15
      vertex 90.5361 40.3721 15
    endloop
  endfacet
  facet normal -0.293405 -0.955988 0
    outer loop
      vertex 91.1465 40.0762 -15
      vertex 90.7617 40.1943 15
      vertex 90.7617 40.1943 -15
    endloop
  endfacet
  facet normal -0.293405 -0.955988 0
    outer loop
      vertex 91.1465 40.0762 -15
      vertex 91.1465 40.0762 15
      vertex 90.7617 40.1943 15
    endloop
  endfacet
  facet normal -0.117815 -0.993036 0
    outer loop
      vertex 91.7559 40.0039 -15
      vertex 91.1465 40.0762 15
      vertex 91.1465 40.0762 -15
    endloop
  endfacet
  facet normal -0.117815 -0.993036 0
    outer loop
      vertex 91.7559 40.0039 -15
      vertex 91.7559 40.0039 15
      vertex 91.1465 40.0762 15
    endloop
  endfacet
  facet normal -0.0391659 -0.999233 0
    outer loop
      vertex 92.6514 39.9688 -15
      vertex 91.7559 40.0039 15
      vertex 91.7559 40.0039 -15
    endloop
  endfacet
  facet normal -0.0391659 -0.999233 0
    outer loop
      vertex 92.6514 39.9688 -15
      vertex 92.6514 39.9688 15
      vertex 91.7559 40.0039 15
    endloop
  endfacet
  facet normal -0.00866046 -0.999962 0
    outer loop
      vertex 93.8984 39.958 -15
      vertex 92.6514 39.9688 15
      vertex 92.6514 39.9688 -15
    endloop
  endfacet
  facet normal -0.00866046 -0.999962 0
    outer loop
      vertex 93.8984 39.958 -15
      vertex 93.8984 39.958 15
      vertex 92.6514 39.9688 15
    endloop
  endfacet
  facet normal -0.00233081 -0.999997 0
    outer loop
      vertex 95.1426 39.9551 -15
      vertex 93.8984 39.958 15
      vertex 93.8984 39.958 -15
    endloop
  endfacet
  facet normal -0.00233081 -0.999997 0
    outer loop
      vertex 95.1426 39.9551 -15
      vertex 95.1426 39.9551 15
      vertex 93.8984 39.958 15
    endloop
  endfacet
  facet normal 0 -1 0
    outer loop
      vertex 100.044 39.9551 -15
      vertex 95.1426 39.9551 15
      vertex 95.1426 39.9551 -15
    endloop
  endfacet
  facet normal 0 -1 0
    outer loop
      vertex 100.044 39.9551 -15
      vertex 100.044 39.9551 15
      vertex 95.1426 39.9551 15
    endloop
  endfacet
  facet normal 1 0 0
    outer loop
      vertex 100.044 59.9834 -15
      vertex 100.044 39.9551 15
      vertex 100.044 39.9551 -15
    endloop
  endfacet
  facet normal 1 0 -0
    outer loop
      vertex 100.044 59.9834 -15
      vertex 100.044 59.9834 15
      vertex 100.044 39.9551 15
    endloop
  endfacet
  facet normal 0.82904 -0.559189 0
    outer loop
      vertex 59.9326 0.394531 -15
      vertex 59.9023 0.349609 15
      vertex 59.9023 0.349609 -15
    endloop
  endfacet
  facet normal 0.82904 -0.559189 0
    outer loop
      vertex 59.9326 0.394531 -15
      vertex 59.9326 0.394531 15
      vertex 59.9023 0.349609 15
    endloop
  endfacet
  facet normal 0.97944 -0.201735 0
    outer loop
      vertex 59.9678 0.56543 -15
      vertex 59.9326 0.394531 15
      vertex 59.9326 0.394531 -15
    endloop
  endfacet
  facet normal 0.97944 -0.201735 0
    outer loop
      vertex 59.9678 0.56543 -15
      vertex 59.9678 0.56543 15
      vertex 59.9326 0.394531 15
    endloop
  endfacet
  facet normal 0.995169 -0.0981793 0
    outer loop
      vertex 60.0205 1.09961 -15
      vertex 59.9678 0.56543 15
      vertex 59.9678 0.56543 -15
    endloop
  endfacet
  facet normal 0.995169 -0.0981793 0
    outer loop
      vertex 60.0205 1.09961 -15
      vertex 60.0205 1.09961 15
      vertex 59.9678 0.56543 15
    endloop
  endfacet
  facet normal 0.999213 -0.0396588 0
    outer loop
      vertex 60.0605 2.10742 -15
      vertex 60.0205 1.09961 15
      vertex 60.0205 1.09961 -15
    endloop
  endfacet
  facet normal 0.999213 -0.0396588 0
    outer loop
      vertex 60.0605 2.10742 -15
      vertex 60.0605 2.10742 15
      vertex 60.0205 1.09961 15
    endloop
  endfacet
  facet normal 0.999849 -0.0173907 0
    outer loop
      vertex 60.0889 3.74023 -15
      vertex 60.0605 2.10742 15
      vertex 60.0605 2.10742 -15
    endloop
  endfacet
  facet normal 0.999849 -0.0173907 0
    outer loop
      vertex 60.0889 3.74023 -15
      vertex 60.0889 3.74023 15
      vertex 60.0605 2.10742 15
    endloop
  endfacet
  facet normal 0.999967 -0.0080872 0
    outer loop
      vertex 60.1084 6.15137 -15
      vertex 60.0889 3.74023 15
      vertex 60.0889 3.74023 -15
    endloop
  endfacet
  facet normal 0.999967 -0.0080872 0
    outer loop
      vertex 60.1084 6.15137 -15
      vertex 60.1084 6.15137 15
      vertex 60.0889 3.74023 15
    endloop
  endfacet
  facet normal 0.999994 -0.00349904 0
    outer loop
      vertex 60.1201 9.49512 -15
      vertex 60.1084 6.15137 15
      vertex 60.1084 6.15137 -15
    endloop
  endfacet
  facet normal 0.999994 -0.00349904 0
    outer loop
      vertex 60.1201 9.49512 -15
      vertex 60.1201 9.49512 15
      vertex 60.1084 6.15137 15
    endloop
  endfacet
  facet normal 0.999999 -0.0011069 0
    outer loop
      vertex 60.125 13.9219 -15
      vertex 60.1201 9.49512 15
      vertex 60.1201 9.49512 -15
    endloop
  endfacet
  facet normal 0.999999 -0.0011069 0
    outer loop
      vertex 60.125 13.9219 -15
      vertex 60.125 13.9219 15
      vertex 60.1201 9.49512 15
    endloop
  endfacet
  facet normal 1 -0.000682353 0
    outer loop
      vertex 60.1279 18.1719 -15
      vertex 60.125 13.9219 15
      vertex 60.125 13.9219 -15
    endloop
  endfacet
  facet normal 1 -0.000682353 0
    outer loop
      vertex 60.1279 18.1719 -15
      vertex 60.1279 18.1719 15
      vertex 60.125 13.9219 15
    endloop
  endfacet
  facet normal 1 0 0
    outer loop
      vertex 60.1279 38.5029 -15
      vertex 60.1279 18.1719 15
      vertex 60.1279 18.1719 -15
    endloop
  endfacet
  facet normal 1 0 -0
    outer loop
      vertex 60.1279 38.5029 -15
      vertex 60.1279 38.5029 15
      vertex 60.1279 18.1719 15
    endloop
  endfacet
  facet normal 0.827071 -0.562097 0
    outer loop
      vertex 60.4531 38.9814 -15
      vertex 60.1279 38.5029 15
      vertex 60.1279 38.5029 -15
    endloop
  endfacet
  facet normal 0.827071 -0.562097 0
    outer loop
      vertex 60.4531 38.9814 -15
      vertex 60.4531 38.9814 15
      vertex 60.1279 38.5029 15
    endloop
  endfacet
  facet normal 0.833422 -0.552638 0
    outer loop
      vertex 60.5088 39.0654 -15
      vertex 60.4531 38.9814 15
      vertex 60.4531 38.9814 -15
    endloop
  endfacet
  facet normal 0.833422 -0.552638 0
    outer loop
      vertex 60.5088 39.0654 -15
      vertex 60.5088 39.0654 15
      vertex 60.4531 38.9814 15
    endloop
  endfacet
  facet normal 0.844373 -0.535756 0
    outer loop
      vertex 60.6699 39.3193 -15
      vertex 60.5088 39.0654 15
      vertex 60.5088 39.0654 -15
    endloop
  endfacet
  facet normal 0.844373 -0.535756 0
    outer loop
      vertex 60.6699 39.3193 -15
      vertex 60.6699 39.3193 15
      vertex 60.5088 39.0654 15
    endloop
  endfacet
  facet normal 0.681308 -0.731997 0
    outer loop
      vertex 60.9385 39.5693 -15
      vertex 60.6699 39.3193 15
      vertex 60.6699 39.3193 -15
    endloop
  endfacet
  facet normal 0.681308 -0.731997 0
    outer loop
      vertex 60.9385 39.5693 -15
      vertex 60.9385 39.5693 15
      vertex 60.6699 39.3193 15
    endloop
  endfacet
  facet normal 0.31421 -0.949354 0
    outer loop
      vertex 61.4609 39.7422 -15
      vertex 60.9385 39.5693 15
      vertex 60.9385 39.5693 -15
    endloop
  endfacet
  facet normal 0.31421 -0.949354 0
    outer loop
      vertex 61.4609 39.7422 -15
      vertex 61.4609 39.7422 15
      vertex 60.9385 39.5693 15
    endloop
  endfacet
  facet normal 0.115125 -0.993351 0
    outer loop
      vertex 62.4385 39.8555 -15
      vertex 61.4609 39.7422 15
      vertex 61.4609 39.7422 -15
    endloop
  endfacet
  facet normal 0.115125 -0.993351 0
    outer loop
      vertex 62.4385 39.8555 -15
      vertex 62.4385 39.8555 15
      vertex 61.4609 39.7422 15
    endloop
  endfacet
  facet normal 0.0387311 -0.99925 0
    outer loop
      vertex 64.0742 39.9189 -15
      vertex 62.4385 39.8555 15
      vertex 62.4385 39.8555 -15
    endloop
  endfacet
  facet normal 0.0387311 -0.99925 0
    outer loop
      vertex 64.0742 39.9189 -15
      vertex 64.0742 39.9189 15
      vertex 62.4385 39.8555 15
    endloop
  endfacet
  facet normal 0.0117375 -0.999931 0
    outer loop
      vertex 66.5703 39.9482 -15
      vertex 64.0742 39.9189 15
      vertex 64.0742 39.9189 -15
    endloop
  endfacet
  facet normal 0.0117375 -0.999931 0
    outer loop
      vertex 66.5703 39.9482 -15
      vertex 66.5703 39.9482 15
      vertex 64.0742 39.9189 15
    endloop
  endfacet
  facet normal 0.00222059 -0.999998 0
    outer loop
      vertex 70.1279 39.9561 -15
      vertex 66.5703 39.9482 15
      vertex 66.5703 39.9482 -15
    endloop
  endfacet
  facet normal 0.00222059 -0.999998 0
    outer loop
      vertex 70.1279 39.9561 -15
      vertex 70.1279 39.9561 15
      vertex 66.5703 39.9482 15
    endloop
  endfacet
  facet normal -0.000276381 -1 0
    outer loop
      vertex 73.7461 39.9551 -15
      vertex 70.1279 39.9561 15
      vertex 70.1279 39.9561 -15
    endloop
  endfacet
  facet normal -0.000276381 -1 0
    outer loop
      vertex 73.7461 39.9551 -15
      vertex 73.7461 39.9551 15
      vertex 70.1279 39.9561 15
    endloop
  endfacet
  facet normal 0 -1 0
    outer loop
      vertex 75.9277 39.9551 -15
      vertex 73.7461 39.9551 15
      vertex 73.7461 39.9551 -15
    endloop
  endfacet
  facet normal 0 -1 0
    outer loop
      vertex 75.9277 39.9551 -15
      vertex 75.9277 39.9551 15
      vertex 73.7461 39.9551 15
    endloop
  endfacet
  facet normal 0.0009902 -1 0
    outer loop
      vertex 78.8564 39.958 -15
      vertex 75.9277 39.9551 15
      vertex 75.9277 39.9551 -15
    endloop
  endfacet
  facet normal 0.0009902 -1 0
    outer loop
      vertex 78.8564 39.958 -15
      vertex 78.8564 39.958 15
      vertex 75.9277 39.9551 15
    endloop
  endfacet
  facet normal 0.00159692 -0.999999 0
    outer loop
      vertex 81.9248 39.9629 -15
      vertex 78.8564 39.958 15
      vertex 78.8564 39.958 -15
    endloop
  endfacet
  facet normal 0.00159692 -0.999999 0
    outer loop
      vertex 81.9248 39.9629 -15
      vertex 81.9248 39.9629 15
      vertex 78.8564 39.958 15
    endloop
  endfacet
  facet normal 0.00502549 -0.999987 0
    outer loop
      vertex 84.2529 39.9746 -15
      vertex 81.9248 39.9629 15
      vertex 81.9248 39.9629 -15
    endloop
  endfacet
  facet normal 0.00502549 -0.999987 0
    outer loop
      vertex 84.2529 39.9746 -15
      vertex 84.2529 39.9746 15
      vertex 81.9248 39.9629 15
    endloop
  endfacet
  facet normal 0.0109961 -0.99994 0
    outer loop
      vertex 85.9443 39.9932 -15
      vertex 84.2529 39.9746 15
      vertex 84.2529 39.9746 -15
    endloop
  endfacet
  facet normal 0.0109961 -0.99994 0
    outer loop
      vertex 85.9443 39.9932 -15
      vertex 85.9443 39.9932 15
      vertex 84.2529 39.9746 15
    endloop
  endfacet
  facet normal 0.0227962 -0.99974 0
    outer loop
      vertex 87.0977 40.0195 -15
      vertex 85.9443 39.9932 15
      vertex 85.9443 39.9932 -15
    endloop
  endfacet
  facet normal 0.0227962 -0.99974 0
    outer loop
      vertex 87.0977 40.0195 -15
      vertex 87.0977 40.0195 15
      vertex 85.9443 39.9932 15
    endloop
  endfacet
  facet normal 0.0516886 -0.998663 0
    outer loop
      vertex 87.8145 40.0566 -15
      vertex 87.0977 40.0195 15
      vertex 87.0977 40.0195 -15
    endloop
  endfacet
  facet normal 0.0516886 -0.998663 0
    outer loop
      vertex 87.8145 40.0566 -15
      vertex 87.8145 40.0566 15
      vertex 87.0977 40.0195 15
    endloop
  endfacet
  facet normal 0.130312 -0.991473 0
    outer loop
      vertex 88.1934 40.1064 -15
      vertex 87.8145 40.0566 15
      vertex 87.8145 40.0566 -15
    endloop
  endfacet
  facet normal 0.130312 -0.991473 0
    outer loop
      vertex 88.1934 40.1064 -15
      vertex 88.1934 40.1064 15
      vertex 87.8145 40.0566 15
    endloop
  endfacet
  facet normal 0.271781 -0.962359 0
    outer loop
      vertex 88.3145 40.1406 -15
      vertex 88.1934 40.1064 15
      vertex 88.1934 40.1064 -15
    endloop
  endfacet
  facet normal 0.271781 -0.962359 0
    outer loop
      vertex 88.3145 40.1406 -15
      vertex 88.3145 40.1406 15
      vertex 88.1934 40.1064 15
    endloop
  endfacet
  facet normal 0.776834 -0.629706 0
    outer loop
      vertex 88.3359 40.167 -15
      vertex 88.3145 40.1406 15
      vertex 88.3145 40.1406 -15
    endloop
  endfacet
  facet normal 0.776834 -0.629706 0
    outer loop
      vertex 88.3359 40.167 -15
      vertex 88.3359 40.167 15
      vertex 88.3145 40.1406 15
    endloop
  endfacet
  facet normal 0.769326 -0.638856 0
    outer loop
      vertex 88.3643 40.2012 -15
      vertex 88.3359 40.167 15
      vertex 88.3359 40.167 -15
    endloop
  endfacet
  facet normal 0.769326 -0.638856 0
    outer loop
      vertex 88.3643 40.2012 -15
      vertex 88.3643 40.2012 15
      vertex 88.3359 40.167 15
    endloop
  endfacet
  facet normal 0.938479 -0.345337 0
    outer loop
      vertex 88.4121 40.3311 -15
      vertex 88.3643 40.2012 15
      vertex 88.3643 40.2012 -15
    endloop
  endfacet
  facet normal 0.938479 -0.345337 0
    outer loop
      vertex 88.4121 40.3311 -15
      vertex 88.4121 40.3311 15
      vertex 88.3643 40.2012 15
    endloop
  endfacet
  facet normal 0.998799 -0.0489923 0
    outer loop
      vertex 88.4258 40.6104 -15
      vertex 88.4121 40.3311 15
      vertex 88.4121 40.3311 -15
    endloop
  endfacet
  facet normal 0.998799 -0.0489923 0
    outer loop
      vertex 88.4258 40.6104 -15
      vertex 88.4258 40.6104 15
      vertex 88.4121 40.3311 15
    endloop
  endfacet
  facet normal 0.993637 0.112627 0
    outer loop
      vertex 88.374 41.0674 -15
      vertex 88.4258 40.6104 15
      vertex 88.4258 40.6104 -15
    endloop
  endfacet
  facet normal 0.993637 0.112627 -0
    outer loop
      vertex 88.374 41.0674 -15
      vertex 88.374 41.0674 15
      vertex 88.4258 40.6104 15
    endloop
  endfacet
  facet normal 0.985496 0.169698 0
    outer loop
      vertex 88.2842 41.5889 -15
      vertex 88.374 41.0674 15
      vertex 88.374 41.0674 -15
    endloop
  endfacet
  facet normal 0.985496 0.169698 -0
    outer loop
      vertex 88.2842 41.5889 -15
      vertex 88.2842 41.5889 15
      vertex 88.374 41.0674 15
    endloop
  endfacet
  facet normal 0.983078 0.183189 0
    outer loop
      vertex 88.252 41.7617 -15
      vertex 88.2842 41.5889 15
      vertex 88.2842 41.5889 -15
    endloop
  endfacet
  facet normal 0.983078 0.183189 -0
    outer loop
      vertex 88.252 41.7617 -15
      vertex 88.252 41.7617 15
      vertex 88.2842 41.5889 15
    endloop
  endfacet
  facet normal 0.982412 0.186727 0
    outer loop
      vertex 88.2275 41.8906 -15
      vertex 88.252 41.7617 15
      vertex 88.252 41.7617 -15
    endloop
  endfacet
  facet normal 0.982412 0.186727 -0
    outer loop
      vertex 88.2275 41.8906 -15
      vertex 88.2275 41.8906 15
      vertex 88.252 41.7617 15
    endloop
  endfacet
  facet normal 0.989716 0.143049 0
    outer loop
      vertex 88.1709 42.2822 -15
      vertex 88.2275 41.8906 15
      vertex 88.2275 41.8906 -15
    endloop
  endfacet
  facet normal 0.989716 0.143049 -0
    outer loop
      vertex 88.1709 42.2822 -15
      vertex 88.1709 42.2822 15
      vertex 88.2275 41.8906 15
    endloop
  endfacet
  facet normal 0.996312 0.0858074 0
    outer loop
      vertex 88.1074 43.0195 -15
      vertex 88.1709 42.2822 15
      vertex 88.1709 42.2822 -15
    endloop
  endfacet
  facet normal 0.996312 0.0858074 -0
    outer loop
      vertex 88.1074 43.0195 -15
      vertex 88.1074 43.0195 15
      vertex 88.1709 42.2822 15
    endloop
  endfacet
  facet normal 0.999078 0.0429211 0
    outer loop
      vertex 88.0576 44.1787 -15
      vertex 88.1074 43.0195 15
      vertex 88.1074 43.0195 -15
    endloop
  endfacet
  facet normal 0.999078 0.0429211 -0
    outer loop
      vertex 88.0576 44.1787 -15
      vertex 88.0576 44.1787 15
      vertex 88.1074 43.0195 15
    endloop
  endfacet
  facet normal 0.999773 0.0213146 0
    outer loop
      vertex 88.0195 45.9658 -15
      vertex 88.0576 44.1787 15
      vertex 88.0576 44.1787 -15
    endloop
  endfacet
  facet normal 0.999773 0.0213146 -0
    outer loop
      vertex 88.0195 45.9658 -15
      vertex 88.0195 45.9658 15
      vertex 88.0576 44.1787 15
    endloop
  endfacet
  facet normal 0.999925 0.012284 0
    outer loop
      vertex 87.9873 48.5869 -15
      vertex 88.0195 45.9658 15
      vertex 88.0195 45.9658 -15
    endloop
  endfacet
  facet normal 0.999925 0.012284 -0
    outer loop
      vertex 87.9873 48.5869 -15
      vertex 87.9873 48.5869 15
      vertex 88.0195 45.9658 15
    endloop
  endfacet
  facet normal 0.999976 0.00693764 0
    outer loop
      vertex 87.9619 52.248 -15
      vertex 87.9873 48.5869 15
      vertex 87.9873 48.5869 -15
    endloop
  endfacet
  facet normal 0.999976 0.00693764 -0
    outer loop
      vertex 87.9619 52.248 -15
      vertex 87.9619 52.248 15
      vertex 87.9873 48.5869 15
    endloop
  endfacet
  facet normal 0.999989 0.00476932 0
    outer loop
      vertex 87.9385 57.1543 -15
      vertex 87.9619 52.248 15
      vertex 87.9619 52.248 -15
    endloop
  endfacet
  facet normal 0.999989 0.00476932 -0
    outer loop
      vertex 87.9385 57.1543 -15
      vertex 87.9385 57.1543 15
      vertex 87.9619 52.248 15
    endloop
  endfacet
  facet normal 0.999992 0.00411191 0
    outer loop
      vertex 87.9189 61.9209 -15
      vertex 87.9385 57.1543 15
      vertex 87.9385 57.1543 -15
    endloop
  endfacet
  facet normal 0.999992 0.00411191 -0
    outer loop
      vertex 87.9189 61.9209 -15
      vertex 87.9189 61.9209 15
      vertex 87.9385 57.1543 15
    endloop
  endfacet
  facet normal 0.999993 0.0036503 0
    outer loop
      vertex 87.9131 63.5098 -15
      vertex 87.9189 61.9209 15
      vertex 87.9189 61.9209 -15
    endloop
  endfacet
  facet normal 0.999993 0.0036503 -0
    outer loop
      vertex 87.9131 63.5098 -15
      vertex 87.9131 63.5098 15
      vertex 87.9189 61.9209 15
    endloop
  endfacet
  facet normal 0.999994 0.0034493 0
    outer loop
      vertex 87.8428 83.8906 -15
      vertex 87.9131 63.5098 15
      vertex 87.9131 63.5098 -15
    endloop
  endfacet
  facet normal 0.999994 0.0034493 -0
    outer loop
      vertex 87.8428 83.8906 -15
      vertex 87.8428 83.8906 15
      vertex 87.9131 63.5098 15
    endloop
  endfacet
  facet normal 0.00166775 0.999999 0
    outer loop
      vertex 62.0596 83.9336 -15
      vertex 87.8428 83.8906 15
      vertex 87.8428 83.8906 -15
    endloop
  endfacet
  facet normal 0.00166775 0.999999 -0
    outer loop
      vertex 62.0596 83.9336 -15
      vertex 62.0596 83.9336 15
      vertex 87.8428 83.8906 15
    endloop
  endfacet
  facet normal 0.00157874 0.999999 0
    outer loop
      vertex 60.2227 83.9365 -15
      vertex 62.0596 83.9336 15
      vertex 62.0596 83.9336 -15
    endloop
  endfacet
  facet normal 0.00157874 0.999999 -0
    outer loop
      vertex 60.2227 83.9365 -15
      vertex 60.2227 83.9365 15
      vertex 62.0596 83.9336 15
    endloop
  endfacet
  facet normal 0.000889001 1 0
    outer loop
      vertex 54.7109 83.9414 -15
      vertex 60.2227 83.9365 15
      vertex 60.2227 83.9365 -15
    endloop
  endfacet
  facet normal 0.000889001 1 -0
    outer loop
      vertex 54.7109 83.9414 -15
      vertex 54.7109 83.9414 15
      vertex 60.2227 83.9365 15
    endloop
  endfacet
  facet normal 0.000341904 1 0
    outer loop
      vertex 48.8613 83.9434 -15
      vertex 54.7109 83.9414 15
      vertex 54.7109 83.9414 -15
    endloop
  endfacet
  facet normal 0.000341904 1 -0
    outer loop
      vertex 48.8613 83.9434 -15
      vertex 48.8613 83.9434 15
      vertex 54.7109 83.9414 15
    endloop
  endfacet
  facet normal -0.00130687 0.999999 0
    outer loop
      vertex 44.3467 83.9375 -15
      vertex 48.8613 83.9434 15
      vertex 48.8613 83.9434 -15
    endloop
  endfacet
  facet normal -0.00130687 0.999999 0
    outer loop
      vertex 44.3467 83.9375 -15
      vertex 44.3467 83.9375 15
      vertex 48.8613 83.9434 15
    endloop
  endfacet
  facet normal -0.00410434 0.999992 0
    outer loop
      vertex 41.0088 83.9238 -15
      vertex 44.3467 83.9375 15
      vertex 44.3467 83.9375 -15
    endloop
  endfacet
  facet normal -0.00410434 0.999992 0
    outer loop
      vertex 41.0088 83.9238 -15
      vertex 41.0088 83.9238 15
      vertex 44.3467 83.9375 15
    endloop
  endfacet
  facet normal -0.0100757 0.999949 0
    outer loop
      vertex 38.6865 83.9004 -15
      vertex 41.0088 83.9238 15
      vertex 41.0088 83.9238 -15
    endloop
  endfacet
  facet normal -0.0100757 0.999949 0
    outer loop
      vertex 38.6865 83.9004 -15
      vertex 38.6865 83.9004 15
      vertex 41.0088 83.9238 15
    endloop
  endfacet
  facet normal -0.0233097 0.999728 0
    outer loop
      vertex 37.2197 83.8662 -15
      vertex 38.6865 83.9004 15
      vertex 38.6865 83.9004 -15
    endloop
  endfacet
  facet normal -0.0233097 0.999728 0
    outer loop
      vertex 37.2197 83.8662 -15
      vertex 37.2197 83.8662 15
      vertex 38.6865 83.9004 15
    endloop
  endfacet
  facet normal -0.0566711 0.998393 0
    outer loop
      vertex 36.4463 83.8223 -15
      vertex 37.2197 83.8662 15
      vertex 37.2197 83.8662 -15
    endloop
  endfacet
  facet normal -0.0566711 0.998393 0
    outer loop
      vertex 36.4463 83.8223 -15
      vertex 36.4463 83.8223 15
      vertex 37.2197 83.8662 15
    endloop
  endfacet
  facet normal -0.103606 0.994618 0
    outer loop
      vertex 36.2207 83.7988 -15
      vertex 36.4463 83.8223 15
      vertex 36.4463 83.8223 -15
    endloop
  endfacet
  facet normal -0.103606 0.994618 0
    outer loop
      vertex 36.2207 83.7988 -15
      vertex 36.2207 83.7988 15
      vertex 36.4463 83.8223 15
    endloop
  endfacet
  facet normal -0.931556 0.363599 0
    outer loop
      vertex 36.207 83.7637 -15
      vertex 36.2207 83.7988 15
      vertex 36.2207 83.7988 -15
    endloop
  endfacet
  facet normal -0.931556 0.363599 0
    outer loop
      vertex 36.207 83.7637 -15
      vertex 36.207 83.7637 15
      vertex 36.2207 83.7988 15
    endloop
  endfacet
  facet normal -0.901696 0.432371 0
    outer loop
      vertex 36.1953 83.7393 -15
      vertex 36.207 83.7637 15
      vertex 36.207 83.7637 -15
    endloop
  endfacet
  facet normal -0.901696 0.432371 0
    outer loop
      vertex 36.1953 83.7393 -15
      vertex 36.1953 83.7393 15
      vertex 36.207 83.7637 15
    endloop
  endfacet
  facet normal -0.996345 0.0854183 0
    outer loop
      vertex 36.167 83.4092 -15
      vertex 36.1953 83.7393 15
      vertex 36.1953 83.7393 -15
    endloop
  endfacet
  facet normal -0.996345 0.0854183 0
    outer loop
      vertex 36.167 83.4092 -15
      vertex 36.167 83.4092 15
      vertex 36.1953 83.7393 15
    endloop
  endfacet
  facet normal -0.999949 -0.0100549 0
    outer loop
      vertex 36.1719 82.9219 -15
      vertex 36.167 83.4092 15
      vertex 36.167 83.4092 -15
    endloop
  endfacet
  facet normal -0.999949 -0.0100549 0
    outer loop
      vertex 36.1719 82.9219 -15
      vertex 36.1719 82.9219 15
      vertex 36.167 83.4092 15
    endloop
  endfacet
  facet normal -0.997849 -0.0655591 0
    outer loop
      vertex 36.1787 82.8184 -15
      vertex 36.1719 82.9219 15
      vertex 36.1719 82.9219 -15
    endloop
  endfacet
  facet normal -0.997849 -0.0655591 0
    outer loop
      vertex 36.1787 82.8184 -15
      vertex 36.1787 82.8184 15
      vertex 36.1719 82.9219 15
    endloop
  endfacet
  facet normal -0.998411 -0.0563556 0
    outer loop
      vertex 36.2217 82.0566 -15
      vertex 36.1787 82.8184 15
      vertex 36.1787 82.8184 -15
    endloop
  endfacet
  facet normal -0.998411 -0.0563556 0
    outer loop
      vertex 36.2217 82.0566 -15
      vertex 36.2217 82.0566 15
      vertex 36.1787 82.8184 15
    endloop
  endfacet
  facet normal -0.0313058 -0.99951 0
    outer loop
      vertex 38.9004 81.9727 -15
      vertex 36.2217 82.0566 15
      vertex 36.2217 82.0566 -15
    endloop
  endfacet
  facet normal -0.0313058 -0.99951 0
    outer loop
      vertex 38.9004 81.9727 -15
      vertex 38.9004 81.9727 15
      vertex 36.2217 82.0566 15
    endloop
  endfacet
  facet normal -0.0264579 -0.99965 0
    outer loop
      vertex 39.1611 81.9658 -15
      vertex 38.9004 81.9727 15
      vertex 38.9004 81.9727 -15
    endloop
  endfacet
  facet normal -0.0264579 -0.99965 0
    outer loop
      vertex 39.1611 81.9658 -15
      vertex 39.1611 81.9658 15
      vertex 38.9004 81.9727 15
    endloop
  endfacet
  facet normal -0.0297881 -0.999556 0
    outer loop
      vertex 39.9463 81.9424 -15
      vertex 39.1611 81.9658 15
      vertex 39.1611 81.9658 -15
    endloop
  endfacet
  facet normal -0.0297881 -0.999556 0
    outer loop
      vertex 39.9463 81.9424 -15
      vertex 39.9463 81.9424 15
      vertex 39.1611 81.9658 15
    endloop
  endfacet
  facet normal -0.0341134 -0.999418 0
    outer loop
      vertex 40.8047 81.9131 -15
      vertex 39.9463 81.9424 15
      vertex 39.9463 81.9424 -15
    endloop
  endfacet
  facet normal -0.0341134 -0.999418 0
    outer loop
      vertex 40.8047 81.9131 -15
      vertex 40.8047 81.9131 15
      vertex 39.9463 81.9424 15
    endloop
  endfacet
  facet normal -0.040276 -0.999189 0
    outer loop
      vertex 41.3877 81.8896 -15
      vertex 40.8047 81.9131 15
      vertex 40.8047 81.9131 -15
    endloop
  endfacet
  facet normal -0.040276 -0.999189 0
    outer loop
      vertex 41.3877 81.8896 -15
      vertex 41.3877 81.8896 15
      vertex 40.8047 81.9131 15
    endloop
  endfacet
  facet normal -0.0536417 -0.99856 0
    outer loop
      vertex 41.6055 81.8779 -15
      vertex 41.3877 81.8896 15
      vertex 41.3877 81.8896 -15
    endloop
  endfacet
  facet normal -0.0536417 -0.99856 0
    outer loop
      vertex 41.6055 81.8779 -15
      vertex 41.6055 81.8779 15
      vertex 41.3877 81.8896 15
    endloop
  endfacet
  facet normal -0.782424 -0.622746 0
    outer loop
      vertex 41.6094 81.873 -15
      vertex 41.6055 81.8779 15
      vertex 41.6055 81.8779 -15
    endloop
  endfacet
  facet normal -0.782424 -0.622746 0
    outer loop
      vertex 41.6094 81.873 -15
      vertex 41.6094 81.873 15
      vertex 41.6055 81.8779 15
    endloop
  endfacet
  facet normal -0.707107 -0.707107 0
    outer loop
      vertex 41.6123 81.8701 -15
      vertex 41.6094 81.873 15
      vertex 41.6094 81.873 -15
    endloop
  endfacet
  facet normal -0.707107 -0.707107 0
    outer loop
      vertex 41.6123 81.8701 -15
      vertex 41.6123 81.8701 15
      vertex 41.6094 81.873 15
    endloop
  endfacet
  facet normal -0.726634 -0.687024 0
    outer loop
      vertex 41.7129 81.7637 -15
      vertex 41.6123 81.8701 15
      vertex 41.6123 81.8701 -15
    endloop
  endfacet
  facet normal -0.726634 -0.687024 0
    outer loop
      vertex 41.7129 81.7637 -15
      vertex 41.7129 81.7637 15
      vertex 41.6123 81.8701 15
    endloop
  endfacet
  facet normal -0.722312 -0.691567 0
    outer loop
      vertex 41.8906 81.5781 -15
      vertex 41.7129 81.7637 15
      vertex 41.7129 81.7637 -15
    endloop
  endfacet
  facet normal -0.722312 -0.691567 0
    outer loop
      vertex 41.8906 81.5781 -15
      vertex 41.8906 81.5781 15
      vertex 41.7129 81.7637 15
    endloop
  endfacet
  facet normal -0.69874 -0.715376 0
    outer loop
      vertex 41.9336 81.5361 -15
      vertex 41.8906 81.5781 15
      vertex 41.8906 81.5781 -15
    endloop
  endfacet
  facet normal -0.69874 -0.715376 0
    outer loop
      vertex 41.9336 81.5361 -15
      vertex 41.9336 81.5361 15
      vertex 41.8906 81.5781 15
    endloop
  endfacet
  facet normal -0.741102 -0.671393 0
    outer loop
      vertex 42.2158 81.2246 -15
      vertex 41.9336 81.5361 15
      vertex 41.9336 81.5361 -15
    endloop
  endfacet
  facet normal -0.741102 -0.671393 0
    outer loop
      vertex 42.2158 81.2246 -15
      vertex 42.2158 81.2246 15
      vertex 41.9336 81.5361 15
    endloop
  endfacet
  facet normal -1 0 0
    outer loop
      vertex 42.2158 10.8867 -15
      vertex 42.2158 81.2246 15
      vertex 42.2158 81.2246 -15
    endloop
  endfacet
  facet normal -1 0 0
    outer loop
      vertex 42.2158 10.8867 -15
      vertex 42.2158 10.8867 15
      vertex 42.2158 81.2246 15
    endloop
  endfacet
  facet normal -0.692957 0.720978 0
    outer loop
      vertex 41.8633 10.5479 -15
      vertex 42.2158 10.8867 15
      vertex 42.2158 10.8867 -15
    endloop
  endfacet
  facet normal -0.692957 0.720978 0
    outer loop
      vertex 41.8633 10.5479 -15
      vertex 41.8633 10.5479 15
      vertex 42.2158 10.8867 15
    endloop
  endfacet
  facet normal -0.721954 0.691941 0
    outer loop
      vertex 41.5244 10.1943 -15
      vertex 41.8633 10.5479 15
      vertex 41.8633 10.5479 -15
    endloop
  endfacet
  facet normal -0.721954 0.691941 0
    outer loop
      vertex 41.5244 10.1943 -15
      vertex 41.5244 10.1943 15
      vertex 41.8633 10.5479 15
    endloop
  endfacet
  facet normal 0 1 0
    outer loop
      vertex 19.5693 10.1943 -15
      vertex 41.5244 10.1943 15
      vertex 41.5244 10.1943 -15
    endloop
  endfacet
  facet normal 0 1 0
    outer loop
      vertex 19.5693 10.1943 -15
      vertex 19.5693 10.1943 15
      vertex 41.5244 10.1943 15
    endloop
  endfacet
  facet normal -0.000195963 1 0
    outer loop
      vertex 14.9766 10.1934 -15
      vertex 19.5693 10.1943 15
      vertex 19.5693 10.1943 -15
    endloop
  endfacet
  facet normal -0.000195963 1 0
    outer loop
      vertex 14.9766 10.1934 -15
      vertex 14.9766 10.1934 15
      vertex 19.5693 10.1943 15
    endloop
  endfacet
  facet normal -0.00123348 0.999999 0
    outer loop
      vertex 10.1934 10.1875 -15
      vertex 14.9766 10.1934 15
      vertex 14.9766 10.1934 -15
    endloop
  endfacet
  facet normal -0.00123348 0.999999 0
    outer loop
      vertex 10.1934 10.1875 -15
      vertex 10.1934 10.1875 15
      vertex 14.9766 10.1934 15
    endloop
  endfacet
  facet normal -0.00296445 0.999996 0
    outer loop
      vertex 6.58398 10.1768 -15
      vertex 10.1934 10.1875 15
      vertex 10.1934 10.1875 -15
    endloop
  endfacet
  facet normal -0.00296445 0.999996 0
    outer loop
      vertex 6.58398 10.1768 -15
      vertex 6.58398 10.1768 15
      vertex 10.1934 10.1875 15
    endloop
  endfacet
  facet normal -0.00753941 0.999972 0
    outer loop
      vertex 3.98438 10.1572 -15
      vertex 6.58398 10.1768 15
      vertex 6.58398 10.1768 -15
    endloop
  endfacet
  facet normal -0.00753941 0.999972 0
    outer loop
      vertex 3.98438 10.1572 -15
      vertex 3.98438 10.1572 15
      vertex 6.58398 10.1768 15
    endloop
  endfacet
  facet normal -0.0160885 0.999871 0
    outer loop
      vertex 2.22559 10.1289 -15
      vertex 3.98438 10.1572 15
      vertex 3.98438 10.1572 -15
    endloop
  endfacet
  facet normal -0.0160885 0.999871 0
    outer loop
      vertex 2.22559 10.1289 -15
      vertex 2.22559 10.1289 15
      vertex 3.98438 10.1572 15
    endloop
  endfacet
  facet normal -0.0370421 0.999314 0
    outer loop
      vertex 1.14648 10.0889 -15
      vertex 2.22559 10.1289 15
      vertex 2.22559 10.1289 -15
    endloop
  endfacet
  facet normal -0.0370421 0.999314 0
    outer loop
      vertex 1.14648 10.0889 -15
      vertex 1.14648 10.0889 15
      vertex 2.22559 10.1289 15
    endloop
  endfacet
  facet normal -0.0888743 0.996043 0
    outer loop
      vertex 0.577148 10.0381 -15
      vertex 1.14648 10.0889 15
      vertex 1.14648 10.0889 -15
    endloop
  endfacet
  facet normal -0.0888743 0.996043 0
    outer loop
      vertex 0.577148 10.0381 -15
      vertex 0.577148 10.0381 15
      vertex 1.14648 10.0889 15
    endloop
  endfacet
  facet normal -0.198004 0.980201 0
    outer loop
      vertex 0.398438 10.002 -15
      vertex 0.577148 10.0381 15
      vertex 0.577148 10.0381 -15
    endloop
  endfacet
  facet normal -0.198004 0.980201 0
    outer loop
      vertex 0.398438 10.002 -15
      vertex 0.398438 10.002 15
      vertex 0.577148 10.0381 15
    endloop
  endfacet
  facet normal -0.591876 0.806029 0
    outer loop
      vertex 0.354492 9.96973 -15
      vertex 0.398438 10.002 15
      vertex 0.398438 10.002 -15
    endloop
  endfacet
  facet normal -0.591876 0.806029 0
    outer loop
      vertex 0.354492 9.96973 -15
      vertex 0.354492 9.96973 15
      vertex 0.398438 10.002 15
    endloop
  endfacet
  facet normal -0.56367 0.826 0
    outer loop
      vertex 0.0439453 9.75781 -15
      vertex 0.354492 9.96973 15
      vertex 0.354492 9.96973 -15
    endloop
  endfacet
  facet normal -0.56367 0.826 0
    outer loop
      vertex 0.0439453 9.75781 -15
      vertex 0.0439453 9.75781 15
      vertex 0.354492 9.96973 15
    endloop
  endfacet
  facet normal -1 0 0
    outer loop
      vertex 0.0439453 0.0400391 -15
      vertex 0.0439453 9.75781 15
      vertex 0.0439453 9.75781 -15
    endloop
  endfacet
  facet normal -1 0 0
    outer loop
      vertex 0.0439453 0.0400391 -15
      vertex 0.0439453 0.0400391 15
      vertex 0.0439453 9.75781 15
    endloop
  endfacet
  facet normal 0 -1 0
    outer loop
      vertex 59.6914 0.0400391 -15
      vertex 0.0439453 0.0400391 15
      vertex 0.0439453 0.0400391 -15
    endloop
  endfacet
  facet normal 0 -1 0
    outer loop
      vertex 59.6914 0.0400391 -15
      vertex 59.6914 0.0400391 15
      vertex 0.0439453 0.0400391 15
    endloop
  endfacet
  facet normal 0.826439 -0.563026 0
    outer loop
      vertex 59.9023 0.349609 -15
      vertex 59.6914 0.0400391 15
      vertex 59.6914 0.0400391 -15
    endloop
  endfacet
  facet normal 0.826439 -0.563026 0
    outer loop
      vertex 59.9023 0.349609 -15
      vertex 59.9023 0.349609 15
      vertex 59.6914 0.0400391 15
    endloop
  endfacet
endsolid OpenSCAD_Model
