solid OpenSCAD_Model
  facet normal 0 0 -1
    outer loop
      vertex 94.0762 59.9834 -1.5
      vertex 100 59.9834 -1.5
      vertex 100 0.0400391 -1.5
    endloop
  endfacet
  facet normal -0 0 -1
    outer loop
      vertex 94.0762 59.9834 -1.5
      vertex 0 0.0400391 -1.5
      vertex 0 83.9609 -1.5
    endloop
  endfacet
  facet normal 0 0 -1
    outer loop
      vertex 94.0762 59.9834 -1.5
      vertex 0 83.9609 -1.5
      vertex 94.0762 83.9609 -1.5
    endloop
  endfacet
  facet normal 0 0 -1
    outer loop
      vertex 100 0.0400391 -1.5
      vertex 0 0.0400391 -1.5
      vertex 94.0762 59.9834 -1.5
    endloop
  endfacet
  facet normal 0 -0 1
    outer loop
      vertex 100 0.0400391 1.5
      vertex 100 59.9834 1.5
      vertex 94.0762 59.9834 1.5
    endloop
  endfacet
  facet normal 0 0 1
    outer loop
      vertex 0 83.9609 1.5
      vertex 0 0.0400391 1.5
      vertex 94.0762 59.9834 1.5
    endloop
  endfacet
  facet normal 0 0 1
    outer loop
      vertex 94.0762 83.9609 1.5
      vertex 0 83.9609 1.5
      vertex 94.0762 59.9834 1.5
    endloop
  endfacet
  facet normal 0 0 1
    outer loop
      vertex 94.0762 59.9834 1.5
      vertex 0 0.0400391 1.5
      vertex 100 0.0400391 1.5
    endloop
  endfacet
  facet normal 0 1 0
    outer loop
      vertex 94.0762 59.9834 -1.5
      vertex 100 59.9834 1.5
      vertex 100 59.9834 -1.5
    endloop
  endfacet
  facet normal 0 1 0
    outer loop
      vertex 94.0762 59.9834 -1.5
      vertex 94.0762 59.9834 1.5
      vertex 100 59.9834 1.5
    endloop
  endfacet
  facet normal 1 0 0
    outer loop
      vertex 94.0762 83.9609 -1.5
      vertex 94.0762 59.9834 1.5
      vertex 94.0762 59.9834 -1.5
    endloop
  endfacet
  facet normal 1 0 -0
    outer loop
      vertex 94.0762 83.9609 -1.5
      vertex 94.0762 83.9609 1.5
      vertex 94.0762 59.9834 1.5
    endloop
  endfacet
  facet normal 0 1 0
    outer loop
      vertex 0 83.9609 -1.5
      vertex 94.0762 83.9609 1.5
      vertex 94.0762 83.9609 -1.5
    endloop
  endfacet
  facet normal 0 1 0
    outer loop
      vertex 0 83.9609 -1.5
      vertex 0 83.9609 1.5
      vertex 94.0762 83.9609 1.5
    endloop
  endfacet
  facet normal -1 0 0
    outer loop
      vertex 0 0.0400391 -1.5
      vertex 0 83.9609 1.5
      vertex 0 83.9609 -1.5
    endloop
  endfacet
  facet normal -1 0 0
    outer loop
      vertex 0 0.0400391 -1.5
      vertex 0 0.0400391 1.5
      vertex 0 83.9609 1.5
    endloop
  endfacet
  facet normal 0 -1 0
    outer loop
      vertex 100 0.0400391 -1.5
      vertex 0 0.0400391 1.5
      vertex 0 0.0400391 -1.5
    endloop
  endfacet
  facet normal 0 -1 0
    outer loop
      vertex 100 0.0400391 -1.5
      vertex 100 0.0400391 1.5
      vertex 0 0.0400391 1.5
    endloop
  endfacet
  facet normal 1 0 0
    outer loop
      vertex 100 59.9834 -1.5
      vertex 100 0.0400391 1.5
      vertex 100 0.0400391 -1.5
    endloop
  endfacet
  facet normal 1 0 -0
    outer loop
      vertex 100 59.9834 -1.5
      vertex 100 59.9834 1.5
      vertex 100 0.0400391 1.5
    endloop
  endfacet
endsolid OpenSCAD_Model
