solid OpenSCAD_Model
  facet normal 0 0 -1
    outer loop
      vertex 92.666 12.7979 -6
      vertex 54.9082 31.0693 -6
      vertex 92.6748 15.4424 -6
    endloop
  endfacet
  facet normal -0 -0 -1
    outer loop
      vertex 99.9473 7.37402 -6
      vertex 99.9629 7.08594 -6
      vertex 99.8652 7.37402 -6
    endloop
  endfacet
  facet normal -0 -0 -1
    outer loop
      vertex 99.9629 7.08594 -6
      vertex 99.9824 6.29785 -6
      vertex 99.6299 7.27051 -6
    endloop
  endfacet
  facet normal 0 0 -1
    outer loop
      vertex 99.9629 7.08594 -6
      vertex 99.6299 7.27051 -6
      vertex 99.8652 7.37402 -6
    endloop
  endfacet
  facet normal 0 -0 -1
    outer loop
      vertex 99.6299 7.27051 -6
      vertex 99.9824 6.29785 -6
      vertex 98.834 6.98633 -6
    endloop
  endfacet
  facet normal 0 0 -1
    outer loop
      vertex 98.834 6.98633 -6
      vertex 99.9824 6.29785 -6
      vertex 99.9941 5.13184 -6
    endloop
  endfacet
  facet normal 0 0 -1
    outer loop
      vertex 97.6758 6.56543 -6
      vertex 98.834 6.98633 -6
      vertex 99.9941 5.13184 -6
    endloop
  endfacet
  facet normal 0 0 -1
    outer loop
      vertex 100 4.06348 -6
      vertex 97.6758 6.56543 -6
      vertex 99.9941 5.13184 -6
    endloop
  endfacet
  facet normal 0 0 -1
    outer loop
      vertex 100 4.06348 -6
      vertex 96.625 6.17773 -6
      vertex 97.6758 6.56543 -6
    endloop
  endfacet
  facet normal 0 0 -1
    outer loop
      vertex 100 4.06348 -6
      vertex 96.2764 6.04785 -6
      vertex 96.625 6.17773 -6
    endloop
  endfacet
  facet normal -0 -0 -1
    outer loop
      vertex 100 4.06348 -6
      vertex 100 0.0400391 -6
      vertex 96.2764 6.04785 -6
    endloop
  endfacet
  facet normal 0 -0 -1
    outer loop
      vertex 96.2764 6.04785 -6
      vertex 100 0.0400391 -6
      vertex 92.666 4.72266 -6
    endloop
  endfacet
  facet normal 0 -0 -1
    outer loop
      vertex 92.666 4.72266 -6
      vertex 100 0.0400391 -6
      vertex 16.0225 2.1416 -6
    endloop
  endfacet
  facet normal -0 -0 -1
    outer loop
      vertex 92.666 12.7979 -6
      vertex 92.666 4.72266 -6
      vertex 54.9082 31.0693 -6
    endloop
  endfacet
  facet normal -0 -0 -1
    outer loop
      vertex 92.7002 28.877 -6
      vertex 92.7598 18.7578 -6
      vertex 54.9082 31.0693 -6
    endloop
  endfacet
  facet normal 0 0 -1
    outer loop
      vertex 92.7002 28.877 -6
      vertex 92.8496 19.0527 -6
      vertex 92.7598 18.7578 -6
    endloop
  endfacet
  facet normal -0 -0 -1
    outer loop
      vertex 92.707 28.8701 -6
      vertex 92.71 28.8633 -6
      vertex 92.7002 28.877 -6
    endloop
  endfacet
  facet normal 0 0 -1
    outer loop
      vertex 93.7852 29.2236 -6
      vertex 94.9346 29.6328 -6
      vertex 99.9717 24.0449 -6
    endloop
  endfacet
  facet normal 0 0 -1
    outer loop
      vertex 92.8701 19.043 -6
      vertex 92.8496 19.0527 -6
      vertex 93.1807 18.9277 -6
    endloop
  endfacet
  facet normal 0 0 -1
    outer loop
      vertex 96.1084 17.8652 -6
      vertex 95.0967 18.2324 -6
      vertex 99.9766 21.1641 -6
    endloop
  endfacet
  facet normal 0 0 -1
    outer loop
      vertex 99.9717 18.7949 -6
      vertex 98.8799 16.8867 -6
      vertex 97.7773 17.2666 -6
    endloop
  endfacet
  facet normal 0 0 -1
    outer loop
      vertex 99.9297 16.5713 -6
      vertex 99.6367 16.6416 -6
      vertex 99.9395 16.582 -6
    endloop
  endfacet
  facet normal -0 0 -1
    outer loop
      vertex 99.9297 16.5713 -6
      vertex 99.9219 16.5615 -6
      vertex 99.6367 16.6416 -6
    endloop
  endfacet
  facet normal 0 0 -1
    outer loop
      vertex 99.9717 18.7949 -6
      vertex 97.7773 17.2666 -6
      vertex 96.7783 17.6221 -6
    endloop
  endfacet
  facet normal 0 0 -1
    outer loop
      vertex 99.9395 16.582 -6
      vertex 99.6367 16.6416 -6
      vertex 99.9551 17.1846 -6
    endloop
  endfacet
  facet normal 0 0 -1
    outer loop
      vertex 99.9551 17.1846 -6
      vertex 99.6367 16.6416 -6
      vertex 98.8799 16.8867 -6
    endloop
  endfacet
  facet normal 0 0 -1
    outer loop
      vertex 99.9717 18.7949 -6
      vertex 99.9551 17.1846 -6
      vertex 98.8799 16.8867 -6
    endloop
  endfacet
  facet normal 0 0 -1
    outer loop
      vertex 99.9766 21.1641 -6
      vertex 99.9717 18.7949 -6
      vertex 96.7783 17.6221 -6
    endloop
  endfacet
  facet normal 0 0 -1
    outer loop
      vertex 96.4463 17.7412 -6
      vertex 99.9766 21.1641 -6
      vertex 96.7783 17.6221 -6
    endloop
  endfacet
  facet normal 0 0 -1
    outer loop
      vertex 96.4463 17.7412 -6
      vertex 96.1084 17.8652 -6
      vertex 99.9766 21.1641 -6
    endloop
  endfacet
  facet normal -0 0 -1
    outer loop
      vertex 99.9766 21.1641 -6
      vertex 95.0967 18.2324 -6
      vertex 99.9727 23.3262 -6
    endloop
  endfacet
  facet normal 0 0 -1
    outer loop
      vertex 95.0967 18.2324 -6
      vertex 93.9697 18.6406 -6
      vertex 99.9727 23.3262 -6
    endloop
  endfacet
  facet normal 0 0 -1
    outer loop
      vertex 99.9727 23.3262 -6
      vertex 93.9697 18.6406 -6
      vertex 93.1807 18.9277 -6
    endloop
  endfacet
  facet normal 0 -0 -1
    outer loop
      vertex 99.9717 24.0449 -6
      vertex 99.9727 23.3262 -6
      vertex 93.1807 18.9277 -6
    endloop
  endfacet
  facet normal 0 0 -1
    outer loop
      vertex 92.8496 19.0527 -6
      vertex 99.9717 24.0449 -6
      vertex 93.1807 18.9277 -6
    endloop
  endfacet
  facet normal 0 0 -1
    outer loop
      vertex 96.333 30.1387 -6
      vertex 99.9297 31.4648 -6
      vertex 99.9717 24.0449 -6
    endloop
  endfacet
  facet normal 0 0 -1
    outer loop
      vertex 95.9834 30.0127 -6
      vertex 96.333 30.1387 -6
      vertex 99.9717 24.0449 -6
    endloop
  endfacet
  facet normal -0 0 -1
    outer loop
      vertex 92.6855 33.2656 -6
      vertex 54.9082 31.0693 -6
      vertex 92.6934 36.0342 -6
    endloop
  endfacet
  facet normal 0 0 -1
    outer loop
      vertex 94.9346 29.6328 -6
      vertex 95.9834 30.0127 -6
      vertex 99.9717 24.0449 -6
    endloop
  endfacet
  facet normal 0 -0 -1
    outer loop
      vertex 93.7852 29.2236 -6
      vertex 99.9717 24.0449 -6
      vertex 93.0029 28.9551 -6
    endloop
  endfacet
  facet normal 0 -0 -1
    outer loop
      vertex 93.0029 28.9551 -6
      vertex 99.9717 24.0449 -6
      vertex 92.8496 19.0527 -6
    endloop
  endfacet
  facet normal 0 0 -1
    outer loop
      vertex 92.71 28.8633 -6
      vertex 93.0029 28.9551 -6
      vertex 92.8496 19.0527 -6
    endloop
  endfacet
  facet normal -0 -0 -1
    outer loop
      vertex 92.71 28.8633 -6
      vertex 92.8496 19.0527 -6
      vertex 92.7002 28.877 -6
    endloop
  endfacet
  facet normal 0 0 -1
    outer loop
      vertex 92.7002 28.877 -6
      vertex 54.9082 31.0693 -6
      vertex 92.6914 29.4502 -6
    endloop
  endfacet
  facet normal -0 0 -1
    outer loop
      vertex 92.7598 18.7578 -6
      vertex 92.7031 17.6377 -6
      vertex 54.9082 31.0693 -6
    endloop
  endfacet
  facet normal -0 -0 -1
    outer loop
      vertex 92.6846 30.9932 -6
      vertex 92.6914 29.4502 -6
      vertex 54.9082 31.0693 -6
    endloop
  endfacet
  facet normal 0 0 -1
    outer loop
      vertex 54.9082 31.0693 -6
      vertex 92.7031 17.6377 -6
      vertex 92.6748 15.4424 -6
    endloop
  endfacet
  facet normal 0 0 -1
    outer loop
      vertex 54.9082 31.0693 -6
      vertex 92.6855 33.2656 -6
      vertex 92.6846 30.9932 -6
    endloop
  endfacet
  facet normal -0 0 -1
    outer loop
      vertex 92.6934 36.0342 -6
      vertex 54.9082 31.0693 -6
      vertex 92.7363 43.1572 -6
    endloop
  endfacet
  facet normal 0 0 -1
    outer loop
      vertex 100 59.9834 -6
      vertex 95.0869 42.3115 -6
      vertex 94.8516 42.3955 -6
    endloop
  endfacet
  facet normal 0 0 -1
    outer loop
      vertex 93.8086 59.9834 -6
      vertex 100 59.9834 -6
      vertex 94.8516 42.3955 -6
    endloop
  endfacet
  facet normal 0 0 -1
    outer loop
      vertex 100 59.9834 -6
      vertex 96.793 41.6914 -6
      vertex 95.7939 42.0537 -6
    endloop
  endfacet
  facet normal 0 0 -1
    outer loop
      vertex 100 59.9834 -6
      vertex 97.7285 41.3496 -6
      vertex 96.793 41.6914 -6
    endloop
  endfacet
  facet normal 0 0 -1
    outer loop
      vertex 100 59.9834 -6
      vertex 98.2998 41.1396 -6
      vertex 97.7285 41.3496 -6
    endloop
  endfacet
  facet normal 0 0 -1
    outer loop
      vertex 100 40.5332 -6
      vertex 98.4912 41.0693 -6
      vertex 100 59.9834 -6
    endloop
  endfacet
  facet normal 0 0 -1
    outer loop
      vertex 100 0.0400391 -6
      vertex 0 0.0400391 -6
      vertex 16.0225 2.1416 -6
    endloop
  endfacet
  facet normal 0 0 -1
    outer loop
      vertex 100 59.9834 -6
      vertex 98.4912 41.0693 -6
      vertex 98.2998 41.1396 -6
    endloop
  endfacet
  facet normal 0 0 -1
    outer loop
      vertex 95.0869 42.3115 -6
      vertex 100 59.9834 -6
      vertex 95.7939 42.0537 -6
    endloop
  endfacet
  facet normal 0 0 -1
    outer loop
      vertex 92.7363 43.1572 -6
      vertex 93.8086 59.9834 -6
      vertex 94.8516 42.3955 -6
    endloop
  endfacet
  facet normal -0 0 -1
    outer loop
      vertex 92.7363 43.1572 -6
      vertex 54.9082 31.0693 -6
      vertex 93.8086 59.9834 -6
    endloop
  endfacet
  facet normal -0 0 -1
    outer loop
      vertex 12.7334 5.43066 -6
      vertex 0 0.0400391 -6
      vertex 11.6748 6.50391 -6
    endloop
  endfacet
  facet normal -0 0 -1
    outer loop
      vertex 92.666 4.72266 -6
      vertex 16.0225 2.1416 -6
      vertex 54.9082 31.0693 -6
    endloop
  endfacet
  facet normal -0 0 -1
    outer loop
      vertex 16.0225 2.1416 -6
      vertex 0 0.0400391 -6
      vertex 12.7334 5.43066 -6
    endloop
  endfacet
  facet normal -0 0 -1
    outer loop
      vertex 11.6748 6.50391 -6
      vertex 0 0.0400391 -6
      vertex 10.8037 7.42871 -6
    endloop
  endfacet
  facet normal -0 0 -1
    outer loop
      vertex 10.8037 7.42871 -6
      vertex 0 0.0400391 -6
      vertex 10.3867 7.9502 -6
    endloop
  endfacet
  facet normal -0 0 -1
    outer loop
      vertex 10.3867 7.9502 -6
      vertex 0 0.0400391 -6
      vertex 10.3174 8.14746 -6
    endloop
  endfacet
  facet normal 0 0 -1
    outer loop
      vertex 10.3174 8.14746 -6
      vertex 10.3584 8.18945 -6
      vertex 10.3379 8.16504 -6
    endloop
  endfacet
  facet normal 0 0 -1
    outer loop
      vertex 10.3174 8.14746 -6
      vertex 0 83.9609 -6
      vertex 10.3584 8.18945 -6
    endloop
  endfacet
  facet normal 0 0 -1
    outer loop
      vertex 0 83.9609 -6
      vertex 11.2217 8.93066 -6
      vertex 10.5693 8.36914 -6
    endloop
  endfacet
  facet normal -0 0 -1
    outer loop
      vertex 15.4727 12.584 -6
      vertex 13.6934 11.0576 -6
      vertex 0 83.9609 -6
    endloop
  endfacet
  facet normal -0 0 -1
    outer loop
      vertex 17.584 14.3965 -6
      vertex 15.4727 12.584 -6
      vertex 0 83.9609 -6
    endloop
  endfacet
  facet normal 0 0 -1
    outer loop
      vertex 0 83.9609 -6
      vertex 12.2705 9.83398 -6
      vertex 11.2217 8.93066 -6
    endloop
  endfacet
  facet normal 0 0 -1
    outer loop
      vertex 20.0059 16.4746 -6
      vertex 0 83.9609 -6
      vertex 22.7188 18.7988 -6
    endloop
  endfacet
  facet normal -0 0 -1
    outer loop
      vertex 20.0059 16.4746 -6
      vertex 17.584 14.3965 -6
      vertex 0 83.9609 -6
    endloop
  endfacet
  facet normal -0 0 -1
    outer loop
      vertex 25.6973 21.3555 -6
      vertex 22.7188 18.7988 -6
      vertex 0 83.9609 -6
    endloop
  endfacet
  facet normal 0 0 -1
    outer loop
      vertex 32.376 27.0801 -6
      vertex 0 83.9609 -6
      vertex 36.0312 30.2139 -6
    endloop
  endfacet
  facet normal -0 0 -1
    outer loop
      vertex 32.376 27.0801 -6
      vertex 25.6973 21.3555 -6
      vertex 0 83.9609 -6
    endloop
  endfacet
  facet normal 0 0 -1
    outer loop
      vertex 39.8682 33.502 -6
      vertex 0 83.9609 -6
      vertex 43.8662 36.9277 -6
    endloop
  endfacet
  facet normal -0 0 -1
    outer loop
      vertex 39.8682 33.502 -6
      vertex 36.0312 30.2139 -6
      vertex 0 83.9609 -6
    endloop
  endfacet
  facet normal -0 0 -1
    outer loop
      vertex 48.0029 40.4717 -6
      vertex 43.8662 36.9277 -6
      vertex 0 83.9609 -6
    endloop
  endfacet
  facet normal 0 0 -1
    outer loop
      vertex 51.1924 43.2061 -6
      vertex 0 83.9609 -6
      vertex 52.2568 44.1162 -6
    endloop
  endfacet
  facet normal 0 0 -1
    outer loop
      vertex 52.2568 44.1162 -6
      vertex 0 83.9609 -6
      vertex 94.0898 83.9609 -6
    endloop
  endfacet
  facet normal -0 0 -1
    outer loop
      vertex 51.1924 43.2061 -6
      vertex 48.0029 40.4717 -6
      vertex 0 83.9609 -6
    endloop
  endfacet
  facet normal 0 0 -1
    outer loop
      vertex 94.0488 81.9297 -6
      vertex 94.0059 79.8848 -6
      vertex 52.2568 44.1162 -6
    endloop
  endfacet
  facet normal 0 0 -1
    outer loop
      vertex 94.0898 83.9609 -6
      vertex 94.0488 81.9297 -6
      vertex 52.2568 44.1162 -6
    endloop
  endfacet
  facet normal 0 0 -1
    outer loop
      vertex 0 83.9609 -6
      vertex 13.6934 11.0576 -6
      vertex 12.2705 9.83398 -6
    endloop
  endfacet
  facet normal 0 0 -1
    outer loop
      vertex 10.3584 8.18945 -6
      vertex 0 83.9609 -6
      vertex 10.5693 8.36914 -6
    endloop
  endfacet
  facet normal -0 0 -1
    outer loop
      vertex 10.3174 8.14746 -6
      vertex 0 0.0400391 -6
      vertex 0 83.9609 -6
    endloop
  endfacet
  facet normal 0 0 1
    outer loop
      vertex 92.6748 15.4424 6
      vertex 54.9082 31.0693 6
      vertex 92.666 12.7979 6
    endloop
  endfacet
  facet normal -0 0 1
    outer loop
      vertex 99.8652 7.37402 6
      vertex 99.9629 7.08594 6
      vertex 99.9473 7.37402 6
    endloop
  endfacet
  facet normal 0 0 1
    outer loop
      vertex 99.6299 7.27051 6
      vertex 99.9824 6.29785 6
      vertex 99.9629 7.08594 6
    endloop
  endfacet
  facet normal 0 0 1
    outer loop
      vertex 99.8652 7.37402 6
      vertex 99.6299 7.27051 6
      vertex 99.9629 7.08594 6
    endloop
  endfacet
  facet normal -0 0 1
    outer loop
      vertex 98.834 6.98633 6
      vertex 99.9824 6.29785 6
      vertex 99.6299 7.27051 6
    endloop
  endfacet
  facet normal 0 0 1
    outer loop
      vertex 99.9941 5.13184 6
      vertex 99.9824 6.29785 6
      vertex 98.834 6.98633 6
    endloop
  endfacet
  facet normal 0 0 1
    outer loop
      vertex 99.9941 5.13184 6
      vertex 98.834 6.98633 6
      vertex 97.6758 6.56543 6
    endloop
  endfacet
  facet normal 0 0 1
    outer loop
      vertex 99.9941 5.13184 6
      vertex 97.6758 6.56543 6
      vertex 100 4.06348 6
    endloop
  endfacet
  facet normal 0 0 1
    outer loop
      vertex 97.6758 6.56543 6
      vertex 96.625 6.17773 6
      vertex 100 4.06348 6
    endloop
  endfacet
  facet normal 0 0 1
    outer loop
      vertex 96.625 6.17773 6
      vertex 96.2764 6.04785 6
      vertex 100 4.06348 6
    endloop
  endfacet
  facet normal 0 0 1
    outer loop
      vertex 96.2764 6.04785 6
      vertex 100 0.0400391 6
      vertex 100 4.06348 6
    endloop
  endfacet
  facet normal -0 0 1
    outer loop
      vertex 92.666 4.72266 6
      vertex 100 0.0400391 6
      vertex 96.2764 6.04785 6
    endloop
  endfacet
  facet normal -0 0 1
    outer loop
      vertex 16.0225 2.1416 6
      vertex 100 0.0400391 6
      vertex 92.666 4.72266 6
    endloop
  endfacet
  facet normal 0 0 1
    outer loop
      vertex 54.9082 31.0693 6
      vertex 92.666 4.72266 6
      vertex 92.666 12.7979 6
    endloop
  endfacet
  facet normal 0 0 1
    outer loop
      vertex 54.9082 31.0693 6
      vertex 92.7598 18.7578 6
      vertex 92.7002 28.877 6
    endloop
  endfacet
  facet normal 0 -0 1
    outer loop
      vertex 92.7598 18.7578 6
      vertex 92.8496 19.0527 6
      vertex 92.7002 28.877 6
    endloop
  endfacet
  facet normal 0 0 1
    outer loop
      vertex 92.7002 28.877 6
      vertex 92.71 28.8633 6
      vertex 92.707 28.8701 6
    endloop
  endfacet
  facet normal 0 0 1
    outer loop
      vertex 99.9717 24.0449 6
      vertex 94.9346 29.6328 6
      vertex 93.7852 29.2236 6
    endloop
  endfacet
  facet normal 0 0 1
    outer loop
      vertex 93.1807 18.9277 6
      vertex 92.8496 19.0527 6
      vertex 92.8701 19.043 6
    endloop
  endfacet
  facet normal 0 0 1
    outer loop
      vertex 99.9766 21.1641 6
      vertex 95.0967 18.2324 6
      vertex 96.1084 17.8652 6
    endloop
  endfacet
  facet normal -0 0 1
    outer loop
      vertex 97.7773 17.2666 6
      vertex 98.8799 16.8867 6
      vertex 99.9717 18.7949 6
    endloop
  endfacet
  facet normal 0 0 1
    outer loop
      vertex 99.9395 16.582 6
      vertex 99.6367 16.6416 6
      vertex 99.9297 16.5713 6
    endloop
  endfacet
  facet normal 0 0 1
    outer loop
      vertex 99.6367 16.6416 6
      vertex 99.9219 16.5615 6
      vertex 99.9297 16.5713 6
    endloop
  endfacet
  facet normal -0 0 1
    outer loop
      vertex 96.7783 17.6221 6
      vertex 97.7773 17.2666 6
      vertex 99.9717 18.7949 6
    endloop
  endfacet
  facet normal 0 0 1
    outer loop
      vertex 99.9551 17.1846 6
      vertex 99.6367 16.6416 6
      vertex 99.9395 16.582 6
    endloop
  endfacet
  facet normal -0 0 1
    outer loop
      vertex 98.8799 16.8867 6
      vertex 99.6367 16.6416 6
      vertex 99.9551 17.1846 6
    endloop
  endfacet
  facet normal 0 0 1
    outer loop
      vertex 98.8799 16.8867 6
      vertex 99.9551 17.1846 6
      vertex 99.9717 18.7949 6
    endloop
  endfacet
  facet normal 0 0 1
    outer loop
      vertex 96.7783 17.6221 6
      vertex 99.9717 18.7949 6
      vertex 99.9766 21.1641 6
    endloop
  endfacet
  facet normal 0 -0 1
    outer loop
      vertex 96.7783 17.6221 6
      vertex 99.9766 21.1641 6
      vertex 96.4463 17.7412 6
    endloop
  endfacet
  facet normal 0 0 1
    outer loop
      vertex 99.9766 21.1641 6
      vertex 96.1084 17.8652 6
      vertex 96.4463 17.7412 6
    endloop
  endfacet
  facet normal 0 0 1
    outer loop
      vertex 99.9727 23.3262 6
      vertex 95.0967 18.2324 6
      vertex 99.9766 21.1641 6
    endloop
  endfacet
  facet normal 0 0 1
    outer loop
      vertex 99.9727 23.3262 6
      vertex 93.9697 18.6406 6
      vertex 95.0967 18.2324 6
    endloop
  endfacet
  facet normal -0 0 1
    outer loop
      vertex 93.1807 18.9277 6
      vertex 93.9697 18.6406 6
      vertex 99.9727 23.3262 6
    endloop
  endfacet
  facet normal 0 0 1
    outer loop
      vertex 93.1807 18.9277 6
      vertex 99.9727 23.3262 6
      vertex 99.9717 24.0449 6
    endloop
  endfacet
  facet normal 0 -0 1
    outer loop
      vertex 93.1807 18.9277 6
      vertex 99.9717 24.0449 6
      vertex 92.8496 19.0527 6
    endloop
  endfacet
  facet normal 0 0 1
    outer loop
      vertex 99.9717 24.0449 6
      vertex 99.9297 31.4648 6
      vertex 96.333 30.1387 6
    endloop
  endfacet
  facet normal 0 0 1
    outer loop
      vertex 99.9717 24.0449 6
      vertex 96.333 30.1387 6
      vertex 95.9834 30.0127 6
    endloop
  endfacet
  facet normal 0 0 1
    outer loop
      vertex 92.6934 36.0342 6
      vertex 54.9082 31.0693 6
      vertex 92.6855 33.2656 6
    endloop
  endfacet
  facet normal 0 0 1
    outer loop
      vertex 99.9717 24.0449 6
      vertex 95.9834 30.0127 6
      vertex 94.9346 29.6328 6
    endloop
  endfacet
  facet normal -0 0 1
    outer loop
      vertex 93.0029 28.9551 6
      vertex 99.9717 24.0449 6
      vertex 93.7852 29.2236 6
    endloop
  endfacet
  facet normal 0 0 1
    outer loop
      vertex 92.8496 19.0527 6
      vertex 99.9717 24.0449 6
      vertex 93.0029 28.9551 6
    endloop
  endfacet
  facet normal 0 -0 1
    outer loop
      vertex 92.8496 19.0527 6
      vertex 93.0029 28.9551 6
      vertex 92.71 28.8633 6
    endloop
  endfacet
  facet normal 0 0 1
    outer loop
      vertex 92.7002 28.877 6
      vertex 92.8496 19.0527 6
      vertex 92.71 28.8633 6
    endloop
  endfacet
  facet normal 0 0 1
    outer loop
      vertex 92.6914 29.4502 6
      vertex 54.9082 31.0693 6
      vertex 92.7002 28.877 6
    endloop
  endfacet
  facet normal 0 0 1
    outer loop
      vertex 54.9082 31.0693 6
      vertex 92.7031 17.6377 6
      vertex 92.7598 18.7578 6
    endloop
  endfacet
  facet normal 0 0 1
    outer loop
      vertex 54.9082 31.0693 6
      vertex 92.6914 29.4502 6
      vertex 92.6846 30.9932 6
    endloop
  endfacet
  facet normal 0 -0 1
    outer loop
      vertex 92.6748 15.4424 6
      vertex 92.7031 17.6377 6
      vertex 54.9082 31.0693 6
    endloop
  endfacet
  facet normal 0 -0 1
    outer loop
      vertex 92.6846 30.9932 6
      vertex 92.6855 33.2656 6
      vertex 54.9082 31.0693 6
    endloop
  endfacet
  facet normal 0 0 1
    outer loop
      vertex 92.7363 43.1572 6
      vertex 54.9082 31.0693 6
      vertex 92.6934 36.0342 6
    endloop
  endfacet
  facet normal -0 0 1
    outer loop
      vertex 94.8516 42.3955 6
      vertex 95.0869 42.3115 6
      vertex 100 59.9834 6
    endloop
  endfacet
  facet normal 0 -0 1
    outer loop
      vertex 94.8516 42.3955 6
      vertex 100 59.9834 6
      vertex 93.8086 59.9834 6
    endloop
  endfacet
  facet normal -0 0 1
    outer loop
      vertex 95.7939 42.0537 6
      vertex 96.793 41.6914 6
      vertex 100 59.9834 6
    endloop
  endfacet
  facet normal -0 0 1
    outer loop
      vertex 96.793 41.6914 6
      vertex 97.7285 41.3496 6
      vertex 100 59.9834 6
    endloop
  endfacet
  facet normal -0 0 1
    outer loop
      vertex 97.7285 41.3496 6
      vertex 98.2998 41.1396 6
      vertex 100 59.9834 6
    endloop
  endfacet
  facet normal 0 0 1
    outer loop
      vertex 100 59.9834 6
      vertex 98.4912 41.0693 6
      vertex 100 40.5332 6
    endloop
  endfacet
  facet normal 0 0 1
    outer loop
      vertex 16.0225 2.1416 6
      vertex 0 0.0400391 6
      vertex 100 0.0400391 6
    endloop
  endfacet
  facet normal -0 0 1
    outer loop
      vertex 98.2998 41.1396 6
      vertex 98.4912 41.0693 6
      vertex 100 59.9834 6
    endloop
  endfacet
  facet normal 0 -0 1
    outer loop
      vertex 95.7939 42.0537 6
      vertex 100 59.9834 6
      vertex 95.0869 42.3115 6
    endloop
  endfacet
  facet normal 0 0 1
    outer loop
      vertex 94.8516 42.3955 6
      vertex 93.8086 59.9834 6
      vertex 92.7363 43.1572 6
    endloop
  endfacet
  facet normal 0 0 1
    outer loop
      vertex 93.8086 59.9834 6
      vertex 54.9082 31.0693 6
      vertex 92.7363 43.1572 6
    endloop
  endfacet
  facet normal 0 0 1
    outer loop
      vertex 11.6748 6.50391 6
      vertex 0 0.0400391 6
      vertex 12.7334 5.43066 6
    endloop
  endfacet
  facet normal 0 0 1
    outer loop
      vertex 54.9082 31.0693 6
      vertex 16.0225 2.1416 6
      vertex 92.666 4.72266 6
    endloop
  endfacet
  facet normal 0 0 1
    outer loop
      vertex 12.7334 5.43066 6
      vertex 0 0.0400391 6
      vertex 16.0225 2.1416 6
    endloop
  endfacet
  facet normal 0 0 1
    outer loop
      vertex 10.8037 7.42871 6
      vertex 0 0.0400391 6
      vertex 11.6748 6.50391 6
    endloop
  endfacet
  facet normal 0 0 1
    outer loop
      vertex 10.3867 7.9502 6
      vertex 0 0.0400391 6
      vertex 10.8037 7.42871 6
    endloop
  endfacet
  facet normal 0 0 1
    outer loop
      vertex 10.3174 8.14746 6
      vertex 0 0.0400391 6
      vertex 10.3867 7.9502 6
    endloop
  endfacet
  facet normal 0 -0 1
    outer loop
      vertex 10.3379 8.16504 6
      vertex 10.3584 8.18945 6
      vertex 10.3174 8.14746 6
    endloop
  endfacet
  facet normal 0 0 1
    outer loop
      vertex 10.3584 8.18945 6
      vertex 0 83.9609 6
      vertex 10.3174 8.14746 6
    endloop
  endfacet
  facet normal 0 -0 1
    outer loop
      vertex 10.5693 8.36914 6
      vertex 11.2217 8.93066 6
      vertex 0 83.9609 6
    endloop
  endfacet
  facet normal 0 0 1
    outer loop
      vertex 0 83.9609 6
      vertex 13.6934 11.0576 6
      vertex 15.4727 12.584 6
    endloop
  endfacet
  facet normal 0 0 1
    outer loop
      vertex 0 83.9609 6
      vertex 15.4727 12.584 6
      vertex 17.584 14.3965 6
    endloop
  endfacet
  facet normal 0 -0 1
    outer loop
      vertex 11.2217 8.93066 6
      vertex 12.2705 9.83398 6
      vertex 0 83.9609 6
    endloop
  endfacet
  facet normal 0 0 1
    outer loop
      vertex 22.7188 18.7988 6
      vertex 0 83.9609 6
      vertex 20.0059 16.4746 6
    endloop
  endfacet
  facet normal 0 0 1
    outer loop
      vertex 0 83.9609 6
      vertex 17.584 14.3965 6
      vertex 20.0059 16.4746 6
    endloop
  endfacet
  facet normal 0 0 1
    outer loop
      vertex 0 83.9609 6
      vertex 22.7188 18.7988 6
      vertex 25.6973 21.3555 6
    endloop
  endfacet
  facet normal 0 0 1
    outer loop
      vertex 36.0312 30.2139 6
      vertex 0 83.9609 6
      vertex 32.376 27.0801 6
    endloop
  endfacet
  facet normal 0 0 1
    outer loop
      vertex 0 83.9609 6
      vertex 25.6973 21.3555 6
      vertex 32.376 27.0801 6
    endloop
  endfacet
  facet normal 0 0 1
    outer loop
      vertex 43.8662 36.9277 6
      vertex 0 83.9609 6
      vertex 39.8682 33.502 6
    endloop
  endfacet
  facet normal 0 0 1
    outer loop
      vertex 0 83.9609 6
      vertex 36.0312 30.2139 6
      vertex 39.8682 33.502 6
    endloop
  endfacet
  facet normal 0 0 1
    outer loop
      vertex 0 83.9609 6
      vertex 43.8662 36.9277 6
      vertex 48.0029 40.4717 6
    endloop
  endfacet
  facet normal 0 0 1
    outer loop
      vertex 52.2568 44.1162 6
      vertex 0 83.9609 6
      vertex 51.1924 43.2061 6
    endloop
  endfacet
  facet normal 0 0 1
    outer loop
      vertex 94.0898 83.9609 6
      vertex 0 83.9609 6
      vertex 52.2568 44.1162 6
    endloop
  endfacet
  facet normal 0 0 1
    outer loop
      vertex 0 83.9609 6
      vertex 48.0029 40.4717 6
      vertex 51.1924 43.2061 6
    endloop
  endfacet
  facet normal 0 0 1
    outer loop
      vertex 52.2568 44.1162 6
      vertex 94.0059 79.8848 6
      vertex 94.0488 81.9297 6
    endloop
  endfacet
  facet normal 0 0 1
    outer loop
      vertex 52.2568 44.1162 6
      vertex 94.0488 81.9297 6
      vertex 94.0898 83.9609 6
    endloop
  endfacet
  facet normal 0 -0 1
    outer loop
      vertex 12.2705 9.83398 6
      vertex 13.6934 11.0576 6
      vertex 0 83.9609 6
    endloop
  endfacet
  facet normal 0 0 1
    outer loop
      vertex 10.5693 8.36914 6
      vertex 0 83.9609 6
      vertex 10.3584 8.18945 6
    endloop
  endfacet
  facet normal 0 0 1
    outer loop
      vertex 0 83.9609 6
      vertex 0 0.0400391 6
      vertex 10.3174 8.14746 6
    endloop
  endfacet
  facet normal 0.999985 0.0055224 0
    outer loop
      vertex 99.9941 5.13184 -6
      vertex 100 4.06348 6
      vertex 100 4.06348 -6
    endloop
  endfacet
  facet normal 0.999985 0.0055224 -0
    outer loop
      vertex 99.9941 5.13184 -6
      vertex 99.9941 5.13184 6
      vertex 100 4.06348 6
    endloop
  endfacet
  facet normal 0.99995 0.0100337 0
    outer loop
      vertex 99.9824 6.29785 -6
      vertex 99.9941 5.13184 6
      vertex 99.9941 5.13184 -6
    endloop
  endfacet
  facet normal 0.99995 0.0100337 -0
    outer loop
      vertex 99.9824 6.29785 -6
      vertex 99.9824 6.29785 6
      vertex 99.9941 5.13184 6
    endloop
  endfacet
  facet normal 0.999694 0.0247358 0
    outer loop
      vertex 99.9629 7.08594 -6
      vertex 99.9824 6.29785 6
      vertex 99.9824 6.29785 -6
    endloop
  endfacet
  facet normal 0.999694 0.0247358 -0
    outer loop
      vertex 99.9629 7.08594 -6
      vertex 99.9629 7.08594 6
      vertex 99.9824 6.29785 6
    endloop
  endfacet
  facet normal 0.998537 0.0540724 0
    outer loop
      vertex 99.9473 7.37402 -6
      vertex 99.9629 7.08594 6
      vertex 99.9629 7.08594 -6
    endloop
  endfacet
  facet normal 0.998537 0.0540724 -0
    outer loop
      vertex 99.9473 7.37402 -6
      vertex 99.9473 7.37402 6
      vertex 99.9629 7.08594 6
    endloop
  endfacet
  facet normal 0 1 0
    outer loop
      vertex 99.8652 7.37402 -6
      vertex 99.9473 7.37402 6
      vertex 99.9473 7.37402 -6
    endloop
  endfacet
  facet normal 0 1 0
    outer loop
      vertex 99.8652 7.37402 -6
      vertex 99.8652 7.37402 6
      vertex 99.9473 7.37402 6
    endloop
  endfacet
  facet normal -0.402667 0.915347 0
    outer loop
      vertex 99.6299 7.27051 -6
      vertex 99.8652 7.37402 6
      vertex 99.8652 7.37402 -6
    endloop
  endfacet
  facet normal -0.402667 0.915347 0
    outer loop
      vertex 99.6299 7.27051 -6
      vertex 99.6299 7.27051 6
      vertex 99.8652 7.37402 6
    endloop
  endfacet
  facet normal -0.336263 0.941768 0
    outer loop
      vertex 98.834 6.98633 -6
      vertex 99.6299 7.27051 6
      vertex 99.6299 7.27051 -6
    endloop
  endfacet
  facet normal -0.336263 0.941768 0
    outer loop
      vertex 98.834 6.98633 -6
      vertex 98.834 6.98633 6
      vertex 99.6299 7.27051 6
    endloop
  endfacet
  facet normal -0.341554 0.939862 0
    outer loop
      vertex 97.6758 6.56543 -6
      vertex 98.834 6.98633 6
      vertex 98.834 6.98633 -6
    endloop
  endfacet
  facet normal -0.341554 0.939862 0
    outer loop
      vertex 97.6758 6.56543 -6
      vertex 97.6758 6.56543 6
      vertex 98.834 6.98633 6
    endloop
  endfacet
  facet normal -0.346148 0.93818 0
    outer loop
      vertex 96.625 6.17773 -6
      vertex 97.6758 6.56543 6
      vertex 97.6758 6.56543 -6
    endloop
  endfacet
  facet normal -0.346148 0.93818 0
    outer loop
      vertex 96.625 6.17773 -6
      vertex 96.625 6.17773 6
      vertex 97.6758 6.56543 6
    endloop
  endfacet
  facet normal -0.349131 0.937074 0
    outer loop
      vertex 96.2764 6.04785 -6
      vertex 96.625 6.17773 6
      vertex 96.625 6.17773 -6
    endloop
  endfacet
  facet normal -0.349131 0.937074 0
    outer loop
      vertex 96.2764 6.04785 -6
      vertex 96.2764 6.04785 6
      vertex 96.625 6.17773 6
    endloop
  endfacet
  facet normal -0.34457 0.938761 0
    outer loop
      vertex 92.666 4.72266 -6
      vertex 96.2764 6.04785 6
      vertex 96.2764 6.04785 -6
    endloop
  endfacet
  facet normal -0.34457 0.938761 0
    outer loop
      vertex 92.666 4.72266 -6
      vertex 92.666 4.72266 6
      vertex 96.2764 6.04785 6
    endloop
  endfacet
  facet normal 1 0 0
    outer loop
      vertex 92.666 12.7979 -6
      vertex 92.666 4.72266 6
      vertex 92.666 4.72266 -6
    endloop
  endfacet
  facet normal 1 0 -0
    outer loop
      vertex 92.666 12.7979 -6
      vertex 92.666 12.7979 6
      vertex 92.666 4.72266 6
    endloop
  endfacet
  facet normal 0.999994 -0.00332764 0
    outer loop
      vertex 92.6748 15.4424 -6
      vertex 92.666 12.7979 6
      vertex 92.666 12.7979 -6
    endloop
  endfacet
  facet normal 0.999994 -0.00332764 0
    outer loop
      vertex 92.6748 15.4424 -6
      vertex 92.6748 15.4424 6
      vertex 92.666 12.7979 6
    endloop
  endfacet
  facet normal 0.999917 -0.0128901 0
    outer loop
      vertex 92.7031 17.6377 -6
      vertex 92.6748 15.4424 6
      vertex 92.6748 15.4424 -6
    endloop
  endfacet
  facet normal 0.999917 -0.0128901 0
    outer loop
      vertex 92.7031 17.6377 -6
      vertex 92.7031 17.6377 6
      vertex 92.6748 15.4424 6
    endloop
  endfacet
  facet normal 0.998721 -0.0505557 0
    outer loop
      vertex 92.7598 18.7578 -6
      vertex 92.7031 17.6377 6
      vertex 92.7031 17.6377 -6
    endloop
  endfacet
  facet normal 0.998721 -0.0505557 0
    outer loop
      vertex 92.7598 18.7578 -6
      vertex 92.7598 18.7578 6
      vertex 92.7031 17.6377 6
    endloop
  endfacet
  facet normal 0.956631 -0.291304 0
    outer loop
      vertex 92.8496 19.0527 -6
      vertex 92.7598 18.7578 6
      vertex 92.7598 18.7578 -6
    endloop
  endfacet
  facet normal 0.956631 -0.291304 0
    outer loop
      vertex 92.8496 19.0527 -6
      vertex 92.8496 19.0527 6
      vertex 92.7598 18.7578 6
    endloop
  endfacet
  facet normal -0.427707 -0.903917 0
    outer loop
      vertex 92.8701 19.043 -6
      vertex 92.8496 19.0527 6
      vertex 92.8496 19.0527 -6
    endloop
  endfacet
  facet normal -0.427707 -0.903917 0
    outer loop
      vertex 92.8701 19.043 -6
      vertex 92.8701 19.043 6
      vertex 92.8496 19.0527 6
    endloop
  endfacet
  facet normal -0.348012 -0.93749 0
    outer loop
      vertex 93.1807 18.9277 -6
      vertex 92.8701 19.043 6
      vertex 92.8701 19.043 -6
    endloop
  endfacet
  facet normal -0.348012 -0.93749 0
    outer loop
      vertex 93.1807 18.9277 -6
      vertex 93.1807 18.9277 6
      vertex 92.8701 19.043 6
    endloop
  endfacet
  facet normal -0.341944 -0.93972 0
    outer loop
      vertex 93.9697 18.6406 -6
      vertex 93.1807 18.9277 6
      vertex 93.1807 18.9277 -6
    endloop
  endfacet
  facet normal -0.341944 -0.93972 0
    outer loop
      vertex 93.9697 18.6406 -6
      vertex 93.9697 18.6406 6
      vertex 93.1807 18.9277 6
    endloop
  endfacet
  facet normal -0.34055 -0.940226 0
    outer loop
      vertex 95.0967 18.2324 -6
      vertex 93.9697 18.6406 6
      vertex 93.9697 18.6406 -6
    endloop
  endfacet
  facet normal -0.34055 -0.940226 0
    outer loop
      vertex 95.0967 18.2324 -6
      vertex 95.0967 18.2324 6
      vertex 93.9697 18.6406 6
    endloop
  endfacet
  facet normal -0.341176 -0.939999 0
    outer loop
      vertex 96.1084 17.8652 -6
      vertex 95.0967 18.2324 6
      vertex 95.0967 18.2324 -6
    endloop
  endfacet
  facet normal -0.341176 -0.939999 0
    outer loop
      vertex 96.1084 17.8652 -6
      vertex 96.1084 17.8652 6
      vertex 95.0967 18.2324 6
    endloop
  endfacet
  facet normal -0.344508 -0.938783 0
    outer loop
      vertex 96.4463 17.7412 -6
      vertex 96.1084 17.8652 6
      vertex 96.1084 17.8652 -6
    endloop
  endfacet
  facet normal -0.344508 -0.938783 0
    outer loop
      vertex 96.4463 17.7412 -6
      vertex 96.4463 17.7412 6
      vertex 96.1084 17.8652 6
    endloop
  endfacet
  facet normal -0.337665 -0.941266 0
    outer loop
      vertex 96.7783 17.6221 -6
      vertex 96.4463 17.7412 6
      vertex 96.4463 17.7412 -6
    endloop
  endfacet
  facet normal -0.337665 -0.941266 0
    outer loop
      vertex 96.7783 17.6221 -6
      vertex 96.7783 17.6221 6
      vertex 96.4463 17.7412 6
    endloop
  endfacet
  facet normal -0.335261 -0.942125 0
    outer loop
      vertex 97.7773 17.2666 -6
      vertex 96.7783 17.6221 6
      vertex 96.7783 17.6221 -6
    endloop
  endfacet
  facet normal -0.335261 -0.942125 0
    outer loop
      vertex 97.7773 17.2666 -6
      vertex 97.7773 17.2666 6
      vertex 96.7783 17.6221 6
    endloop
  endfacet
  facet normal -0.325755 -0.945454 0
    outer loop
      vertex 98.8799 16.8867 -6
      vertex 97.7773 17.2666 6
      vertex 97.7773 17.2666 -6
    endloop
  endfacet
  facet normal -0.325755 -0.945454 0
    outer loop
      vertex 98.8799 16.8867 -6
      vertex 98.8799 16.8867 6
      vertex 97.7773 17.2666 6
    endloop
  endfacet
  facet normal -0.308108 -0.951351 0
    outer loop
      vertex 99.6367 16.6416 -6
      vertex 98.8799 16.8867 6
      vertex 98.8799 16.8867 -6
    endloop
  endfacet
  facet normal -0.308108 -0.951351 0
    outer loop
      vertex 99.6367 16.6416 -6
      vertex 99.6367 16.6416 6
      vertex 98.8799 16.8867 6
    endloop
  endfacet
  facet normal -0.270394 -0.96275 0
    outer loop
      vertex 99.9219 16.5615 -6
      vertex 99.6367 16.6416 6
      vertex 99.6367 16.6416 -6
    endloop
  endfacet
  facet normal -0.270394 -0.96275 0
    outer loop
      vertex 99.9219 16.5615 -6
      vertex 99.9219 16.5615 6
      vertex 99.6367 16.6416 6
    endloop
  endfacet
  facet normal 0.782424 -0.622746 0
    outer loop
      vertex 99.9297 16.5713 -6
      vertex 99.9219 16.5615 6
      vertex 99.9219 16.5615 -6
    endloop
  endfacet
  facet normal 0.782424 -0.622746 0
    outer loop
      vertex 99.9297 16.5713 -6
      vertex 99.9297 16.5713 6
      vertex 99.9219 16.5615 6
    endloop
  endfacet
  facet normal 0.73744 -0.675412 0
    outer loop
      vertex 99.9395 16.582 -6
      vertex 99.9297 16.5713 6
      vertex 99.9297 16.5713 -6
    endloop
  endfacet
  facet normal 0.73744 -0.675412 0
    outer loop
      vertex 99.9395 16.582 -6
      vertex 99.9395 16.582 6
      vertex 99.9297 16.5713 6
    endloop
  endfacet
  facet normal 0.999665 -0.0258791 0
    outer loop
      vertex 99.9551 17.1846 -6
      vertex 99.9395 16.582 6
      vertex 99.9395 16.582 -6
    endloop
  endfacet
  facet normal 0.999665 -0.0258791 0
    outer loop
      vertex 99.9551 17.1846 -6
      vertex 99.9551 17.1846 6
      vertex 99.9395 16.582 6
    endloop
  endfacet
  facet normal 0.999947 -0.0103081 0
    outer loop
      vertex 99.9717 18.7949 -6
      vertex 99.9551 17.1846 6
      vertex 99.9551 17.1846 -6
    endloop
  endfacet
  facet normal 0.999947 -0.0103081 0
    outer loop
      vertex 99.9717 18.7949 -6
      vertex 99.9717 18.7949 6
      vertex 99.9551 17.1846 6
    endloop
  endfacet
  facet normal 0.999998 -0.0020682 0
    outer loop
      vertex 99.9766 21.1641 -6
      vertex 99.9717 18.7949 6
      vertex 99.9717 18.7949 -6
    endloop
  endfacet
  facet normal 0.999998 -0.0020682 0
    outer loop
      vertex 99.9766 21.1641 -6
      vertex 99.9766 21.1641 6
      vertex 99.9717 18.7949 6
    endloop
  endfacet
  facet normal 0.999998 0.0018038 0
    outer loop
      vertex 99.9727 23.3262 -6
      vertex 99.9766 21.1641 6
      vertex 99.9766 21.1641 -6
    endloop
  endfacet
  facet normal 0.999998 0.0018038 -0
    outer loop
      vertex 99.9727 23.3262 -6
      vertex 99.9727 23.3262 6
      vertex 99.9766 21.1641 6
    endloop
  endfacet
  facet normal 0.999999 0.0013914 0
    outer loop
      vertex 99.9717 24.0449 -6
      vertex 99.9727 23.3262 6
      vertex 99.9727 23.3262 -6
    endloop
  endfacet
  facet normal 0.999999 0.0013914 -0
    outer loop
      vertex 99.9717 24.0449 -6
      vertex 99.9717 24.0449 6
      vertex 99.9727 23.3262 6
    endloop
  endfacet
  facet normal 0.999984 0.00566036 0
    outer loop
      vertex 99.9297 31.4648 -6
      vertex 99.9717 24.0449 6
      vertex 99.9717 24.0449 -6
    endloop
  endfacet
  facet normal 0.999984 0.00566036 -0
    outer loop
      vertex 99.9297 31.4648 -6
      vertex 99.9297 31.4648 6
      vertex 99.9717 24.0449 6
    endloop
  endfacet
  facet normal -0.345935 0.938258 0
    outer loop
      vertex 96.333 30.1387 -6
      vertex 99.9297 31.4648 6
      vertex 99.9297 31.4648 -6
    endloop
  endfacet
  facet normal -0.345935 0.938258 0
    outer loop
      vertex 96.333 30.1387 -6
      vertex 96.333 30.1387 6
      vertex 99.9297 31.4648 6
    endloop
  endfacet
  facet normal -0.339062 0.940764 0
    outer loop
      vertex 95.9834 30.0127 -6
      vertex 96.333 30.1387 6
      vertex 96.333 30.1387 -6
    endloop
  endfacet
  facet normal -0.339062 0.940764 0
    outer loop
      vertex 95.9834 30.0127 -6
      vertex 95.9834 30.0127 6
      vertex 96.333 30.1387 6
    endloop
  endfacet
  facet normal -0.34057 0.940219 0
    outer loop
      vertex 94.9346 29.6328 -6
      vertex 95.9834 30.0127 6
      vertex 95.9834 30.0127 -6
    endloop
  endfacet
  facet normal -0.34057 0.940219 0
    outer loop
      vertex 94.9346 29.6328 -6
      vertex 94.9346 29.6328 6
      vertex 95.9834 30.0127 6
    endloop
  endfacet
  facet normal -0.335391 0.942079 0
    outer loop
      vertex 93.7852 29.2236 -6
      vertex 94.9346 29.6328 6
      vertex 94.9346 29.6328 -6
    endloop
  endfacet
  facet normal -0.335391 0.942079 0
    outer loop
      vertex 93.7852 29.2236 -6
      vertex 93.7852 29.2236 6
      vertex 94.9346 29.6328 6
    endloop
  endfacet
  facet normal -0.32463 0.945841 0
    outer loop
      vertex 93.0029 28.9551 -6
      vertex 93.7852 29.2236 6
      vertex 93.7852 29.2236 -6
    endloop
  endfacet
  facet normal -0.32463 0.945841 0
    outer loop
      vertex 93.0029 28.9551 -6
      vertex 93.0029 28.9551 6
      vertex 93.7852 29.2236 6
    endloop
  endfacet
  facet normal -0.299073 0.95423 0
    outer loop
      vertex 92.71 28.8633 -6
      vertex 93.0029 28.9551 6
      vertex 93.0029 28.9551 -6
    endloop
  endfacet
  facet normal -0.299073 0.95423 0
    outer loop
      vertex 92.71 28.8633 -6
      vertex 92.71 28.8633 6
      vertex 93.0029 28.9551 6
    endloop
  endfacet
  facet normal 0.914918 0.40364 0
    outer loop
      vertex 92.707 28.8701 -6
      vertex 92.71 28.8633 6
      vertex 92.71 28.8633 -6
    endloop
  endfacet
  facet normal 0.914918 0.40364 -0
    outer loop
      vertex 92.707 28.8701 -6
      vertex 92.707 28.8701 6
      vertex 92.71 28.8633 6
    endloop
  endfacet
  facet normal 0.712249 0.701927 0
    outer loop
      vertex 92.7002 28.877 -6
      vertex 92.707 28.8701 6
      vertex 92.707 28.8701 -6
    endloop
  endfacet
  facet normal 0.712249 0.701927 -0
    outer loop
      vertex 92.7002 28.877 -6
      vertex 92.7002 28.877 6
      vertex 92.707 28.8701 6
    endloop
  endfacet
  facet normal 0.999882 0.0153506 0
    outer loop
      vertex 92.6914 29.4502 -6
      vertex 92.7002 28.877 6
      vertex 92.7002 28.877 -6
    endloop
  endfacet
  facet normal 0.999882 0.0153506 -0
    outer loop
      vertex 92.6914 29.4502 -6
      vertex 92.6914 29.4502 6
      vertex 92.7002 28.877 6
    endloop
  endfacet
  facet normal 0.99999 0.00440696 0
    outer loop
      vertex 92.6846 30.9932 -6
      vertex 92.6914 29.4502 6
      vertex 92.6914 29.4502 -6
    endloop
  endfacet
  facet normal 0.99999 0.00440696 -0
    outer loop
      vertex 92.6846 30.9932 -6
      vertex 92.6846 30.9932 6
      vertex 92.6914 29.4502 6
    endloop
  endfacet
  facet normal 1 -0.000396057 0
    outer loop
      vertex 92.6855 33.2656 -6
      vertex 92.6846 30.9932 6
      vertex 92.6846 30.9932 -6
    endloop
  endfacet
  facet normal 1 -0.000396057 0
    outer loop
      vertex 92.6855 33.2656 -6
      vertex 92.6855 33.2656 6
      vertex 92.6846 30.9932 6
    endloop
  endfacet
  facet normal 0.999996 -0.00285342 0
    outer loop
      vertex 92.6934 36.0342 -6
      vertex 92.6855 33.2656 6
      vertex 92.6855 33.2656 -6
    endloop
  endfacet
  facet normal 0.999996 -0.00285342 0
    outer loop
      vertex 92.6934 36.0342 -6
      vertex 92.6934 36.0342 6
      vertex 92.6855 33.2656 6
    endloop
  endfacet
  facet normal 0.999982 -0.00602263 0
    outer loop
      vertex 92.7363 43.1572 -6
      vertex 92.6934 36.0342 6
      vertex 92.6934 36.0342 -6
    endloop
  endfacet
  facet normal 0.999982 -0.00602263 0
    outer loop
      vertex 92.7363 43.1572 -6
      vertex 92.7363 43.1572 6
      vertex 92.6934 36.0342 6
    endloop
  endfacet
  facet normal -0.338795 -0.94086 0
    outer loop
      vertex 94.8516 42.3955 -6
      vertex 92.7363 43.1572 6
      vertex 92.7363 43.1572 -6
    endloop
  endfacet
  facet normal -0.338795 -0.94086 0
    outer loop
      vertex 94.8516 42.3955 -6
      vertex 94.8516 42.3955 6
      vertex 92.7363 43.1572 6
    endloop
  endfacet
  facet normal -0.33621 -0.941787 0
    outer loop
      vertex 95.0869 42.3115 -6
      vertex 94.8516 42.3955 6
      vertex 94.8516 42.3955 -6
    endloop
  endfacet
  facet normal -0.33621 -0.941787 0
    outer loop
      vertex 95.0869 42.3115 -6
      vertex 95.0869 42.3115 6
      vertex 94.8516 42.3955 6
    endloop
  endfacet
  facet normal -0.342575 -0.93949 0
    outer loop
      vertex 95.7939 42.0537 -6
      vertex 95.0869 42.3115 6
      vertex 95.0869 42.3115 -6
    endloop
  endfacet
  facet normal -0.342575 -0.93949 0
    outer loop
      vertex 95.7939 42.0537 -6
      vertex 95.7939 42.0537 6
      vertex 95.0869 42.3115 6
    endloop
  endfacet
  facet normal -0.340904 -0.940098 0
    outer loop
      vertex 96.793 41.6914 -6
      vertex 95.7939 42.0537 6
      vertex 95.7939 42.0537 -6
    endloop
  endfacet
  facet normal -0.340904 -0.940098 0
    outer loop
      vertex 96.793 41.6914 -6
      vertex 96.793 41.6914 6
      vertex 95.7939 42.0537 6
    endloop
  endfacet
  facet normal -0.343178 -0.939271 0
    outer loop
      vertex 97.7285 41.3496 -6
      vertex 96.793 41.6914 6
      vertex 96.793 41.6914 -6
    endloop
  endfacet
  facet normal -0.343178 -0.939271 0
    outer loop
      vertex 97.7285 41.3496 -6
      vertex 97.7285 41.3496 6
      vertex 96.793 41.6914 6
    endloop
  endfacet
  facet normal -0.345012 -0.938598 0
    outer loop
      vertex 98.2998 41.1396 -6
      vertex 97.7285 41.3496 6
      vertex 97.7285 41.3496 -6
    endloop
  endfacet
  facet normal -0.345012 -0.938598 0
    outer loop
      vertex 98.2998 41.1396 -6
      vertex 98.2998 41.1396 6
      vertex 97.7285 41.3496 6
    endloop
  endfacet
  facet normal -0.344773 -0.938686 0
    outer loop
      vertex 98.4912 41.0693 -6
      vertex 98.2998 41.1396 6
      vertex 98.2998 41.1396 -6
    endloop
  endfacet
  facet normal -0.344773 -0.938686 0
    outer loop
      vertex 98.4912 41.0693 -6
      vertex 98.4912 41.0693 6
      vertex 98.2998 41.1396 6
    endloop
  endfacet
  facet normal -0.334809 -0.942286 0
    outer loop
      vertex 100 40.5332 -6
      vertex 98.4912 41.0693 6
      vertex 98.4912 41.0693 -6
    endloop
  endfacet
  facet normal -0.334809 -0.942286 0
    outer loop
      vertex 100 40.5332 -6
      vertex 100 40.5332 6
      vertex 98.4912 41.0693 6
    endloop
  endfacet
  facet normal 1 0 0
    outer loop
      vertex 100 59.9834 -6
      vertex 100 40.5332 6
      vertex 100 40.5332 -6
    endloop
  endfacet
  facet normal 1 0 -0
    outer loop
      vertex 100 59.9834 -6
      vertex 100 59.9834 6
      vertex 100 40.5332 6
    endloop
  endfacet
  facet normal 0 1 0
    outer loop
      vertex 93.8086 59.9834 -6
      vertex 100 59.9834 6
      vertex 100 59.9834 -6
    endloop
  endfacet
  facet normal 0 1 0
    outer loop
      vertex 93.8086 59.9834 -6
      vertex 93.8086 59.9834 6
      vertex 100 59.9834 6
    endloop
  endfacet
  facet normal -0.596545 0.802579 0
    outer loop
      vertex 54.9082 31.0693 -6
      vertex 93.8086 59.9834 6
      vertex 93.8086 59.9834 -6
    endloop
  endfacet
  facet normal -0.596545 0.802579 0
    outer loop
      vertex 54.9082 31.0693 -6
      vertex 54.9082 31.0693 6
      vertex 93.8086 59.9834 6
    endloop
  endfacet
  facet normal -0.596871 0.802337 0
    outer loop
      vertex 16.0225 2.1416 -6
      vertex 54.9082 31.0693 6
      vertex 54.9082 31.0693 -6
    endloop
  endfacet
  facet normal -0.596871 0.802337 0
    outer loop
      vertex 16.0225 2.1416 -6
      vertex 16.0225 2.1416 6
      vertex 54.9082 31.0693 6
    endloop
  endfacet
  facet normal 0.707102 0.707111 0
    outer loop
      vertex 12.7334 5.43066 -6
      vertex 16.0225 2.1416 6
      vertex 16.0225 2.1416 -6
    endloop
  endfacet
  facet normal 0.707102 0.707111 -0
    outer loop
      vertex 12.7334 5.43066 -6
      vertex 12.7334 5.43066 6
      vertex 16.0225 2.1416 6
    endloop
  endfacet
  facet normal 0.711949 0.702231 0
    outer loop
      vertex 11.6748 6.50391 -6
      vertex 12.7334 5.43066 6
      vertex 12.7334 5.43066 -6
    endloop
  endfacet
  facet normal 0.711949 0.702231 -0
    outer loop
      vertex 11.6748 6.50391 -6
      vertex 11.6748 6.50391 6
      vertex 12.7334 5.43066 6
    endloop
  endfacet
  facet normal 0.727925 0.685657 0
    outer loop
      vertex 10.8037 7.42871 -6
      vertex 11.6748 6.50391 6
      vertex 11.6748 6.50391 -6
    endloop
  endfacet
  facet normal 0.727925 0.685657 -0
    outer loop
      vertex 10.8037 7.42871 -6
      vertex 10.8037 7.42871 6
      vertex 11.6748 6.50391 6
    endloop
  endfacet
  facet normal 0.781009 0.62452 0
    outer loop
      vertex 10.3867 7.9502 -6
      vertex 10.8037 7.42871 6
      vertex 10.8037 7.42871 -6
    endloop
  endfacet
  facet normal 0.781009 0.62452 -0
    outer loop
      vertex 10.3867 7.9502 -6
      vertex 10.3867 7.9502 6
      vertex 10.8037 7.42871 6
    endloop
  endfacet
  facet normal 0.943471 0.331454 0
    outer loop
      vertex 10.3174 8.14746 -6
      vertex 10.3867 7.9502 6
      vertex 10.3867 7.9502 -6
    endloop
  endfacet
  facet normal 0.943471 0.331454 -0
    outer loop
      vertex 10.3174 8.14746 -6
      vertex 10.3174 8.14746 6
      vertex 10.3867 7.9502 6
    endloop
  endfacet
  facet normal 0.650974 -0.7591 0
    outer loop
      vertex 10.3379 8.16504 -6
      vertex 10.3174 8.14746 6
      vertex 10.3174 8.14746 -6
    endloop
  endfacet
  facet normal 0.650974 -0.7591 0
    outer loop
      vertex 10.3379 8.16504 -6
      vertex 10.3379 8.16504 6
      vertex 10.3174 8.14746 6
    endloop
  endfacet
  facet normal 0.765773 -0.643111 0
    outer loop
      vertex 10.3584 8.18945 -6
      vertex 10.3379 8.16504 6
      vertex 10.3379 8.16504 -6
    endloop
  endfacet
  facet normal 0.765773 -0.643111 0
    outer loop
      vertex 10.3584 8.18945 -6
      vertex 10.3584 8.18945 6
      vertex 10.3379 8.16504 6
    endloop
  endfacet
  facet normal 0.648538 -0.761182 0
    outer loop
      vertex 10.5693 8.36914 -6
      vertex 10.3584 8.18945 6
      vertex 10.3584 8.18945 -6
    endloop
  endfacet
  facet normal 0.648538 -0.761182 0
    outer loop
      vertex 10.5693 8.36914 -6
      vertex 10.5693 8.36914 6
      vertex 10.3584 8.18945 6
    endloop
  endfacet
  facet normal 0.652344 -0.757923 0
    outer loop
      vertex 11.2217 8.93066 -6
      vertex 10.5693 8.36914 6
      vertex 10.5693 8.36914 -6
    endloop
  endfacet
  facet normal 0.652344 -0.757923 0
    outer loop
      vertex 11.2217 8.93066 -6
      vertex 11.2217 8.93066 6
      vertex 10.5693 8.36914 6
    endloop
  endfacet
  facet normal 0.652601 -0.757702 0
    outer loop
      vertex 12.2705 9.83398 -6
      vertex 11.2217 8.93066 6
      vertex 11.2217 8.93066 -6
    endloop
  endfacet
  facet normal 0.652601 -0.757702 0
    outer loop
      vertex 12.2705 9.83398 -6
      vertex 12.2705 9.83398 6
      vertex 11.2217 8.93066 6
    endloop
  endfacet
  facet normal 0.652017 -0.758205 0
    outer loop
      vertex 13.6934 11.0576 -6
      vertex 12.2705 9.83398 6
      vertex 12.2705 9.83398 -6
    endloop
  endfacet
  facet normal 0.652017 -0.758205 0
    outer loop
      vertex 13.6934 11.0576 -6
      vertex 13.6934 11.0576 6
      vertex 12.2705 9.83398 6
    endloop
  endfacet
  facet normal 0.651107 -0.758986 0
    outer loop
      vertex 15.4727 12.584 -6
      vertex 13.6934 11.0576 6
      vertex 13.6934 11.0576 -6
    endloop
  endfacet
  facet normal 0.651107 -0.758986 0
    outer loop
      vertex 15.4727 12.584 -6
      vertex 15.4727 12.584 6
      vertex 13.6934 11.0576 6
    endloop
  endfacet
  facet normal 0.651374 -0.758757 0
    outer loop
      vertex 17.584 14.3965 -6
      vertex 15.4727 12.584 6
      vertex 15.4727 12.584 -6
    endloop
  endfacet
  facet normal 0.651374 -0.758757 0
    outer loop
      vertex 17.584 14.3965 -6
      vertex 17.584 14.3965 6
      vertex 15.4727 12.584 6
    endloop
  endfacet
  facet normal 0.651186 -0.758918 0
    outer loop
      vertex 20.0059 16.4746 -6
      vertex 17.584 14.3965 6
      vertex 17.584 14.3965 -6
    endloop
  endfacet
  facet normal 0.651186 -0.758918 0
    outer loop
      vertex 20.0059 16.4746 -6
      vertex 20.0059 16.4746 6
      vertex 17.584 14.3965 6
    endloop
  endfacet
  facet normal 0.650607 -0.759415 0
    outer loop
      vertex 22.7188 18.7988 -6
      vertex 20.0059 16.4746 6
      vertex 20.0059 16.4746 -6
    endloop
  endfacet
  facet normal 0.650607 -0.759415 0
    outer loop
      vertex 22.7188 18.7988 -6
      vertex 22.7188 18.7988 6
      vertex 20.0059 16.4746 6
    endloop
  endfacet
  facet normal 0.651335 -0.758791 0
    outer loop
      vertex 25.6973 21.3555 -6
      vertex 22.7188 18.7988 6
      vertex 22.7188 18.7988 -6
    endloop
  endfacet
  facet normal 0.651335 -0.758791 0
    outer loop
      vertex 25.6973 21.3555 -6
      vertex 25.6973 21.3555 6
      vertex 22.7188 18.7988 6
    endloop
  endfacet
  facet normal 0.650791 -0.759257 0
    outer loop
      vertex 32.376 27.0801 -6
      vertex 25.6973 21.3555 6
      vertex 25.6973 21.3555 -6
    endloop
  endfacet
  facet normal 0.650791 -0.759257 0
    outer loop
      vertex 32.376 27.0801 -6
      vertex 32.376 27.0801 6
      vertex 25.6973 21.3555 6
    endloop
  endfacet
  facet normal 0.650884 -0.759177 0
    outer loop
      vertex 36.0312 30.2139 -6
      vertex 32.376 27.0801 6
      vertex 32.376 27.0801 -6
    endloop
  endfacet
  facet normal 0.650884 -0.759177 0
    outer loop
      vertex 36.0312 30.2139 -6
      vertex 36.0312 30.2139 6
      vertex 32.376 27.0801 6
    endloop
  endfacet
  facet normal 0.650705 -0.759331 0
    outer loop
      vertex 39.8682 33.502 -6
      vertex 36.0312 30.2139 6
      vertex 36.0312 30.2139 -6
    endloop
  endfacet
  facet normal 0.650705 -0.759331 0
    outer loop
      vertex 39.8682 33.502 -6
      vertex 39.8682 33.502 6
      vertex 36.0312 30.2139 6
    endloop
  endfacet
  facet normal 0.650665 -0.759365 0
    outer loop
      vertex 43.8662 36.9277 -6
      vertex 39.8682 33.502 6
      vertex 39.8682 33.502 -6
    endloop
  endfacet
  facet normal 0.650665 -0.759365 0
    outer loop
      vertex 43.8662 36.9277 -6
      vertex 43.8662 36.9277 6
      vertex 39.8682 33.502 6
    endloop
  endfacet
  facet normal 0.650607 -0.759415 0
    outer loop
      vertex 48.0029 40.4717 -6
      vertex 43.8662 36.9277 6
      vertex 43.8662 36.9277 -6
    endloop
  endfacet
  facet normal 0.650607 -0.759415 0
    outer loop
      vertex 48.0029 40.4717 -6
      vertex 48.0029 40.4717 6
      vertex 43.8662 36.9277 6
    endloop
  endfacet
  facet normal 0.650866 -0.759193 0
    outer loop
      vertex 51.1924 43.2061 -6
      vertex 48.0029 40.4717 6
      vertex 48.0029 40.4717 -6
    endloop
  endfacet
  facet normal 0.650866 -0.759193 0
    outer loop
      vertex 51.1924 43.2061 -6
      vertex 51.1924 43.2061 6
      vertex 48.0029 40.4717 6
    endloop
  endfacet
  facet normal 0.649868 -0.760047 0
    outer loop
      vertex 52.2568 44.1162 -6
      vertex 51.1924 43.2061 6
      vertex 51.1924 43.2061 -6
    endloop
  endfacet
  facet normal 0.649868 -0.760047 0
    outer loop
      vertex 52.2568 44.1162 -6
      vertex 52.2568 44.1162 6
      vertex 51.1924 43.2061 6
    endloop
  endfacet
  facet normal 0.65062 -0.759403 0
    outer loop
      vertex 94.0059 79.8848 -6
      vertex 52.2568 44.1162 6
      vertex 52.2568 44.1162 -6
    endloop
  endfacet
  facet normal 0.65062 -0.759403 0
    outer loop
      vertex 94.0059 79.8848 -6
      vertex 94.0059 79.8848 6
      vertex 52.2568 44.1162 6
    endloop
  endfacet
  facet normal 0.99978 -0.0209744 0
    outer loop
      vertex 94.0488 81.9297 -6
      vertex 94.0059 79.8848 6
      vertex 94.0059 79.8848 -6
    endloop
  endfacet
  facet normal 0.99978 -0.0209744 0
    outer loop
      vertex 94.0488 81.9297 -6
      vertex 94.0488 81.9297 6
      vertex 94.0059 79.8848 6
    endloop
  endfacet
  facet normal 0.999796 -0.020181 0
    outer loop
      vertex 94.0898 83.9609 -6
      vertex 94.0488 81.9297 6
      vertex 94.0488 81.9297 -6
    endloop
  endfacet
  facet normal 0.999796 -0.020181 0
    outer loop
      vertex 94.0898 83.9609 -6
      vertex 94.0898 83.9609 6
      vertex 94.0488 81.9297 6
    endloop
  endfacet
  facet normal 0 1 0
    outer loop
      vertex 0 83.9609 -6
      vertex 94.0898 83.9609 6
      vertex 94.0898 83.9609 -6
    endloop
  endfacet
  facet normal 0 1 0
    outer loop
      vertex 0 83.9609 -6
      vertex 0 83.9609 6
      vertex 94.0898 83.9609 6
    endloop
  endfacet
  facet normal -1 0 0
    outer loop
      vertex 0 0.0400391 -6
      vertex 0 83.9609 6
      vertex 0 83.9609 -6
    endloop
  endfacet
  facet normal -1 0 0
    outer loop
      vertex 0 0.0400391 -6
      vertex 0 0.0400391 6
      vertex 0 83.9609 6
    endloop
  endfacet
  facet normal 0 -1 0
    outer loop
      vertex 100 0.0400391 -6
      vertex 0 0.0400391 6
      vertex 0 0.0400391 -6
    endloop
  endfacet
  facet normal 0 -1 0
    outer loop
      vertex 100 0.0400391 -6
      vertex 100 0.0400391 6
      vertex 0 0.0400391 6
    endloop
  endfacet
  facet normal 1 0 0
    outer loop
      vertex 100 4.06348 -6
      vertex 100 0.0400391 6
      vertex 100 0.0400391 -6
    endloop
  endfacet
  facet normal 1 0 -0
    outer loop
      vertex 100 4.06348 -6
      vertex 100 4.06348 6
      vertex 100 0.0400391 6
    endloop
  endfacet
endsolid OpenSCAD_Model
