solid OpenSCAD_Model
  facet normal 0 0 -1
    outer loop
      vertex 5.91016 83.9609 -6
      vertex 47.7432 44.1162 -6
      vertex 5.95215 81.9297 -6
    endloop
  endfacet
  facet normal -0 0 -1
    outer loop
      vertex 100 83.9609 -6
      vertex 47.7432 44.1162 -6
      vertex 5.91016 83.9609 -6
    endloop
  endfacet
  facet normal 0 0 -1
    outer loop
      vertex 47.7432 44.1162 -6
      vertex 5.99414 79.8848 -6
      vertex 5.95215 81.9297 -6
    endloop
  endfacet
  facet normal 0 0 -1
    outer loop
      vertex 100 83.9609 -6
      vertex 48.8057 43.2061 -6
      vertex 47.7432 44.1162 -6
    endloop
  endfacet
  facet normal 0 0 -1
    outer loop
      vertex 100 83.9609 -6
      vertex 51.9961 40.4717 -6
      vertex 48.8057 43.2061 -6
    endloop
  endfacet
  facet normal 0 0 -1
    outer loop
      vertex 100 83.9609 -6
      vertex 56.1328 36.9277 -6
      vertex 51.9961 40.4717 -6
    endloop
  endfacet
  facet normal 0 0 -1
    outer loop
      vertex 100 83.9609 -6
      vertex 60.1309 33.502 -6
      vertex 56.1328 36.9277 -6
    endloop
  endfacet
  facet normal 0 0 -1
    outer loop
      vertex 100 83.9609 -6
      vertex 63.9668 30.2139 -6
      vertex 60.1309 33.502 -6
    endloop
  endfacet
  facet normal 0 0 -1
    outer loop
      vertex 100 83.9609 -6
      vertex 67.623 27.0801 -6
      vertex 63.9668 30.2139 -6
    endloop
  endfacet
  facet normal 0 0 -1
    outer loop
      vertex 100 83.9609 -6
      vertex 71.0752 24.1211 -6
      vertex 67.623 27.0801 -6
    endloop
  endfacet
  facet normal 0 0 -1
    outer loop
      vertex 100 83.9609 -6
      vertex 74.3008 21.3555 -6
      vertex 71.0752 24.1211 -6
    endloop
  endfacet
  facet normal 0 0 -1
    outer loop
      vertex 100 83.9609 -6
      vertex 77.2803 18.7988 -6
      vertex 74.3008 21.3555 -6
    endloop
  endfacet
  facet normal 0 0 -1
    outer loop
      vertex 100 83.9609 -6
      vertex 79.9922 16.4746 -6
      vertex 77.2803 18.7988 -6
    endloop
  endfacet
  facet normal 0 0 -1
    outer loop
      vertex 100 83.9609 -6
      vertex 82.415 14.3965 -6
      vertex 79.9922 16.4746 -6
    endloop
  endfacet
  facet normal 0 0 -1
    outer loop
      vertex 100 83.9609 -6
      vertex 84.5264 12.584 -6
      vertex 82.415 14.3965 -6
    endloop
  endfacet
  facet normal 0 0 -1
    outer loop
      vertex 100 83.9609 -6
      vertex 86.3057 11.0576 -6
      vertex 84.5264 12.584 -6
    endloop
  endfacet
  facet normal 0 0 -1
    outer loop
      vertex 100 83.9609 -6
      vertex 87.7285 9.83398 -6
      vertex 86.3057 11.0576 -6
    endloop
  endfacet
  facet normal 0 0 -1
    outer loop
      vertex 100 83.9609 -6
      vertex 88.7773 8.93066 -6
      vertex 87.7285 9.83398 -6
    endloop
  endfacet
  facet normal 0 0 -1
    outer loop
      vertex 100 83.9609 -6
      vertex 89.4297 8.36914 -6
      vertex 88.7773 8.93066 -6
    endloop
  endfacet
  facet normal 0 0 -1
    outer loop
      vertex 100 83.9609 -6
      vertex 89.6396 8.18945 -6
      vertex 89.4297 8.36914 -6
    endloop
  endfacet
  facet normal 0 0 -1
    outer loop
      vertex 100 83.9609 -6
      vertex 89.6816 8.14746 -6
      vertex 89.6396 8.18945 -6
    endloop
  endfacet
  facet normal 0 0 -1
    outer loop
      vertex 89.6396 8.18945 -6
      vertex 89.6816 8.14746 -6
      vertex 89.6621 8.16504 -6
    endloop
  endfacet
  facet normal 0 -0 -1
    outer loop
      vertex 100 83.9609 -6
      vertex 100 0.0400391 -6
      vertex 89.6816 8.14746 -6
    endloop
  endfacet
  facet normal 0 -0 -1
    outer loop
      vertex 89.6816 8.14746 -6
      vertex 100 0.0400391 -6
      vertex 89.6123 7.9502 -6
    endloop
  endfacet
  facet normal 0 -0 -1
    outer loop
      vertex 89.6123 7.9502 -6
      vertex 100 0.0400391 -6
      vertex 89.1963 7.42871 -6
    endloop
  endfacet
  facet normal 0 -0 -1
    outer loop
      vertex 89.1963 7.42871 -6
      vertex 100 0.0400391 -6
      vertex 88.3242 6.50391 -6
    endloop
  endfacet
  facet normal 0 -0 -1
    outer loop
      vertex 88.3242 6.50391 -6
      vertex 100 0.0400391 -6
      vertex 87.2656 5.43066 -6
    endloop
  endfacet
  facet normal 0 -0 -1
    outer loop
      vertex 87.2656 5.43066 -6
      vertex 100 0.0400391 -6
      vertex 86.9111 5.0752 -6
    endloop
  endfacet
  facet normal 0 -0 -1
    outer loop
      vertex 86.9111 5.0752 -6
      vertex 100 0.0400391 -6
      vertex 83.9775 2.1416 -6
    endloop
  endfacet
  facet normal 0 0 -1
    outer loop
      vertex 7.29688 6.85449 -6
      vertex 7.32324 9.11426 -6
      vertex 45.0918 31.0693 -6
    endloop
  endfacet
  facet normal 0 0 -1
    outer loop
      vertex 0 40.5332 -6
      vertex 0 59.9834 -6
      vertex 1.50879 41.0693 -6
    endloop
  endfacet
  facet normal 0 0 -1
    outer loop
      vertex 45.0918 31.0693 -6
      vertex 7.30957 39.0947 -6
      vertex 7.30664 39.5889 -6
    endloop
  endfacet
  facet normal 0 0 -1
    outer loop
      vertex 45.0918 31.0693 -6
      vertex 7.30957 32.9189 -6
      vertex 7.31641 36.0068 -6
    endloop
  endfacet
  facet normal 0 0 -1
    outer loop
      vertex 1.50879 41.0693 -6
      vertex 0 59.9834 -6
      vertex 1.69922 41.1396 -6
    endloop
  endfacet
  facet normal 0 0 -1
    outer loop
      vertex 1.69922 41.1396 -6
      vertex 0 59.9834 -6
      vertex 2.27148 41.3496 -6
    endloop
  endfacet
  facet normal 0 0 -1
    outer loop
      vertex 2.27148 41.3496 -6
      vertex 0 59.9834 -6
      vertex 3.21191 41.6914 -6
    endloop
  endfacet
  facet normal 0 0 -1
    outer loop
      vertex 3.21191 41.6914 -6
      vertex 0 59.9834 -6
      vertex 4.20996 42.0537 -6
    endloop
  endfacet
  facet normal 0 0 -1
    outer loop
      vertex 4.20996 42.0537 -6
      vertex 0 59.9834 -6
      vertex 4.91406 42.3096 -6
    endloop
  endfacet
  facet normal 0 0 -1
    outer loop
      vertex 4.91406 42.3096 -6
      vertex 0 59.9834 -6
      vertex 5.14844 42.3955 -6
    endloop
  endfacet
  facet normal 0 0 -1
    outer loop
      vertex 5.14844 42.3955 -6
      vertex 0 59.9834 -6
      vertex 6.19141 59.9834 -6
    endloop
  endfacet
  facet normal 0 0 -1
    outer loop
      vertex 45.0918 31.0693 -6
      vertex 7.26367 43.1572 -6
      vertex 6.19141 59.9834 -6
    endloop
  endfacet
  facet normal -0 0 -1
    outer loop
      vertex 7.26367 43.1572 -6
      vertex 5.14844 42.3955 -6
      vertex 6.19141 59.9834 -6
    endloop
  endfacet
  facet normal 0 0 -1
    outer loop
      vertex 45.0918 31.0693 -6
      vertex 7.30664 39.5889 -6
      vertex 7.26367 43.1572 -6
    endloop
  endfacet
  facet normal 0 0 -1
    outer loop
      vertex 7.31641 36.0068 -6
      vertex 7.30957 39.0947 -6
      vertex 45.0918 31.0693 -6
    endloop
  endfacet
  facet normal 0 0 -1
    outer loop
      vertex 45.0918 31.0693 -6
      vertex 7.30664 32.4238 -6
      vertex 7.30957 32.9189 -6
    endloop
  endfacet
  facet normal -0 0 -1
    outer loop
      vertex 45.0918 31.0693 -6
      vertex 7.26367 28.8408 -6
      vertex 7.30664 32.4238 -6
    endloop
  endfacet
  facet normal 0 0 -1
    outer loop
      vertex 0.0244141 23.3262 -6
      vertex 6.03027 18.6348 -6
      vertex 4.90723 18.2256 -6
    endloop
  endfacet
  facet normal 0 0 -1
    outer loop
      vertex 0.0224609 21.1641 -6
      vertex 3.23438 17.6191 -6
      vertex 0.0273438 18.7949 -6
    endloop
  endfacet
  facet normal -0 0 -1
    outer loop
      vertex 3.66699 30.1533 -6
      vertex 0.0273438 24.0449 -6
      vertex 0.0703125 31.4512 -6
    endloop
  endfacet
  facet normal 0 -0 -1
    outer loop
      vertex 3.66699 30.1533 -6
      vertex 7.26367 28.8408 -6
      vertex 0.0273438 24.0449 -6
    endloop
  endfacet
  facet normal 0 0 -1
    outer loop
      vertex 0.0273438 18.7949 -6
      vertex 2.22949 17.2617 -6
      vertex 1.12598 16.8809 -6
    endloop
  endfacet
  facet normal 0 0 -1
    outer loop
      vertex 0.0429688 17.1846 -6
      vertex 1.12598 16.8809 -6
      vertex 0.368164 16.6396 -6
    endloop
  endfacet
  facet normal 0 0 -1
    outer loop
      vertex 0.0595703 16.582 -6
      vertex 0.368164 16.6396 -6
      vertex 0.0800781 16.5615 -6
    endloop
  endfacet
  facet normal 0 0 -1
    outer loop
      vertex 0.0595703 16.582 -6
      vertex 0.0429688 17.1846 -6
      vertex 0.368164 16.6396 -6
    endloop
  endfacet
  facet normal 0 0 -1
    outer loop
      vertex 0.0429688 17.1846 -6
      vertex 0.0273438 18.7949 -6
      vertex 1.12598 16.8809 -6
    endloop
  endfacet
  facet normal 0 0 -1
    outer loop
      vertex 45.0918 31.0693 -6
      vertex 7.23926 18.7607 -6
      vertex 7.26367 28.8408 -6
    endloop
  endfacet
  facet normal 0 0 -1
    outer loop
      vertex 45.0918 31.0693 -6
      vertex 7.33398 11.2588 -6
      vertex 7.33398 12.8477 -6
    endloop
  endfacet
  facet normal 0 0 -1
    outer loop
      vertex 0.0273438 18.7949 -6
      vertex 3.23438 17.6191 -6
      vertex 2.22949 17.2617 -6
    endloop
  endfacet
  facet normal 0 0 -1
    outer loop
      vertex 45.0918 31.0693 -6
      vertex 7.33398 12.8477 -6
      vertex 7.32422 15.4717 -6
    endloop
  endfacet
  facet normal 0 0 -1
    outer loop
      vertex 0.0224609 21.1641 -6
      vertex 3.56738 17.7412 -6
      vertex 3.23438 17.6191 -6
    endloop
  endfacet
  facet normal 0 0 -1
    outer loop
      vertex 0.0224609 21.1641 -6
      vertex 4.90723 18.2256 -6
      vertex 3.56738 17.7412 -6
    endloop
  endfacet
  facet normal 0 0 -1
    outer loop
      vertex 0.0224609 21.1641 -6
      vertex 0.0244141 23.3262 -6
      vertex 4.90723 18.2256 -6
    endloop
  endfacet
  facet normal 0 0 -1
    outer loop
      vertex 0.0244141 23.3262 -6
      vertex 6.81836 18.9258 -6
      vertex 6.03027 18.6348 -6
    endloop
  endfacet
  facet normal 0 0 -1
    outer loop
      vertex 0.0244141 23.3262 -6
      vertex 0.0273438 24.0449 -6
      vertex 6.81836 18.9258 -6
    endloop
  endfacet
  facet normal 0 0 -1
    outer loop
      vertex 6.81836 18.9258 -6
      vertex 7.15039 19.0527 -6
      vertex 7.12891 19.043 -6
    endloop
  endfacet
  facet normal 0 0 -1
    outer loop
      vertex 6.81836 18.9258 -6
      vertex 0.0273438 24.0449 -6
      vertex 7.15039 19.0527 -6
    endloop
  endfacet
  facet normal 0 0 -1
    outer loop
      vertex 7.23926 18.7607 -6
      vertex 7.15039 19.0527 -6
      vertex 7.26367 28.8408 -6
    endloop
  endfacet
  facet normal 0 0 -1
    outer loop
      vertex 7.15039 19.0527 -6
      vertex 0.0273438 24.0449 -6
      vertex 7.26367 28.8408 -6
    endloop
  endfacet
  facet normal 0 0 -1
    outer loop
      vertex 7.29492 17.6494 -6
      vertex 7.23926 18.7607 -6
      vertex 45.0918 31.0693 -6
    endloop
  endfacet
  facet normal 0 0 -1
    outer loop
      vertex 7.32422 15.4717 -6
      vertex 7.29492 17.6494 -6
      vertex 45.0918 31.0693 -6
    endloop
  endfacet
  facet normal 0 0 -1
    outer loop
      vertex 45.0918 31.0693 -6
      vertex 7.32324 9.11426 -6
      vertex 7.33398 11.2588 -6
    endloop
  endfacet
  facet normal 0 0 -1
    outer loop
      vertex 7.25488 5.37012 -6
      vertex 7.29688 6.85449 -6
      vertex 45.0918 31.0693 -6
    endloop
  endfacet
  facet normal 0 0 -1
    outer loop
      vertex 7.21777 4.83594 -6
      vertex 7.25488 5.37012 -6
      vertex 45.0918 31.0693 -6
    endloop
  endfacet
  facet normal 0 0 -1
    outer loop
      vertex 83.9775 2.1416 -6
      vertex 7.21777 4.83594 -6
      vertex 45.0918 31.0693 -6
    endloop
  endfacet
  facet normal 0 0 -1
    outer loop
      vertex 0 0.0400391 -6
      vertex 7.12598 4.83594 -6
      vertex 7.21777 4.83594 -6
    endloop
  endfacet
  facet normal 0 0 -1
    outer loop
      vertex 0 0.0400391 -6
      vertex 6.88184 4.9375 -6
      vertex 7.12598 4.83594 -6
    endloop
  endfacet
  facet normal 0 0 -1
    outer loop
      vertex 0 0.0400391 -6
      vertex 6.09375 5.21191 -6
      vertex 6.88184 4.9375 -6
    endloop
  endfacet
  facet normal 0 0 -1
    outer loop
      vertex 0 0.0400391 -6
      vertex 4.95996 5.61523 -6
      vertex 6.09375 5.21191 -6
    endloop
  endfacet
  facet normal -0 0 -1
    outer loop
      vertex 3.59668 6.10449 -6
      vertex 0 4.06348 -6
      vertex 3.25586 6.23047 -6
    endloop
  endfacet
  facet normal -0 0 -1
    outer loop
      vertex 3.25586 6.23047 -6
      vertex 0 4.06348 -6
      vertex 2.23828 6.60059 -6
    endloop
  endfacet
  facet normal 0 0 -1
    outer loop
      vertex 2.23828 6.60059 -6
      vertex 0 4.06348 -6
      vertex 0.00390625 5.13184 -6
    endloop
  endfacet
  facet normal 0 -0 -1
    outer loop
      vertex 1.11719 7.00488 -6
      vertex 2.23828 6.60059 -6
      vertex 0.00390625 5.13184 -6
    endloop
  endfacet
  facet normal 0 -0 -1
    outer loop
      vertex 0.0166016 6.29785 -6
      vertex 1.11719 7.00488 -6
      vertex 0.00390625 5.13184 -6
    endloop
  endfacet
  facet normal 0 -0 -1
    outer loop
      vertex 0.129883 7.37402 -6
      vertex 0.351562 7.27637 -6
      vertex 0.0341797 7.08594 -6
    endloop
  endfacet
  facet normal 0 -0 -1
    outer loop
      vertex 0.0341797 7.08594 -6
      vertex 0.351562 7.27637 -6
      vertex 0.0166016 6.29785 -6
    endloop
  endfacet
  facet normal 0 0 -1
    outer loop
      vertex 0.0166016 6.29785 -6
      vertex 0.351562 7.27637 -6
      vertex 1.11719 7.00488 -6
    endloop
  endfacet
  facet normal -0 0 -1
    outer loop
      vertex 0.129883 7.37402 -6
      vertex 0.0341797 7.08594 -6
      vertex 0.0507812 7.37402 -6
    endloop
  endfacet
  facet normal 0 -0 -1
    outer loop
      vertex 3.59668 6.10449 -6
      vertex 3.9375 5.9834 -6
      vertex 0 4.06348 -6
    endloop
  endfacet
  facet normal 0 0 -1
    outer loop
      vertex 0 4.06348 -6
      vertex 3.9375 5.9834 -6
      vertex 4.95996 5.61523 -6
    endloop
  endfacet
  facet normal 0 0 -1
    outer loop
      vertex 0 0.0400391 -6
      vertex 0 4.06348 -6
      vertex 4.95996 5.61523 -6
    endloop
  endfacet
  facet normal -0 0 -1
    outer loop
      vertex 83.9775 2.1416 -6
      vertex 0 0.0400391 -6
      vertex 7.21777 4.83594 -6
    endloop
  endfacet
  facet normal 0 -0 -1
    outer loop
      vertex 83.9775 2.1416 -6
      vertex 100 0.0400391 -6
      vertex 0 0.0400391 -6
    endloop
  endfacet
  facet normal -0 -0 1
    outer loop
      vertex 5.95215 81.9297 6
      vertex 47.7432 44.1162 6
      vertex 5.91016 83.9609 6
    endloop
  endfacet
  facet normal -0 0 1
    outer loop
      vertex 5.91016 83.9609 6
      vertex 47.7432 44.1162 6
      vertex 100 83.9609 6
    endloop
  endfacet
  facet normal 0 0 1
    outer loop
      vertex 5.95215 81.9297 6
      vertex 5.99414 79.8848 6
      vertex 47.7432 44.1162 6
    endloop
  endfacet
  facet normal -0 0 1
    outer loop
      vertex 47.7432 44.1162 6
      vertex 48.8057 43.2061 6
      vertex 100 83.9609 6
    endloop
  endfacet
  facet normal -0 0 1
    outer loop
      vertex 48.8057 43.2061 6
      vertex 51.9961 40.4717 6
      vertex 100 83.9609 6
    endloop
  endfacet
  facet normal -0 0 1
    outer loop
      vertex 51.9961 40.4717 6
      vertex 56.1328 36.9277 6
      vertex 100 83.9609 6
    endloop
  endfacet
  facet normal -0 0 1
    outer loop
      vertex 56.1328 36.9277 6
      vertex 60.1309 33.502 6
      vertex 100 83.9609 6
    endloop
  endfacet
  facet normal -0 0 1
    outer loop
      vertex 60.1309 33.502 6
      vertex 63.9668 30.2139 6
      vertex 100 83.9609 6
    endloop
  endfacet
  facet normal -0 0 1
    outer loop
      vertex 63.9668 30.2139 6
      vertex 67.623 27.0801 6
      vertex 100 83.9609 6
    endloop
  endfacet
  facet normal -0 0 1
    outer loop
      vertex 67.623 27.0801 6
      vertex 71.0752 24.1211 6
      vertex 100 83.9609 6
    endloop
  endfacet
  facet normal -0 0 1
    outer loop
      vertex 71.0752 24.1211 6
      vertex 74.3008 21.3555 6
      vertex 100 83.9609 6
    endloop
  endfacet
  facet normal -0 0 1
    outer loop
      vertex 74.3008 21.3555 6
      vertex 77.2803 18.7988 6
      vertex 100 83.9609 6
    endloop
  endfacet
  facet normal -0 0 1
    outer loop
      vertex 77.2803 18.7988 6
      vertex 79.9922 16.4746 6
      vertex 100 83.9609 6
    endloop
  endfacet
  facet normal -0 0 1
    outer loop
      vertex 79.9922 16.4746 6
      vertex 82.415 14.3965 6
      vertex 100 83.9609 6
    endloop
  endfacet
  facet normal -0 0 1
    outer loop
      vertex 82.415 14.3965 6
      vertex 84.5264 12.584 6
      vertex 100 83.9609 6
    endloop
  endfacet
  facet normal -0 0 1
    outer loop
      vertex 84.5264 12.584 6
      vertex 86.3057 11.0576 6
      vertex 100 83.9609 6
    endloop
  endfacet
  facet normal -0 0 1
    outer loop
      vertex 86.3057 11.0576 6
      vertex 87.7285 9.83398 6
      vertex 100 83.9609 6
    endloop
  endfacet
  facet normal -0 0 1
    outer loop
      vertex 87.7285 9.83398 6
      vertex 88.7773 8.93066 6
      vertex 100 83.9609 6
    endloop
  endfacet
  facet normal -0 0 1
    outer loop
      vertex 88.7773 8.93066 6
      vertex 89.4297 8.36914 6
      vertex 100 83.9609 6
    endloop
  endfacet
  facet normal -0 0 1
    outer loop
      vertex 89.4297 8.36914 6
      vertex 89.6396 8.18945 6
      vertex 100 83.9609 6
    endloop
  endfacet
  facet normal -0 0 1
    outer loop
      vertex 89.6396 8.18945 6
      vertex 89.6816 8.14746 6
      vertex 100 83.9609 6
    endloop
  endfacet
  facet normal -0 -0 1
    outer loop
      vertex 89.6621 8.16504 6
      vertex 89.6816 8.14746 6
      vertex 89.6396 8.18945 6
    endloop
  endfacet
  facet normal -0 0 1
    outer loop
      vertex 89.6816 8.14746 6
      vertex 100 0.0400391 6
      vertex 100 83.9609 6
    endloop
  endfacet
  facet normal -0 0 1
    outer loop
      vertex 89.6123 7.9502 6
      vertex 100 0.0400391 6
      vertex 89.6816 8.14746 6
    endloop
  endfacet
  facet normal -0 0 1
    outer loop
      vertex 89.1963 7.42871 6
      vertex 100 0.0400391 6
      vertex 89.6123 7.9502 6
    endloop
  endfacet
  facet normal -0 0 1
    outer loop
      vertex 88.3242 6.50391 6
      vertex 100 0.0400391 6
      vertex 89.1963 7.42871 6
    endloop
  endfacet
  facet normal -0 0 1
    outer loop
      vertex 87.2656 5.43066 6
      vertex 100 0.0400391 6
      vertex 88.3242 6.50391 6
    endloop
  endfacet
  facet normal -0 0 1
    outer loop
      vertex 86.9111 5.0752 6
      vertex 100 0.0400391 6
      vertex 87.2656 5.43066 6
    endloop
  endfacet
  facet normal -0 0 1
    outer loop
      vertex 83.9775 2.1416 6
      vertex 100 0.0400391 6
      vertex 86.9111 5.0752 6
    endloop
  endfacet
  facet normal 0 0 1
    outer loop
      vertex 45.0918 31.0693 6
      vertex 7.32324 9.11426 6
      vertex 7.29688 6.85449 6
    endloop
  endfacet
  facet normal 0 0 1
    outer loop
      vertex 1.50879 41.0693 6
      vertex 0 59.9834 6
      vertex 0 40.5332 6
    endloop
  endfacet
  facet normal 0 0 1
    outer loop
      vertex 7.30664 39.5889 6
      vertex 7.30957 39.0947 6
      vertex 45.0918 31.0693 6
    endloop
  endfacet
  facet normal 0 0 1
    outer loop
      vertex 7.31641 36.0068 6
      vertex 7.30957 32.9189 6
      vertex 45.0918 31.0693 6
    endloop
  endfacet
  facet normal 0 0 1
    outer loop
      vertex 1.69922 41.1396 6
      vertex 0 59.9834 6
      vertex 1.50879 41.0693 6
    endloop
  endfacet
  facet normal 0 0 1
    outer loop
      vertex 2.27148 41.3496 6
      vertex 0 59.9834 6
      vertex 1.69922 41.1396 6
    endloop
  endfacet
  facet normal 0 0 1
    outer loop
      vertex 3.21191 41.6914 6
      vertex 0 59.9834 6
      vertex 2.27148 41.3496 6
    endloop
  endfacet
  facet normal 0 0 1
    outer loop
      vertex 4.20996 42.0537 6
      vertex 0 59.9834 6
      vertex 3.21191 41.6914 6
    endloop
  endfacet
  facet normal 0 0 1
    outer loop
      vertex 4.91406 42.3096 6
      vertex 0 59.9834 6
      vertex 4.20996 42.0537 6
    endloop
  endfacet
  facet normal 0 0 1
    outer loop
      vertex 5.14844 42.3955 6
      vertex 0 59.9834 6
      vertex 4.91406 42.3096 6
    endloop
  endfacet
  facet normal 0 0 1
    outer loop
      vertex 6.19141 59.9834 6
      vertex 0 59.9834 6
      vertex 5.14844 42.3955 6
    endloop
  endfacet
  facet normal 0 0 1
    outer loop
      vertex 6.19141 59.9834 6
      vertex 7.26367 43.1572 6
      vertex 45.0918 31.0693 6
    endloop
  endfacet
  facet normal 0 0 1
    outer loop
      vertex 6.19141 59.9834 6
      vertex 5.14844 42.3955 6
      vertex 7.26367 43.1572 6
    endloop
  endfacet
  facet normal 0 0 1
    outer loop
      vertex 7.26367 43.1572 6
      vertex 7.30664 39.5889 6
      vertex 45.0918 31.0693 6
    endloop
  endfacet
  facet normal 0 0 1
    outer loop
      vertex 45.0918 31.0693 6
      vertex 7.30957 39.0947 6
      vertex 7.31641 36.0068 6
    endloop
  endfacet
  facet normal 0 0 1
    outer loop
      vertex 7.30957 32.9189 6
      vertex 7.30664 32.4238 6
      vertex 45.0918 31.0693 6
    endloop
  endfacet
  facet normal 0 0 1
    outer loop
      vertex 7.30664 32.4238 6
      vertex 7.26367 28.8408 6
      vertex 45.0918 31.0693 6
    endloop
  endfacet
  facet normal 0 -0 1
    outer loop
      vertex 4.90723 18.2256 6
      vertex 6.03027 18.6348 6
      vertex 0.0244141 23.3262 6
    endloop
  endfacet
  facet normal -0 -0 1
    outer loop
      vertex 0.0273438 18.7949 6
      vertex 3.23438 17.6191 6
      vertex 0.0224609 21.1641 6
    endloop
  endfacet
  facet normal 0 0 1
    outer loop
      vertex 0.0703125 31.4512 6
      vertex 0.0273438 24.0449 6
      vertex 3.66699 30.1533 6
    endloop
  endfacet
  facet normal 0 0 1
    outer loop
      vertex 0.0273438 24.0449 6
      vertex 7.26367 28.8408 6
      vertex 3.66699 30.1533 6
    endloop
  endfacet
  facet normal 0 -0 1
    outer loop
      vertex 1.12598 16.8809 6
      vertex 2.22949 17.2617 6
      vertex 0.0273438 18.7949 6
    endloop
  endfacet
  facet normal 0 -0 1
    outer loop
      vertex 0.368164 16.6396 6
      vertex 1.12598 16.8809 6
      vertex 0.0429688 17.1846 6
    endloop
  endfacet
  facet normal 0 -0 1
    outer loop
      vertex 0.0800781 16.5615 6
      vertex 0.368164 16.6396 6
      vertex 0.0595703 16.582 6
    endloop
  endfacet
  facet normal 0 0 1
    outer loop
      vertex 0.368164 16.6396 6
      vertex 0.0429688 17.1846 6
      vertex 0.0595703 16.582 6
    endloop
  endfacet
  facet normal 0 0 1
    outer loop
      vertex 1.12598 16.8809 6
      vertex 0.0273438 18.7949 6
      vertex 0.0429688 17.1846 6
    endloop
  endfacet
  facet normal -0 0 1
    outer loop
      vertex 7.26367 28.8408 6
      vertex 7.23926 18.7607 6
      vertex 45.0918 31.0693 6
    endloop
  endfacet
  facet normal -0 0 1
    outer loop
      vertex 7.33398 12.8477 6
      vertex 7.33398 11.2588 6
      vertex 45.0918 31.0693 6
    endloop
  endfacet
  facet normal 0 -0 1
    outer loop
      vertex 2.22949 17.2617 6
      vertex 3.23438 17.6191 6
      vertex 0.0273438 18.7949 6
    endloop
  endfacet
  facet normal -0 0 1
    outer loop
      vertex 7.32422 15.4717 6
      vertex 7.33398 12.8477 6
      vertex 45.0918 31.0693 6
    endloop
  endfacet
  facet normal 0 -0 1
    outer loop
      vertex 3.23438 17.6191 6
      vertex 3.56738 17.7412 6
      vertex 0.0224609 21.1641 6
    endloop
  endfacet
  facet normal 0 -0 1
    outer loop
      vertex 3.56738 17.7412 6
      vertex 4.90723 18.2256 6
      vertex 0.0224609 21.1641 6
    endloop
  endfacet
  facet normal 0 0 1
    outer loop
      vertex 4.90723 18.2256 6
      vertex 0.0244141 23.3262 6
      vertex 0.0224609 21.1641 6
    endloop
  endfacet
  facet normal 0 -0 1
    outer loop
      vertex 6.03027 18.6348 6
      vertex 6.81836 18.9258 6
      vertex 0.0244141 23.3262 6
    endloop
  endfacet
  facet normal 0 0 1
    outer loop
      vertex 6.81836 18.9258 6
      vertex 0.0273438 24.0449 6
      vertex 0.0244141 23.3262 6
    endloop
  endfacet
  facet normal 0 -0 1
    outer loop
      vertex 7.12891 19.043 6
      vertex 7.15039 19.0527 6
      vertex 6.81836 18.9258 6
    endloop
  endfacet
  facet normal 0 0 1
    outer loop
      vertex 7.15039 19.0527 6
      vertex 0.0273438 24.0449 6
      vertex 6.81836 18.9258 6
    endloop
  endfacet
  facet normal 0 0 1
    outer loop
      vertex 7.26367 28.8408 6
      vertex 7.15039 19.0527 6
      vertex 7.23926 18.7607 6
    endloop
  endfacet
  facet normal 0 0 1
    outer loop
      vertex 7.26367 28.8408 6
      vertex 0.0273438 24.0449 6
      vertex 7.15039 19.0527 6
    endloop
  endfacet
  facet normal 0 0 1
    outer loop
      vertex 45.0918 31.0693 6
      vertex 7.23926 18.7607 6
      vertex 7.29492 17.6494 6
    endloop
  endfacet
  facet normal 0 0 1
    outer loop
      vertex 45.0918 31.0693 6
      vertex 7.29492 17.6494 6
      vertex 7.32422 15.4717 6
    endloop
  endfacet
  facet normal -0 0 1
    outer loop
      vertex 7.33398 11.2588 6
      vertex 7.32324 9.11426 6
      vertex 45.0918 31.0693 6
    endloop
  endfacet
  facet normal 0 0 1
    outer loop
      vertex 45.0918 31.0693 6
      vertex 7.29688 6.85449 6
      vertex 7.25488 5.37012 6
    endloop
  endfacet
  facet normal 0 0 1
    outer loop
      vertex 45.0918 31.0693 6
      vertex 7.25488 5.37012 6
      vertex 7.21777 4.83594 6
    endloop
  endfacet
  facet normal 0 0 1
    outer loop
      vertex 45.0918 31.0693 6
      vertex 7.21777 4.83594 6
      vertex 83.9775 2.1416 6
    endloop
  endfacet
  facet normal 0 0 1
    outer loop
      vertex 7.21777 4.83594 6
      vertex 7.12598 4.83594 6
      vertex 0 0.0400391 6
    endloop
  endfacet
  facet normal 0 0 1
    outer loop
      vertex 7.12598 4.83594 6
      vertex 6.88184 4.9375 6
      vertex 0 0.0400391 6
    endloop
  endfacet
  facet normal 0 0 1
    outer loop
      vertex 6.88184 4.9375 6
      vertex 6.09375 5.21191 6
      vertex 0 0.0400391 6
    endloop
  endfacet
  facet normal 0 0 1
    outer loop
      vertex 6.09375 5.21191 6
      vertex 4.95996 5.61523 6
      vertex 0 0.0400391 6
    endloop
  endfacet
  facet normal 0 0 1
    outer loop
      vertex 3.25586 6.23047 6
      vertex 0 4.06348 6
      vertex 3.59668 6.10449 6
    endloop
  endfacet
  facet normal 0 0 1
    outer loop
      vertex 2.23828 6.60059 6
      vertex 0 4.06348 6
      vertex 3.25586 6.23047 6
    endloop
  endfacet
  facet normal -0 0 1
    outer loop
      vertex 0.00390625 5.13184 6
      vertex 0 4.06348 6
      vertex 2.23828 6.60059 6
    endloop
  endfacet
  facet normal 0 0 1
    outer loop
      vertex 0.00390625 5.13184 6
      vertex 2.23828 6.60059 6
      vertex 1.11719 7.00488 6
    endloop
  endfacet
  facet normal 0 0 1
    outer loop
      vertex 0.00390625 5.13184 6
      vertex 1.11719 7.00488 6
      vertex 0.0166016 6.29785 6
    endloop
  endfacet
  facet normal 0 0 1
    outer loop
      vertex 0.0341797 7.08594 6
      vertex 0.351562 7.27637 6
      vertex 0.129883 7.37402 6
    endloop
  endfacet
  facet normal 0 0 1
    outer loop
      vertex 0.0166016 6.29785 6
      vertex 0.351562 7.27637 6
      vertex 0.0341797 7.08594 6
    endloop
  endfacet
  facet normal 0 0 1
    outer loop
      vertex 1.11719 7.00488 6
      vertex 0.351562 7.27637 6
      vertex 0.0166016 6.29785 6
    endloop
  endfacet
  facet normal -0 0 1
    outer loop
      vertex 0.0507812 7.37402 6
      vertex 0.0341797 7.08594 6
      vertex 0.129883 7.37402 6
    endloop
  endfacet
  facet normal 0 0 1
    outer loop
      vertex 0 4.06348 6
      vertex 3.9375 5.9834 6
      vertex 3.59668 6.10449 6
    endloop
  endfacet
  facet normal 0 0 1
    outer loop
      vertex 4.95996 5.61523 6
      vertex 3.9375 5.9834 6
      vertex 0 4.06348 6
    endloop
  endfacet
  facet normal 0 0 1
    outer loop
      vertex 4.95996 5.61523 6
      vertex 0 4.06348 6
      vertex 0 0.0400391 6
    endloop
  endfacet
  facet normal 0 0 1
    outer loop
      vertex 7.21777 4.83594 6
      vertex 0 0.0400391 6
      vertex 83.9775 2.1416 6
    endloop
  endfacet
  facet normal 0 0 1
    outer loop
      vertex 0 0.0400391 6
      vertex 100 0.0400391 6
      vertex 83.9775 2.1416 6
    endloop
  endfacet
  facet normal 0 1 0
    outer loop
      vertex 5.91016 83.9609 -6
      vertex 100 83.9609 6
      vertex 100 83.9609 -6
    endloop
  endfacet
  facet normal 0 1 0
    outer loop
      vertex 5.91016 83.9609 -6
      vertex 5.91016 83.9609 6
      vertex 100 83.9609 6
    endloop
  endfacet
  facet normal -0.999786 -0.0206681 0
    outer loop
      vertex 5.95215 81.9297 -6
      vertex 5.91016 83.9609 6
      vertex 5.91016 83.9609 -6
    endloop
  endfacet
  facet normal -0.999786 -0.0206681 0
    outer loop
      vertex 5.95215 81.9297 -6
      vertex 5.95215 81.9297 6
      vertex 5.91016 83.9609 6
    endloop
  endfacet
  facet normal -0.999789 -0.0205297 0
    outer loop
      vertex 5.99414 79.8848 -6
      vertex 5.95215 81.9297 6
      vertex 5.95215 81.9297 -6
    endloop
  endfacet
  facet normal -0.999789 -0.0205297 0
    outer loop
      vertex 5.99414 79.8848 -6
      vertex 5.99414 79.8848 6
      vertex 5.95215 81.9297 6
    endloop
  endfacet
  facet normal -0.65062 -0.759403 0
    outer loop
      vertex 47.7432 44.1162 -6
      vertex 5.99414 79.8848 6
      vertex 5.99414 79.8848 -6
    endloop
  endfacet
  facet normal -0.65062 -0.759403 0
    outer loop
      vertex 47.7432 44.1162 -6
      vertex 47.7432 44.1162 6
      vertex 5.99414 79.8848 6
    endloop
  endfacet
  facet normal -0.650538 -0.759474 0
    outer loop
      vertex 48.8057 43.2061 -6
      vertex 47.7432 44.1162 6
      vertex 47.7432 44.1162 -6
    endloop
  endfacet
  facet normal -0.650538 -0.759474 0
    outer loop
      vertex 48.8057 43.2061 -6
      vertex 48.8057 43.2061 6
      vertex 47.7432 44.1162 6
    endloop
  endfacet
  facet normal -0.65076 -0.759283 0
    outer loop
      vertex 51.9961 40.4717 -6
      vertex 48.8057 43.2061 6
      vertex 48.8057 43.2061 -6
    endloop
  endfacet
  facet normal -0.65076 -0.759283 0
    outer loop
      vertex 51.9961 40.4717 -6
      vertex 51.9961 40.4717 6
      vertex 48.8057 43.2061 6
    endloop
  endfacet
  facet normal -0.650607 -0.759415 0
    outer loop
      vertex 56.1328 36.9277 -6
      vertex 51.9961 40.4717 6
      vertex 51.9961 40.4717 -6
    endloop
  endfacet
  facet normal -0.650607 -0.759415 0
    outer loop
      vertex 56.1328 36.9277 -6
      vertex 56.1328 36.9277 6
      vertex 51.9961 40.4717 6
    endloop
  endfacet
  facet normal -0.650655 -0.759373 0
    outer loop
      vertex 60.1309 33.502 -6
      vertex 56.1328 36.9277 6
      vertex 56.1328 36.9277 -6
    endloop
  endfacet
  facet normal -0.650655 -0.759373 0
    outer loop
      vertex 60.1309 33.502 -6
      vertex 60.1309 33.502 6
      vertex 56.1328 36.9277 6
    endloop
  endfacet
  facet normal -0.650813 -0.759238 0
    outer loop
      vertex 63.9668 30.2139 -6
      vertex 60.1309 33.502 6
      vertex 60.1309 33.502 -6
    endloop
  endfacet
  facet normal -0.650813 -0.759238 0
    outer loop
      vertex 63.9668 30.2139 -6
      vertex 63.9668 30.2139 6
      vertex 60.1309 33.502 6
    endloop
  endfacet
  facet normal -0.650781 -0.759265 0
    outer loop
      vertex 67.623 27.0801 -6
      vertex 63.9668 30.2139 6
      vertex 63.9668 30.2139 -6
    endloop
  endfacet
  facet normal -0.650781 -0.759265 0
    outer loop
      vertex 67.623 27.0801 -6
      vertex 67.623 27.0801 6
      vertex 63.9668 30.2139 6
    endloop
  endfacet
  facet normal -0.650788 -0.75926 0
    outer loop
      vertex 71.0752 24.1211 -6
      vertex 67.623 27.0801 6
      vertex 67.623 27.0801 -6
    endloop
  endfacet
  facet normal -0.650788 -0.75926 0
    outer loop
      vertex 71.0752 24.1211 -6
      vertex 71.0752 24.1211 6
      vertex 67.623 27.0801 6
    endloop
  endfacet
  facet normal -0.6509 -0.759164 0
    outer loop
      vertex 74.3008 21.3555 -6
      vertex 71.0752 24.1211 6
      vertex 71.0752 24.1211 -6
    endloop
  endfacet
  facet normal -0.6509 -0.759164 0
    outer loop
      vertex 74.3008 21.3555 -6
      vertex 74.3008 21.3555 6
      vertex 71.0752 24.1211 6
    endloop
  endfacet
  facet normal -0.651209 -0.758899 0
    outer loop
      vertex 77.2803 18.7988 -6
      vertex 74.3008 21.3555 6
      vertex 74.3008 21.3555 -6
    endloop
  endfacet
  facet normal -0.651209 -0.758899 0
    outer loop
      vertex 77.2803 18.7988 -6
      vertex 77.2803 18.7988 6
      vertex 74.3008 21.3555 6
    endloop
  endfacet
  facet normal -0.650745 -0.759296 0
    outer loop
      vertex 79.9922 16.4746 -6
      vertex 77.2803 18.7988 6
      vertex 77.2803 18.7988 -6
    endloop
  endfacet
  facet normal -0.650745 -0.759296 0
    outer loop
      vertex 79.9922 16.4746 -6
      vertex 79.9922 16.4746 6
      vertex 77.2803 18.7988 6
    endloop
  endfacet
  facet normal -0.651047 -0.759038 0
    outer loop
      vertex 82.415 14.3965 -6
      vertex 79.9922 16.4746 6
      vertex 79.9922 16.4746 -6
    endloop
  endfacet
  facet normal -0.651047 -0.759038 0
    outer loop
      vertex 82.415 14.3965 -6
      vertex 82.415 14.3965 6
      vertex 79.9922 16.4746 6
    endloop
  endfacet
  facet normal -0.651356 -0.758772 0
    outer loop
      vertex 84.5264 12.584 -6
      vertex 82.415 14.3965 6
      vertex 82.415 14.3965 -6
    endloop
  endfacet
  facet normal -0.651356 -0.758772 0
    outer loop
      vertex 84.5264 12.584 -6
      vertex 84.5264 12.584 6
      vertex 82.415 14.3965 6
    endloop
  endfacet
  facet normal -0.651107 -0.758986 0
    outer loop
      vertex 86.3057 11.0576 -6
      vertex 84.5264 12.584 6
      vertex 84.5264 12.584 -6
    endloop
  endfacet
  facet normal -0.651107 -0.758986 0
    outer loop
      vertex 86.3057 11.0576 -6
      vertex 86.3057 11.0576 6
      vertex 84.5264 12.584 6
    endloop
  endfacet
  facet normal -0.652043 -0.758182 0
    outer loop
      vertex 87.7285 9.83398 -6
      vertex 86.3057 11.0576 6
      vertex 86.3057 11.0576 -6
    endloop
  endfacet
  facet normal -0.652043 -0.758182 0
    outer loop
      vertex 87.7285 9.83398 -6
      vertex 87.7285 9.83398 6
      vertex 86.3057 11.0576 6
    endloop
  endfacet
  facet normal -0.652601 -0.757702 0
    outer loop
      vertex 88.7773 8.93066 -6
      vertex 87.7285 9.83398 6
      vertex 87.7285 9.83398 -6
    endloop
  endfacet
  facet normal -0.652601 -0.757702 0
    outer loop
      vertex 88.7773 8.93066 -6
      vertex 88.7773 8.93066 6
      vertex 87.7285 9.83398 6
    endloop
  endfacet
  facet normal -0.652344 -0.757923 0
    outer loop
      vertex 89.4297 8.36914 -6
      vertex 88.7773 8.93066 6
      vertex 88.7773 8.93066 -6
    endloop
  endfacet
  facet normal -0.652344 -0.757923 0
    outer loop
      vertex 89.4297 8.36914 -6
      vertex 89.4297 8.36914 6
      vertex 88.7773 8.93066 6
    endloop
  endfacet
  facet normal -0.650323 -0.759658 0
    outer loop
      vertex 89.6396 8.18945 -6
      vertex 89.4297 8.36914 6
      vertex 89.4297 8.36914 -6
    endloop
  endfacet
  facet normal -0.650323 -0.759658 0
    outer loop
      vertex 89.6396 8.18945 -6
      vertex 89.6396 8.18945 6
      vertex 89.4297 8.36914 6
    endloop
  endfacet
  facet normal -0.735288 -0.677754 0
    outer loop
      vertex 89.6621 8.16504 -6
      vertex 89.6396 8.18945 6
      vertex 89.6396 8.18945 -6
    endloop
  endfacet
  facet normal -0.735288 -0.677754 0
    outer loop
      vertex 89.6621 8.16504 -6
      vertex 89.6621 8.16504 6
      vertex 89.6396 8.18945 6
    endloop
  endfacet
  facet normal -0.669596 -0.742726 0
    outer loop
      vertex 89.6816 8.14746 -6
      vertex 89.6621 8.16504 6
      vertex 89.6621 8.16504 -6
    endloop
  endfacet
  facet normal -0.669596 -0.742726 0
    outer loop
      vertex 89.6816 8.14746 -6
      vertex 89.6816 8.14746 6
      vertex 89.6621 8.16504 6
    endloop
  endfacet
  facet normal -0.943471 0.331454 0
    outer loop
      vertex 89.6123 7.9502 -6
      vertex 89.6816 8.14746 6
      vertex 89.6816 8.14746 -6
    endloop
  endfacet
  facet normal -0.943471 0.331454 0
    outer loop
      vertex 89.6123 7.9502 -6
      vertex 89.6123 7.9502 6
      vertex 89.6816 8.14746 6
    endloop
  endfacet
  facet normal -0.78174 0.623605 0
    outer loop
      vertex 89.1963 7.42871 -6
      vertex 89.6123 7.9502 6
      vertex 89.6123 7.9502 -6
    endloop
  endfacet
  facet normal -0.78174 0.623605 0
    outer loop
      vertex 89.1963 7.42871 -6
      vertex 89.1963 7.42871 6
      vertex 89.6123 7.9502 6
    endloop
  endfacet
  facet normal -0.727532 0.686074 0
    outer loop
      vertex 88.3242 6.50391 -6
      vertex 89.1963 7.42871 6
      vertex 89.1963 7.42871 -6
    endloop
  endfacet
  facet normal -0.727532 0.686074 0
    outer loop
      vertex 88.3242 6.50391 -6
      vertex 88.3242 6.50391 6
      vertex 89.1963 7.42871 6
    endloop
  endfacet
  facet normal -0.711949 0.702231 0
    outer loop
      vertex 87.2656 5.43066 -6
      vertex 88.3242 6.50391 6
      vertex 88.3242 6.50391 -6
    endloop
  endfacet
  facet normal -0.711949 0.702231 0
    outer loop
      vertex 87.2656 5.43066 -6
      vertex 87.2656 5.43066 6
      vertex 88.3242 6.50391 6
    endloop
  endfacet
  facet normal -0.708062 0.70615 0
    outer loop
      vertex 86.9111 5.0752 -6
      vertex 87.2656 5.43066 6
      vertex 87.2656 5.43066 -6
    endloop
  endfacet
  facet normal -0.708062 0.70615 0
    outer loop
      vertex 86.9111 5.0752 -6
      vertex 86.9111 5.0752 6
      vertex 87.2656 5.43066 6
    endloop
  endfacet
  facet normal -0.707107 0.707107 0
    outer loop
      vertex 83.9775 2.1416 -6
      vertex 86.9111 5.0752 6
      vertex 86.9111 5.0752 -6
    endloop
  endfacet
  facet normal -0.707107 0.707107 0
    outer loop
      vertex 83.9775 2.1416 -6
      vertex 83.9775 2.1416 6
      vertex 86.9111 5.0752 6
    endloop
  endfacet
  facet normal 0.596871 0.802337 0
    outer loop
      vertex 45.0918 31.0693 -6
      vertex 83.9775 2.1416 6
      vertex 83.9775 2.1416 -6
    endloop
  endfacet
  facet normal 0.596871 0.802337 -0
    outer loop
      vertex 45.0918 31.0693 -6
      vertex 45.0918 31.0693 6
      vertex 83.9775 2.1416 6
    endloop
  endfacet
  facet normal 0.596546 0.802579 0
    outer loop
      vertex 6.19141 59.9834 -6
      vertex 45.0918 31.0693 6
      vertex 45.0918 31.0693 -6
    endloop
  endfacet
  facet normal 0.596546 0.802579 -0
    outer loop
      vertex 6.19141 59.9834 -6
      vertex 6.19141 59.9834 6
      vertex 45.0918 31.0693 6
    endloop
  endfacet
  facet normal 0 1 0
    outer loop
      vertex 0 59.9834 -6
      vertex 6.19141 59.9834 6
      vertex 6.19141 59.9834 -6
    endloop
  endfacet
  facet normal 0 1 0
    outer loop
      vertex 0 59.9834 -6
      vertex 0 59.9834 6
      vertex 6.19141 59.9834 6
    endloop
  endfacet
  facet normal -1 0 0
    outer loop
      vertex 0 40.5332 -6
      vertex 0 59.9834 6
      vertex 0 59.9834 -6
    endloop
  endfacet
  facet normal -1 0 0
    outer loop
      vertex 0 40.5332 -6
      vertex 0 40.5332 6
      vertex 0 59.9834 6
    endloop
  endfacet
  facet normal 0.334811 -0.942285 0
    outer loop
      vertex 1.50879 41.0693 -6
      vertex 0 40.5332 6
      vertex 0 40.5332 -6
    endloop
  endfacet
  facet normal 0.334811 -0.942285 0
    outer loop
      vertex 1.50879 41.0693 -6
      vertex 1.50879 41.0693 6
      vertex 0 40.5332 6
    endloop
  endfacet
  facet normal 0.346319 -0.938117 0
    outer loop
      vertex 1.69922 41.1396 -6
      vertex 1.50879 41.0693 6
      vertex 1.50879 41.0693 -6
    endloop
  endfacet
  facet normal 0.346319 -0.938117 0
    outer loop
      vertex 1.69922 41.1396 -6
      vertex 1.69922 41.1396 6
      vertex 1.50879 41.0693 6
    endloop
  endfacet
  facet normal 0.344502 -0.938785 0
    outer loop
      vertex 2.27148 41.3496 -6
      vertex 1.69922 41.1396 6
      vertex 1.69922 41.1396 -6
    endloop
  endfacet
  facet normal 0.344502 -0.938785 0
    outer loop
      vertex 2.27148 41.3496 -6
      vertex 2.27148 41.3496 6
      vertex 1.69922 41.1396 6
    endloop
  endfacet
  facet normal 0.341589 -0.939849 0
    outer loop
      vertex 3.21191 41.6914 -6
      vertex 2.27148 41.3496 6
      vertex 2.27148 41.3496 -6
    endloop
  endfacet
  facet normal 0.341589 -0.939849 0
    outer loop
      vertex 3.21191 41.6914 -6
      vertex 3.21191 41.6914 6
      vertex 2.27148 41.3496 6
    endloop
  endfacet
  facet normal 0.341221 -0.939983 0
    outer loop
      vertex 4.20996 42.0537 -6
      vertex 3.21191 41.6914 6
      vertex 3.21191 41.6914 -6
    endloop
  endfacet
  facet normal 0.341221 -0.939983 0
    outer loop
      vertex 4.20996 42.0537 -6
      vertex 4.20996 42.0537 6
      vertex 3.21191 41.6914 6
    endloop
  endfacet
  facet normal 0.341582 -0.939852 0
    outer loop
      vertex 4.91406 42.3096 -6
      vertex 4.20996 42.0537 6
      vertex 4.20996 42.0537 -6
    endloop
  endfacet
  facet normal 0.341582 -0.939852 0
    outer loop
      vertex 4.91406 42.3096 -6
      vertex 4.91406 42.3096 6
      vertex 4.20996 42.0537 6
    endloop
  endfacet
  facet normal 0.344116 -0.938927 0
    outer loop
      vertex 5.14844 42.3955 -6
      vertex 4.91406 42.3096 6
      vertex 4.91406 42.3096 -6
    endloop
  endfacet
  facet normal 0.344116 -0.938927 0
    outer loop
      vertex 5.14844 42.3955 -6
      vertex 5.14844 42.3955 6
      vertex 4.91406 42.3096 6
    endloop
  endfacet
  facet normal 0.338805 -0.940857 0
    outer loop
      vertex 7.26367 43.1572 -6
      vertex 5.14844 42.3955 6
      vertex 5.14844 42.3955 -6
    endloop
  endfacet
  facet normal 0.338805 -0.940857 0
    outer loop
      vertex 7.26367 43.1572 -6
      vertex 7.26367 43.1572 6
      vertex 5.14844 42.3955 6
    endloop
  endfacet
  facet normal -0.999928 -0.0120413 0
    outer loop
      vertex 7.30664 39.5889 -6
      vertex 7.26367 43.1572 6
      vertex 7.26367 43.1572 -6
    endloop
  endfacet
  facet normal -0.999928 -0.0120413 0
    outer loop
      vertex 7.30664 39.5889 -6
      vertex 7.30664 39.5889 6
      vertex 7.26367 43.1572 6
    endloop
  endfacet
  facet normal -0.999982 -0.00592867 0
    outer loop
      vertex 7.30957 39.0947 -6
      vertex 7.30664 39.5889 6
      vertex 7.30664 39.5889 -6
    endloop
  endfacet
  facet normal -0.999982 -0.00592867 0
    outer loop
      vertex 7.30957 39.0947 -6
      vertex 7.30957 39.0947 6
      vertex 7.30664 39.5889 6
    endloop
  endfacet
  facet normal -0.999998 -0.00221509 0
    outer loop
      vertex 7.31641 36.0068 -6
      vertex 7.30957 39.0947 6
      vertex 7.30957 39.0947 -6
    endloop
  endfacet
  facet normal -0.999998 -0.00221509 0
    outer loop
      vertex 7.31641 36.0068 -6
      vertex 7.31641 36.0068 6
      vertex 7.30957 39.0947 6
    endloop
  endfacet
  facet normal -0.999998 0.00221509 0
    outer loop
      vertex 7.30957 32.9189 -6
      vertex 7.31641 36.0068 6
      vertex 7.31641 36.0068 -6
    endloop
  endfacet
  facet normal -0.999998 0.00221509 0
    outer loop
      vertex 7.30957 32.9189 -6
      vertex 7.30957 32.9189 6
      vertex 7.31641 36.0068 6
    endloop
  endfacet
  facet normal -0.999982 0.00591789 0
    outer loop
      vertex 7.30664 32.4238 -6
      vertex 7.30957 32.9189 6
      vertex 7.30957 32.9189 -6
    endloop
  endfacet
  facet normal -0.999982 0.00591789 0
    outer loop
      vertex 7.30664 32.4238 -6
      vertex 7.30664 32.4238 6
      vertex 7.30957 32.9189 6
    endloop
  endfacet
  facet normal -0.999928 0.0119919 0
    outer loop
      vertex 7.26367 28.8408 -6
      vertex 7.30664 32.4238 6
      vertex 7.30664 32.4238 -6
    endloop
  endfacet
  facet normal -0.999928 0.0119919 0
    outer loop
      vertex 7.26367 28.8408 -6
      vertex 7.26367 28.8408 6
      vertex 7.30664 32.4238 6
    endloop
  endfacet
  facet normal 0.342808 0.939406 0
    outer loop
      vertex 3.66699 30.1533 -6
      vertex 7.26367 28.8408 6
      vertex 7.26367 28.8408 -6
    endloop
  endfacet
  facet normal 0.342808 0.939406 -0
    outer loop
      vertex 3.66699 30.1533 -6
      vertex 3.66699 30.1533 6
      vertex 7.26367 28.8408 6
    endloop
  endfacet
  facet normal 0.339436 0.940629 0
    outer loop
      vertex 0.0703125 31.4512 -6
      vertex 3.66699 30.1533 6
      vertex 3.66699 30.1533 -6
    endloop
  endfacet
  facet normal 0.339436 0.940629 -0
    outer loop
      vertex 0.0703125 31.4512 -6
      vertex 0.0703125 31.4512 6
      vertex 3.66699 30.1533 6
    endloop
  endfacet
  facet normal -0.999983 0.00580154 0
    outer loop
      vertex 0.0273438 24.0449 -6
      vertex 0.0703125 31.4512 6
      vertex 0.0703125 31.4512 -6
    endloop
  endfacet
  facet normal -0.999983 0.00580154 0
    outer loop
      vertex 0.0273438 24.0449 -6
      vertex 0.0273438 24.0449 6
      vertex 0.0703125 31.4512 6
    endloop
  endfacet
  facet normal -0.999992 0.00407635 0
    outer loop
      vertex 0.0244141 23.3262 -6
      vertex 0.0273438 24.0449 6
      vertex 0.0273438 24.0449 -6
    endloop
  endfacet
  facet normal -0.999992 0.00407635 0
    outer loop
      vertex 0.0244141 23.3262 -6
      vertex 0.0244141 23.3262 6
      vertex 0.0273438 24.0449 6
    endloop
  endfacet
  facet normal -1 0.000903381 0
    outer loop
      vertex 0.0224609 21.1641 -6
      vertex 0.0244141 23.3262 6
      vertex 0.0244141 23.3262 -6
    endloop
  endfacet
  facet normal -1 0.000903381 0
    outer loop
      vertex 0.0224609 21.1641 -6
      vertex 0.0224609 21.1641 6
      vertex 0.0244141 23.3262 6
    endloop
  endfacet
  facet normal -0.999998 -0.00206099 0
    outer loop
      vertex 0.0273438 18.7949 -6
      vertex 0.0224609 21.1641 6
      vertex 0.0224609 21.1641 -6
    endloop
  endfacet
  facet normal -0.999998 -0.00206099 0
    outer loop
      vertex 0.0273438 18.7949 -6
      vertex 0.0273438 18.7949 6
      vertex 0.0224609 21.1641 6
    endloop
  endfacet
  facet normal -0.999953 -0.0097027 0
    outer loop
      vertex 0.0429688 17.1846 -6
      vertex 0.0273438 18.7949 6
      vertex 0.0273438 18.7949 -6
    endloop
  endfacet
  facet normal -0.999953 -0.0097027 0
    outer loop
      vertex 0.0429688 17.1846 -6
      vertex 0.0429688 17.1846 6
      vertex 0.0273438 18.7949 6
    endloop
  endfacet
  facet normal -0.999621 -0.0275393 0
    outer loop
      vertex 0.0595703 16.582 -6
      vertex 0.0429688 17.1846 6
      vertex 0.0429688 17.1846 -6
    endloop
  endfacet
  facet normal -0.999621 -0.0275393 0
    outer loop
      vertex 0.0595703 16.582 -6
      vertex 0.0595703 16.582 6
      vertex 0.0429688 17.1846 6
    endloop
  endfacet
  facet normal -0.706972 -0.707241 0
    outer loop
      vertex 0.0800781 16.5615 -6
      vertex 0.0595703 16.582 6
      vertex 0.0595703 16.582 -6
    endloop
  endfacet
  facet normal -0.706972 -0.707241 0
    outer loop
      vertex 0.0800781 16.5615 -6
      vertex 0.0800781 16.5615 6
      vertex 0.0595703 16.582 6
    endloop
  endfacet
  facet normal 0.261655 -0.965161 0
    outer loop
      vertex 0.368164 16.6396 -6
      vertex 0.0800781 16.5615 6
      vertex 0.0800781 16.5615 -6
    endloop
  endfacet
  facet normal 0.261655 -0.965161 0
    outer loop
      vertex 0.368164 16.6396 -6
      vertex 0.368164 16.6396 6
      vertex 0.0800781 16.5615 6
    endloop
  endfacet
  facet normal 0.303405 -0.952862 0
    outer loop
      vertex 1.12598 16.8809 -6
      vertex 0.368164 16.6396 6
      vertex 0.368164 16.6396 -6
    endloop
  endfacet
  facet normal 0.303405 -0.952862 0
    outer loop
      vertex 1.12598 16.8809 -6
      vertex 1.12598 16.8809 6
      vertex 0.368164 16.6396 6
    endloop
  endfacet
  facet normal 0.326205 -0.945299 0
    outer loop
      vertex 2.22949 17.2617 -6
      vertex 1.12598 16.8809 6
      vertex 1.12598 16.8809 -6
    endloop
  endfacet
  facet normal 0.326205 -0.945299 0
    outer loop
      vertex 2.22949 17.2617 -6
      vertex 2.22949 17.2617 6
      vertex 1.12598 16.8809 6
    endloop
  endfacet
  facet normal 0.335098 -0.942183 0
    outer loop
      vertex 3.23438 17.6191 -6
      vertex 2.22949 17.2617 6
      vertex 2.22949 17.2617 -6
    endloop
  endfacet
  facet normal 0.335098 -0.942183 0
    outer loop
      vertex 3.23438 17.6191 -6
      vertex 3.23438 17.6191 6
      vertex 2.22949 17.2617 6
    endloop
  endfacet
  facet normal 0.344255 -0.938876 0
    outer loop
      vertex 3.56738 17.7412 -6
      vertex 3.23438 17.6191 6
      vertex 3.23438 17.6191 -6
    endloop
  endfacet
  facet normal 0.344255 -0.938876 0
    outer loop
      vertex 3.56738 17.7412 -6
      vertex 3.56738 17.7412 6
      vertex 3.23438 17.6191 6
    endloop
  endfacet
  facet normal 0.339995 -0.940427 0
    outer loop
      vertex 4.90723 18.2256 -6
      vertex 3.56738 17.7412 6
      vertex 3.56738 17.7412 -6
    endloop
  endfacet
  facet normal 0.339995 -0.940427 0
    outer loop
      vertex 4.90723 18.2256 -6
      vertex 4.90723 18.2256 6
      vertex 3.56738 17.7412 6
    endloop
  endfacet
  facet normal 0.34235 -0.939572 0
    outer loop
      vertex 6.03027 18.6348 -6
      vertex 4.90723 18.2256 6
      vertex 4.90723 18.2256 -6
    endloop
  endfacet
  facet normal 0.34235 -0.939572 0
    outer loop
      vertex 6.03027 18.6348 -6
      vertex 6.03027 18.6348 6
      vertex 4.90723 18.2256 6
    endloop
  endfacet
  facet normal 0.346388 -0.938091 0
    outer loop
      vertex 6.81836 18.9258 -6
      vertex 6.03027 18.6348 6
      vertex 6.03027 18.6348 -6
    endloop
  endfacet
  facet normal 0.346388 -0.938091 0
    outer loop
      vertex 6.81836 18.9258 -6
      vertex 6.81836 18.9258 6
      vertex 6.03027 18.6348 6
    endloop
  endfacet
  facet normal 0.353087 -0.93559 0
    outer loop
      vertex 7.12891 19.043 -6
      vertex 6.81836 18.9258 6
      vertex 6.81836 18.9258 -6
    endloop
  endfacet
  facet normal 0.353087 -0.93559 0
    outer loop
      vertex 7.12891 19.043 -6
      vertex 7.12891 19.043 6
      vertex 6.81836 18.9258 6
    endloop
  endfacet
  facet normal 0.411564 -0.911381 0
    outer loop
      vertex 7.15039 19.0527 -6
      vertex 7.12891 19.043 6
      vertex 7.12891 19.043 -6
    endloop
  endfacet
  facet normal 0.411564 -0.911381 0
    outer loop
      vertex 7.15039 19.0527 -6
      vertex 7.15039 19.0527 6
      vertex 7.12891 19.043 6
    endloop
  endfacet
  facet normal -0.956673 -0.291163 0
    outer loop
      vertex 7.23926 18.7607 -6
      vertex 7.15039 19.0527 6
      vertex 7.15039 19.0527 -6
    endloop
  endfacet
  facet normal -0.956673 -0.291163 0
    outer loop
      vertex 7.23926 18.7607 -6
      vertex 7.23926 18.7607 6
      vertex 7.15039 19.0527 6
    endloop
  endfacet
  facet normal -0.998748 -0.0500228 0
    outer loop
      vertex 7.29492 17.6494 -6
      vertex 7.23926 18.7607 6
      vertex 7.23926 18.7607 -6
    endloop
  endfacet
  facet normal -0.998748 -0.0500228 0
    outer loop
      vertex 7.29492 17.6494 -6
      vertex 7.29492 17.6494 6
      vertex 7.23926 18.7607 6
    endloop
  endfacet
  facet normal -0.999909 -0.0134533 0
    outer loop
      vertex 7.32422 15.4717 -6
      vertex 7.29492 17.6494 6
      vertex 7.29492 17.6494 -6
    endloop
  endfacet
  facet normal -0.999909 -0.0134533 0
    outer loop
      vertex 7.32422 15.4717 -6
      vertex 7.32422 15.4717 6
      vertex 7.29492 17.6494 6
    endloop
  endfacet
  facet normal -0.999993 -0.00371949 0
    outer loop
      vertex 7.33398 12.8477 -6
      vertex 7.32422 15.4717 6
      vertex 7.32422 15.4717 -6
    endloop
  endfacet
  facet normal -0.999993 -0.00371949 0
    outer loop
      vertex 7.33398 12.8477 -6
      vertex 7.33398 12.8477 6
      vertex 7.32422 15.4717 6
    endloop
  endfacet
  facet normal -1 0 0
    outer loop
      vertex 7.33398 11.2588 -6
      vertex 7.33398 12.8477 6
      vertex 7.33398 12.8477 -6
    endloop
  endfacet
  facet normal -1 0 0
    outer loop
      vertex 7.33398 11.2588 -6
      vertex 7.33398 11.2588 6
      vertex 7.33398 12.8477 6
    endloop
  endfacet
  facet normal -0.999987 0.005008 0
    outer loop
      vertex 7.32324 9.11426 -6
      vertex 7.33398 11.2588 6
      vertex 7.33398 11.2588 -6
    endloop
  endfacet
  facet normal -0.999987 0.005008 0
    outer loop
      vertex 7.32324 9.11426 -6
      vertex 7.32324 9.11426 6
      vertex 7.33398 11.2588 6
    endloop
  endfacet
  facet normal -0.999932 0.0116641 0
    outer loop
      vertex 7.29688 6.85449 -6
      vertex 7.32324 9.11426 6
      vertex 7.32324 9.11426 -6
    endloop
  endfacet
  facet normal -0.999932 0.0116641 0
    outer loop
      vertex 7.29688 6.85449 -6
      vertex 7.29688 6.85449 6
      vertex 7.32324 9.11426 6
    endloop
  endfacet
  facet normal -0.9996 0.0282835 0
    outer loop
      vertex 7.25488 5.37012 -6
      vertex 7.29688 6.85449 6
      vertex 7.29688 6.85449 -6
    endloop
  endfacet
  facet normal -0.9996 0.0282835 0
    outer loop
      vertex 7.25488 5.37012 -6
      vertex 7.25488 5.37012 6
      vertex 7.29688 6.85449 6
    endloop
  endfacet
  facet normal -0.997596 0.0693039 0
    outer loop
      vertex 7.21777 4.83594 -6
      vertex 7.25488 5.37012 6
      vertex 7.25488 5.37012 -6
    endloop
  endfacet
  facet normal -0.997596 0.0693039 0
    outer loop
      vertex 7.21777 4.83594 -6
      vertex 7.21777 4.83594 6
      vertex 7.25488 5.37012 6
    endloop
  endfacet
  facet normal 0 1 0
    outer loop
      vertex 7.12598 4.83594 -6
      vertex 7.21777 4.83594 6
      vertex 7.21777 4.83594 -6
    endloop
  endfacet
  facet normal 0 1 0
    outer loop
      vertex 7.12598 4.83594 -6
      vertex 7.12598 4.83594 6
      vertex 7.21777 4.83594 6
    endloop
  endfacet
  facet normal 0.384084 0.923298 0
    outer loop
      vertex 6.88184 4.9375 -6
      vertex 7.12598 4.83594 6
      vertex 7.12598 4.83594 -6
    endloop
  endfacet
  facet normal 0.384084 0.923298 -0
    outer loop
      vertex 6.88184 4.9375 -6
      vertex 6.88184 4.9375 6
      vertex 7.12598 4.83594 6
    endloop
  endfacet
  facet normal 0.328832 0.944388 0
    outer loop
      vertex 6.09375 5.21191 -6
      vertex 6.88184 4.9375 6
      vertex 6.88184 4.9375 -6
    endloop
  endfacet
  facet normal 0.328832 0.944388 -0
    outer loop
      vertex 6.09375 5.21191 -6
      vertex 6.09375 5.21191 6
      vertex 6.88184 4.9375 6
    endloop
  endfacet
  facet normal 0.335153 0.942164 0
    outer loop
      vertex 4.95996 5.61523 -6
      vertex 6.09375 5.21191 6
      vertex 6.09375 5.21191 -6
    endloop
  endfacet
  facet normal 0.335153 0.942164 -0
    outer loop
      vertex 4.95996 5.61523 -6
      vertex 4.95996 5.61523 6
      vertex 6.09375 5.21191 6
    endloop
  endfacet
  facet normal 0.338788 0.940863 0
    outer loop
      vertex 3.9375 5.9834 -6
      vertex 4.95996 5.61523 6
      vertex 4.95996 5.61523 -6
    endloop
  endfacet
  facet normal 0.338788 0.940863 -0
    outer loop
      vertex 3.9375 5.9834 -6
      vertex 3.9375 5.9834 6
      vertex 4.95996 5.61523 6
    endloop
  endfacet
  facet normal 0.334788 0.942294 0
    outer loop
      vertex 3.59668 6.10449 -6
      vertex 3.9375 5.9834 6
      vertex 3.9375 5.9834 -6
    endloop
  endfacet
  facet normal 0.334788 0.942294 -0
    outer loop
      vertex 3.59668 6.10449 -6
      vertex 3.59668 6.10449 6
      vertex 3.9375 5.9834 6
    endloop
  endfacet
  facet normal 0.34671 0.937972 0
    outer loop
      vertex 3.25586 6.23047 -6
      vertex 3.59668 6.10449 6
      vertex 3.59668 6.10449 -6
    endloop
  endfacet
  facet normal 0.34671 0.937972 -0
    outer loop
      vertex 3.25586 6.23047 -6
      vertex 3.25586 6.23047 6
      vertex 3.59668 6.10449 6
    endloop
  endfacet
  facet normal 0.341817 0.939766 0
    outer loop
      vertex 2.23828 6.60059 -6
      vertex 3.25586 6.23047 6
      vertex 3.25586 6.23047 -6
    endloop
  endfacet
  facet normal 0.341817 0.939766 -0
    outer loop
      vertex 2.23828 6.60059 -6
      vertex 2.23828 6.60059 6
      vertex 3.25586 6.23047 6
    endloop
  endfacet
  facet normal 0.339238 0.940701 0
    outer loop
      vertex 1.11719 7.00488 -6
      vertex 2.23828 6.60059 6
      vertex 2.23828 6.60059 -6
    endloop
  endfacet
  facet normal 0.339238 0.940701 -0
    outer loop
      vertex 1.11719 7.00488 -6
      vertex 1.11719 7.00488 6
      vertex 2.23828 6.60059 6
    endloop
  endfacet
  facet normal 0.334208 0.942499 0
    outer loop
      vertex 0.351562 7.27637 -6
      vertex 1.11719 7.00488 6
      vertex 1.11719 7.00488 -6
    endloop
  endfacet
  facet normal 0.334208 0.942499 -0
    outer loop
      vertex 0.351562 7.27637 -6
      vertex 0.351562 7.27637 6
      vertex 1.11719 7.00488 6
    endloop
  endfacet
  facet normal 0.403123 0.915146 0
    outer loop
      vertex 0.129883 7.37402 -6
      vertex 0.351562 7.27637 6
      vertex 0.351562 7.27637 -6
    endloop
  endfacet
  facet normal 0.403123 0.915146 -0
    outer loop
      vertex 0.129883 7.37402 -6
      vertex 0.129883 7.37402 6
      vertex 0.351562 7.27637 6
    endloop
  endfacet
  facet normal 0 1 0
    outer loop
      vertex 0.0507812 7.37402 -6
      vertex 0.129883 7.37402 6
      vertex 0.129883 7.37402 -6
    endloop
  endfacet
  facet normal 0 1 0
    outer loop
      vertex 0.0507812 7.37402 -6
      vertex 0.0507812 7.37402 6
      vertex 0.129883 7.37402 6
    endloop
  endfacet
  facet normal -0.998344 0.0575326 0
    outer loop
      vertex 0.0341797 7.08594 -6
      vertex 0.0507812 7.37402 6
      vertex 0.0507812 7.37402 -6
    endloop
  endfacet
  facet normal -0.998344 0.0575326 0
    outer loop
      vertex 0.0341797 7.08594 -6
      vertex 0.0341797 7.08594 6
      vertex 0.0507812 7.37402 6
    endloop
  endfacet
  facet normal -0.999751 0.0222991 0
    outer loop
      vertex 0.0166016 6.29785 -6
      vertex 0.0341797 7.08594 6
      vertex 0.0341797 7.08594 -6
    endloop
  endfacet
  facet normal -0.999751 0.0222991 0
    outer loop
      vertex 0.0166016 6.29785 -6
      vertex 0.0166016 6.29785 6
      vertex 0.0341797 7.08594 6
    endloop
  endfacet
  facet normal -0.999941 0.0108872 0
    outer loop
      vertex 0.00390625 5.13184 -6
      vertex 0.0166016 6.29785 6
      vertex 0.0166016 6.29785 -6
    endloop
  endfacet
  facet normal -0.999941 0.0108872 0
    outer loop
      vertex 0.00390625 5.13184 -6
      vertex 0.00390625 5.13184 6
      vertex 0.0166016 6.29785 6
    endloop
  endfacet
  facet normal -0.999993 0.00365628 0
    outer loop
      vertex 0 4.06348 -6
      vertex 0.00390625 5.13184 6
      vertex 0.00390625 5.13184 -6
    endloop
  endfacet
  facet normal -0.999993 0.00365628 0
    outer loop
      vertex 0 4.06348 -6
      vertex 0 4.06348 6
      vertex 0.00390625 5.13184 6
    endloop
  endfacet
  facet normal -1 0 0
    outer loop
      vertex 0 0.0400391 -6
      vertex 0 4.06348 6
      vertex 0 4.06348 -6
    endloop
  endfacet
  facet normal -1 0 0
    outer loop
      vertex 0 0.0400391 -6
      vertex 0 0.0400391 6
      vertex 0 4.06348 6
    endloop
  endfacet
  facet normal 0 -1 0
    outer loop
      vertex 100 0.0400391 -6
      vertex 0 0.0400391 6
      vertex 0 0.0400391 -6
    endloop
  endfacet
  facet normal 0 -1 0
    outer loop
      vertex 100 0.0400391 -6
      vertex 100 0.0400391 6
      vertex 0 0.0400391 6
    endloop
  endfacet
  facet normal 1 0 0
    outer loop
      vertex 100 83.9609 -6
      vertex 100 0.0400391 6
      vertex 100 0.0400391 -6
    endloop
  endfacet
  facet normal 1 0 -0
    outer loop
      vertex 100 83.9609 -6
      vertex 100 83.9609 6
      vertex 100 0.0400391 6
    endloop
  endfacet
endsolid OpenSCAD_Model
