<?xml version="1.0" encoding="UTF-8"?>
<svg id="_レイヤー_2" data-name="レイヤー_2" xmlns="http://www.w3.org/2000/svg" width="150mm" height="43mm" viewBox="0 0 425.2 121.89">
  <defs>
    <style>
      .cls-1 {
        fill: #66b732;
      }
    </style>
  </defs>
  <g id="layer1">
    <path id="side" class="cls-1" d="M255.12,0H0v114.04l6.74,7.85h21.62l7.07-7.85v-14.83h184.25v14.83l7.92,7.85h20.3l7.22-7.85v-14.83h170.08V0h-170.08ZM17.72,113.39c-3.91,0-7.09-3.17-7.09-7.09s3.17-7.09,7.09-7.09,7.09,3.17,7.09,7.09-3.17,7.09-7.09,7.09ZM237.55,113.39c-3.91,0-7.09-3.17-7.09-7.09s3.17-7.09,7.09-7.09,7.09,3.17,7.09,7.09-3.17,7.09-7.09,7.09ZM406.03,76.54H22.08V16.23h383.95v60.3Z"/>
  </g>
</svg>